<mxfile host="Electron" agent="Mozilla/5.0 (Windows NT 10.0; Win64; x64) AppleWebKit/537.36 (KHTML, like Gecko) draw.io/24.7.17 Chrome/128.0.6613.36 Electron/32.0.1 Safari/537.36" version="24.7.17">
  <diagram name="PÃ¡gina-1" id="QmXLvSdhJT5Jnsy55jjz">
    <mxGraphModel dx="1562" dy="1037" grid="1" gridSize="10" guides="1" tooltips="1" connect="1" arrows="1" fold="1" page="1" pageScale="1" pageWidth="827" pageHeight="1169" math="0" shadow="0">
      <root>
        <mxCell id="0" />
        <mxCell id="1" parent="0" />
        <mxCell id="LdislrrwhpJ1fRWfP6PM-19" value="" style="rounded=0;whiteSpace=wrap;html=1;" vertex="1" parent="1">
          <mxGeometry x="80" y="520" width="250" height="370" as="geometry" />
        </mxCell>
        <mxCell id="LdislrrwhpJ1fRWfP6PM-1" value="ESP-01" style="shadow=0;dashed=0;align=center;html=1;strokeWidth=1;shape=mxgraph.electrical.logic_gates.dual_inline_ic;labelNames=a,b,c,d,e,f,g,h,i,j,k,l,m,n,o,p,q,r,s,t;whiteSpace=wrap;" vertex="1" parent="1">
          <mxGeometry x="154" y="560" width="100" height="80" as="geometry" />
        </mxCell>
        <mxCell id="LdislrrwhpJ1fRWfP6PM-2" value="ESP32" style="shadow=0;dashed=0;align=center;html=1;strokeWidth=1;shape=mxgraph.electrical.logic_gates.dual_inline_ic;labelNames=a,b,c,d,e,f,g,h,i,j,k,l,m,n,o,p,q,r,s,t;whiteSpace=wrap;" vertex="1" parent="1">
          <mxGeometry x="610" y="480" width="100" height="300" as="geometry" />
        </mxCell>
        <mxCell id="LdislrrwhpJ1fRWfP6PM-3" value="" style="verticalLabelPosition=bottom;shadow=0;dashed=0;align=center;fillColor=strokeColor;html=1;verticalAlign=top;strokeWidth=1;shape=mxgraph.electrical.miscellaneous.monocell_battery;" vertex="1" parent="1">
          <mxGeometry x="154" y="660" width="100" height="60" as="geometry" />
        </mxCell>
        <mxCell id="LdislrrwhpJ1fRWfP6PM-4" value="&lt;div&gt;&lt;span style=&quot;background-color: initial;&quot;&gt;LY-38&lt;/span&gt;&lt;br&gt;&lt;/div&gt;" style="shadow=0;dashed=0;align=center;html=1;strokeWidth=1;shape=mxgraph.electrical.logic_gates.dual_inline_ic;labelNames=a,b,c,d,e,f,g,h,i,j,k,l,m,n,o,p,q,r,s,t;whiteSpace=wrap;" vertex="1" parent="1">
          <mxGeometry x="154" y="755" width="100" height="50" as="geometry" />
        </mxCell>
        <mxCell id="LdislrrwhpJ1fRWfP6PM-5" style="edgeStyle=orthogonalEdgeStyle;rounded=0;orthogonalLoop=1;jettySize=auto;html=1;exitX=1;exitY=0.5;exitDx=0;exitDy=0;exitPerimeter=0;entryX=1;entryY=0;entryDx=0;entryDy=10;entryPerimeter=0;strokeColor=#FF0000;" edge="1" parent="1" source="LdislrrwhpJ1fRWfP6PM-3" target="LdislrrwhpJ1fRWfP6PM-1">
          <mxGeometry relative="1" as="geometry" />
        </mxCell>
        <mxCell id="LdislrrwhpJ1fRWfP6PM-6" style="edgeStyle=orthogonalEdgeStyle;rounded=0;orthogonalLoop=1;jettySize=auto;html=1;exitX=1;exitY=0.5;exitDx=0;exitDy=0;exitPerimeter=0;entryX=1;entryY=0;entryDx=0;entryDy=10;entryPerimeter=0;strokeColor=#FF0000;" edge="1" parent="1" source="LdislrrwhpJ1fRWfP6PM-3" target="LdislrrwhpJ1fRWfP6PM-4">
          <mxGeometry relative="1" as="geometry" />
        </mxCell>
        <mxCell id="LdislrrwhpJ1fRWfP6PM-8" style="edgeStyle=orthogonalEdgeStyle;rounded=0;orthogonalLoop=1;jettySize=auto;html=1;exitX=0;exitY=0.5;exitDx=0;exitDy=0;exitPerimeter=0;entryX=0;entryY=0;entryDx=0;entryDy=10;entryPerimeter=0;strokeColor=#66B2FF;" edge="1" parent="1" source="LdislrrwhpJ1fRWfP6PM-3" target="LdislrrwhpJ1fRWfP6PM-1">
          <mxGeometry relative="1" as="geometry" />
        </mxCell>
        <mxCell id="LdislrrwhpJ1fRWfP6PM-9" style="edgeStyle=orthogonalEdgeStyle;rounded=0;orthogonalLoop=1;jettySize=auto;html=1;exitX=0;exitY=0.5;exitDx=0;exitDy=0;exitPerimeter=0;entryX=0;entryY=0;entryDx=0;entryDy=30;entryPerimeter=0;strokeColor=#66B2FF;" edge="1" parent="1" source="LdislrrwhpJ1fRWfP6PM-3" target="LdislrrwhpJ1fRWfP6PM-4">
          <mxGeometry relative="1" as="geometry" />
        </mxCell>
        <mxCell id="LdislrrwhpJ1fRWfP6PM-10" style="edgeStyle=orthogonalEdgeStyle;rounded=0;orthogonalLoop=1;jettySize=auto;html=1;exitX=1;exitY=0;exitDx=0;exitDy=30;exitPerimeter=0;entryX=0;entryY=0;entryDx=0;entryDy=30;entryPerimeter=0;strokeColor=#33FF33;" edge="1" parent="1" source="LdislrrwhpJ1fRWfP6PM-4" target="LdislrrwhpJ1fRWfP6PM-1">
          <mxGeometry relative="1" as="geometry">
            <Array as="points">
              <mxPoint x="310" y="785" />
              <mxPoint x="310" y="840" />
              <mxPoint x="100" y="840" />
              <mxPoint x="100" y="590" />
            </Array>
          </mxGeometry>
        </mxCell>
        <mxCell id="LdislrrwhpJ1fRWfP6PM-14" value="" style="shape=image;verticalLabelPosition=bottom;labelBackgroundColor=default;verticalAlign=top;aspect=fixed;imageAspect=0;image=data:image/png,iVBORw0KGgoAAAANSUhEUgAAAmoAAAGJCAYAAAA66h/OAAAAAXNSR0IArs4c6QAAAARnQU1BAACxjwv8YQUAAAAJcEhZcwAADsMAAA7DAcdvqGQAAP+lSURBVHhe7P1nn1zZdZ8Nr8q5cwYaGYPJM8xKpDJtWfbt+/f4ll/ro/iD2D/7hYMkWw4SKZEUJVlUIIfkcDiBEzDAIMeOlXPVs661a3cXGt1AN9ANNDD7P7NQ1XXO2Wefc3a4ztop0ldJUFBQUFBQUFDQoVN08BkUFBQUFBQUFHTIFEAtKCgoKCgoKOiQKoBaUFBQUFBQUNAhVQC1oKCgoKCgoKBDqgBqQUFBQUFBQUGHVAHUgoKCgoKCgoIOqQKoBQUFBQUFBQUdUgVQCwoKCgoKCgo6pAqgFhQUFBQUFBR0SBVALSgoKCgoKCjokCqAWlBQUFBQUFDQIVUAtaCgoKCgoKCgQ6p7FmXnW1//6/X6slpqyrpardGWrv7d64a124OCHqZkMiZjhaRaSpKJmCTiUYnHwvtQUFBQUNCj6R5Q6+nXXk+k3e3JxWvrcuFqUZbX69Jud6XV0Q2B1YKCHqiRfFJOHhmRE2ojuaTk0glJKbwFBQUFBQU9iu4DtU63L612T3720V15W+3anYo0ml21zganRR6B2Pp61LA2w7pX+x32TuFxzN7PtHe5mG2N4b1y8XjQHvuhB8cBPXyP51ePmxp6eri+ysjUWEa+cG5KvvjitEyOphTWUpJNx91OQUFBQUFBe9S2oNZUUPund2/JP/78lly8UZJKvSuVRkdrcr/ro1Rqm8hChdbTT36JDvDAVZSPEi7aLuy+hY1tJ/bB+v2Dg5NI5MFxuFebd2G/tft7e3BxOKzavNrHu+qWklpT8878VFZ+6wvz8ltfnJfpsXQAtaCgoKCgx9IOoNaVv/7xdfm+2seXi7Je66o5UHMo9CiiSnTWVevoWcGCmP4T29jy+GF31OhOx1/xSE/i+rmd2K/TjxqsHZQAtLjCWnwX1+XifzB9mQZIOvhrZxEHF+vPj3zKeVxQq3Z6an1ZnM3J/+9XF+Xf/NoxmR0PoBYUFBQU9HjaEdS+/9Z1+d5b1+Sjy+uyVu3IehW80kpNwWM3lf5WOQhwUJROtiSdaEo6rp/xtqRibft9z8EO4sK/vX5Mur2YVFopqbbT0uzEpdvV33tRd1bPY3oOThOPKcTFupKMY8ShpdfmdnlctbpxPX9C2hqHdjdmn4jwh++dxX7wZ1QZLYYHTi0W5XPv0OrC82ECXA6Bu72eGb+7OGzKdtV/XDTYOPB0Eg+1e3Z+DkWfTGu29Jc6uH5/R3arcruv1pNjs3n5g68vyr/9BqCWCaAWFBQUFPRY2hWorRuota2Sj6o9St3tTwIAzBSKMpsvylimIoV0RfLJqoFWvw9c7C509opEuhpeV4+NKogoGHUTcrcypjYqxUZWqs2kVFvJQbxduFwjVzySbspouqGfdf2syqjG5VHgaDuVmlkpNXJSrGdlXePBJ9fPtQ/7zFy/JhevFNA4sIRaPPoIoEZ43AvuYx84SNh9rXd60lCQcEi7eS8Q8fL3JAKk6CYALaEgm4h23U7PsdoK861uVDoK9NwXrn/z7uxeJYW0cqsniwHUgoKCgoL2UbsEtbYUN0DNVWa7FYFzBrxEca34U/GOnBi/Kycm7spMfk1BqSwjmbL0ejE9f9xAYzfCMxWNdjQ+HtTi0uqk5EZxSm4WJ+WOwtpSpSDL1bwDEKpfBRCOoylwNl+WuUJJ41CSiZxatqhx3B9QW6vnZa1W0POPys3ymNwsjZu3b1jcE8ANDyX3JZdsSs68jB27R8DaXkWYXfMsRvWeJPVKUwavpUZUis2IPlvuLfdh8wFyPwa4ppCocDaARbycSY3H8y48r7V2wjyg3LuepiOHs9yT3aukkIYFUAsKCgoK2k8dKKgRcLdPn7GI5JMNmcxWZSpbkWPjt83GsyWFkpZaUyEDL9BePWo9M9Hwe5xHYWitXjAD1i6tzMmV1Tnri9bRbXipsgpDuWRLFseWNA53DBZzqbr+Vtew8Cw9ej8xjgd46u2UVv4pWamO6vnn5bJapZkeAAE91lw/vZFUQyYyVbWKjCmsjqpl9F7gzQLeHkVAK/ei00ua1VoZuVMeldulEam0knb+VncTGgEz4DCdaOnzKCuwlvVZ1fWZKKhZk/TegOVZU62d0WeD1zMnq7URWdW0Q3P1XhVALSgoKCjoIHTgoNbqRaXdi8hUriynx5fl1MSSHB27KUfGblmzpyGXgoVDr0eR80q5s2ncO8BIUq6tz8n7N8/IB7dOSaOTUIubp2gqV5FpBcbTU1flzPRVmR1ZkphCUSzKYAnz0z0SrBk0gmD6CSjRV2ytPirn756S83dOyt1qQcFNgUCBraPbunqe+ULR7snx8SWZzq+oLUtGgZZBEI/j3bP7bvchJcVGXi4tH5HPVhZkpVaQUsM1B3tlEm0FxLqMpesGz4tqeBgNoGMtUshgz+dT5UZBIW1MlsoT8tnqrFxcmVXQ5v749Li76w+gFhQUFBR0EDpwUGsqqLUU1BZG1uTVmRvy0vRNmSksqd01KAGK6Ef1OHKAxNn6GhbNoFG5vj6roPaC2lkpNVNaiaasSXFxdE2OqZ2YvCYnJ6/KVH7VjgPRHKQ5WNurOMrDmm9iLSkEXFo5pqB0Qq6uT8i14pgs13Ib9+/UxF15efaanJ26JWOZogJT0TxZvkn0cdRhEEM3LpVmRq6uLcg1tRulCfOsLdEczE76z1imZs9mYXRVjozeNcOzl1BwZbDF8656OyPVZk5Wq2NyQYH2wvKCNV0Da8A9z4pn+TAFUAsKCgoKOgg9ejvfHkXFn03WZERhJJ1oWAXomzutHnwMc7DnwgJA8JABPNlEy5oXU4m29AEfBSngkCbXfKomiZjCJ2DFv/RPeoz4AHiu2XFzUATxsCbf3Lrk0zWJ6t+gHE2weY3TeKYis4VlmR+5bZBGUyOQ5gK8/xx7Mc6VjDftOqfza7I4fkfPtarPoKE7qPRGAd0ZvUc0/56cuClzGpfRTEnvW91GwuLVe94to2lxLLMu0/ryMD+yJItjKzKdK5tHEc8oAz64pUFBQUFBQU9DTwzUgBYAjeZOKkFGjxrQmAdrH2wASXYuBbJEzPW7yqVa1g+L6haPV1rhZTRTVRhpKDC5zvL4FD2k3RfuXmwQBz5pRmX0ZCbRtNGtAFJUwQBQS+hnlibHVFUms2sKCct2X4gznjRg876w92hu5GZHwbRuYDo/uixTCoyZZFO3AmkY8WspSBbl6NgdmVJgK2iceD4cy3183o3+kYV0We/BqswU1hTW1mQiSxptW99K0mdQUFBQUNDT0hMDtUeVR4/di729Z+xBlazhiu3rbsP+VcguxpvgNyx+oUmR+eMYVcloWJPFVc08OI8fFwuVMDUOTDsSj7ZtgAJwwpxtcT2vG93JKFPi0jJP3+b983f++Tb9x32quD/M7ee9iUFBQUFBQU9bhxrUqEqtDjUv0wBoHiLbE0DaBpKGtdv9HklAzka494ZNk6+NtEwwqhJQ6+l+xgsuTvsVFwMtFwe8dAyWcKa/6imAMgO1AaThRcPraXfd4s694ftzbtxvS2ZMk+K8sDRBB1ALCgoKCjoMOtSg5gYGxKTTjQuTuLrRlIONO2l3PGfa2PUhx7imUforOXMV/G60XXwBJcAJz5ZDsw09NFB28PZwOehjBjm+uRGp7rs+eI0DnjbMvGxs0982tKtTDMfnWTUn7kqnF5dGO2ErS/R67r4N7xMUFBQUFPSkdahBDThjIlKm22AEo4ES1ad+PilxLs45DGrma3mCcUAGWHrKDTO0eHoQcV98nlHzIMZSY8x/xxx85UbWYM09+QBqQUFBQUFPT4ca1JhiotFm3q+0NDysaYX6JKtOqmq8epzbG/EC2J6KuHg1h2lPKQ5eg7g8y0YzL57bdi8u1WbaVpQoNzPS7jAwxe8YFBQUFBT0dHQoQc28WGortRE5v7Qo7908I58uHZcb6/NakY5Jq5MQlo6iKe+gVdVK+8b6jHx856TZR7dPyZXVBSk2CoM9DlbgGPej1U1ITYG11MzLam1c1uujUte/3XJRT8bv458L97/aykmpMfLM2np9TNPSuNwuz8illUW5oOnr6vqs3CkX9NmmzaNm69pGaAINCgoKCgp6Ojp0oAZwgF9MjcASTJ8uHZV3FdQu3D1moLZeGzVoMVB7Ah6PaisrN4qzG5D20Z3TCmpHpFjPD/Y4ONn1KSUYHA1AjZn0AYx1BVaWP3ILsOtO2AFq+LkQF+7LdgD0LFhRIRfQBXhv67O9vLpoLwJX1mbkVlkhbgPUdj+5c1BQUFBQ0EHo8HnUBtABfNTaSfOq3SlPaKU6KpVmXhqdlHmRbCQoNjjsoEQfOaBsqTKuNmFLDa3XC9YUe+DSi6OfFE1zTb0XZb3+OxqPy+vTcmV9SlY1XqxL+UQ8anqOrsILC99z/TdLk3JpFciZVXBVW8Nm5OqQ8bf7fTfb793mtu/22Idt32bbRpxn9bdZhfFpfTEYUQBN6TXSHzJqkBY4LSgoKCjoaeqJLSF1auK2fHXxvHzxyEWbbJYJYJkOASAbxi3fvIbn5u3r5+RHl1+Rm8UZOcGamGMrcmzihiyOX7dJYvusJtCL3XO8haYAd7c8KefvnpRPl07KjXLBjMldX5u9Lq/N3bB1NSdzK5JPVe+Lw7AurRyxZag+XTrm9tGLYnLY14+cl5fnPhvsda98HFhrc7U6bh6wX9w9Ku/eWpRb5TGZyVVtvdFzM5fltfnzcnLqul1Hrxe/Jx6+ebfWyiokTsqy2pXipFxWY160V2ev6PVc1vvJQu4dmwcMEYahG9HVa6OfHx3laUZ+5/oL8tGd48JyWkwPcmLilnzh6Cfy2sIFG4nqRoC65lYfF76xqD3LLdVbGYXEGflsdU5ul8eN9NmfPe2cZl7uF4uIhTa8DW2eY7vtPlT0OGFvPZbfATEMKAPGGe0JfLMuLP3WONQdvTuFJaSCgoKCgg5Ch8+jNqSt02I8DXFeIMUPIuA7FTwgc/AypDAPIoBEc92V9Wl5/+6CfLA0L7cqrhmYwQ7onuk19kkGOYCbJpW2gkytlVNAm5CPl47Iz26ekJ+rvav23s3j+nlcP49t2Lv26be7fe7d7o7xx9+73f39eGG77VuPfV/tg1vH5Be3F+XT5Tm5tj4hy7W8eXC5zuBJCwoKCgo6LDrUoOa1//jx7Cqu0JRSS0f79v1JaCu08Ddjb/FluvnY9LcNw+PqzHtfN7dvbnPmtplHbod9Hi9sFz++b7990/R/uzL3GRQUFBQUdDj0TIBa0KaAs2ysJ5loTxJAyOD3JykSTUx6GhdnrCvqDOhxEOWMdVcdLLnPe7e7/f32Bx97kGH7Y/X/oKCgoKCgQ6UAas+YgA4ALRlVyBj89uTl4MY8amo2qEP/3skAou1+xxwkbb8Ne9Cx2L6GPbi6oKCgoKCgw6IAakFBQUFBQUFBh1QB1IKCgoKCgoKCDqkCqAUFBQUFBQUFHVIFUAsKCgoKCgoKOqQKoBYUFBQUFBQUdEgVQC0oKCgoKCgo6JAqgFpQUFBQUFBQ0CFVALWgoKCgoKCgoEOqAGpBQUFBQUFBQYdUAdSCgoKCgoKCgg6pAqgFBQUFBQUFBR1SBVALCgoKCgoKCjqkCqAWFBQUFBQUFHRIFUAtKCgoKCgoKOiQKoBaUFBQUFBQUNAhVQC1oKCgoKCgoKBDqgBqQUFBQUFBQUGHVAHUgoKCgoKCgoIOqQKoBQUFBQUFBQUdUgVQCwoKCgoKCgo6pAqgFhQUFBQUFBR0SBVALSgoKCgoKCjokCqAWlBQUFBQUFDQIVUAtaCgoKCgoKCgQ6oAakFBQUFBQUFBh1QB1IKCgoKCgoKCDqkCqAUFBQUFBQUFHVIFUAsKCgoKCgoKOqQKoBYUFBQUFBQUdEgVQC0oKCgoKCgo6JDquQW1vkSk249KpxeRtlpLv7f7+pv+/jTU7Yudn3h0elHp6XdRI55BQUFBQUFBQdvp+QU1BaMukNaNSkvBqGkGvD0dMALMgDTiAbD1PKwFBQUFBQUFBe2g57fpM9KXaLQrsWhHErGOpOJtM77HIl2JRnpPxJcVJR56rlisa+dOqiXsu/4WfbL+NM4Vsfi483oLCgoKCgoKOpx6bkENIBrLVGVhdFVOjS/Jy1O35cXJuzKfX5NssqrbWwZyB6mIAlo8poCYqMtkpiwnNS7nJpbl2MiaTOdKUkjVDN6kb3vbMQcpAC0e7d0Pi4HWgoKCgoKCDqWeb1BLK6iNOFB7ZeqOnAPUCuuSTSmoxZvm6TpI0QMtHsWT15CpTEVOKKC9ML6ioLYuUwZqdYvnk/Jr4U1LKJymFNKSakCb8/gZKQYFBQUFBQUdMj2XoEbDXjzakbwC2WRuTeZHlmVx7LYcHb0rk9l1ySVrCmptA7WDanwkXAMjBbFMsiHj2aIcHbsrpyZvyOL4LVkYvWO/EY9ePyp9G1iwf7LrGgQIiBGP0XRFjowtydmZq3J66prG5brG464CY9X28XfioO5JUFBQUFBQ0N703IGaB5R4rCu5VE0mFNSmC0syP3pbZgvA0bpkEw0FF0BNd7T/9xdMCI/BDA7U2pLR803oeRdGb8nxiasKatcVmG7ob2uSircU1GK6P49i/+OBYnjRFAgnc0UFtOvy5pHz8obaa0c+NWCbyJUcqHE/BnHf73sSFBQUFBQUtHc9tx41vGVpBaSRdMngbCq3Yt61QrqivzfNwwSYHByQRCzkuEJSWmFsJFOW6fyKAuMdmRu5KzOFZfuNeABpBwlGsWjPedQyFTk6dkdenL0s52auyAvTVxQa75inbdijtt/AGBQUFBQUFPRoem77qJkGniFAiOZF18Q4gCKcRw8RjZEgy+M2Slqzpp0/do+ZF+0JTtEBmNoIVAU3b/ztPGlBQUFBQUFBh03PNag5SIsoFPEJGAFI7rdh/9F2sj0AmMeEGIuDmjuvwlpP4+DNQ+MTEmeK6fXEgLUNe5IxCAoKCgoKCtqLngFQc6DERLVthZuOAQ7NinsBKAdLDkl2gyU0ibpJaj3oDRtx8dt2H4vNOOwtLu4O2HkH1+6OfQx5ADXj/91fRVBQUFBQUNCT06EGNY80SkTS6cak0U5ISz/xRB2UPAYBYW4JqqgCkvv0xooHwBrGfqCUg52DAR6Li0Jauxu3T3fOR5PFkOM3jP8fPbygoKCgoKCgg9Mz4VFjFCJLQdXaSWl2EgZLhkb7zEUGWwNmMUhTMAIQ2wZokSHj703vHqKZdH9xh4tz2AiYdnpxaXWSdk7z5Blg4Wnb0nz60Ei4MIdtt2LfrR69vRwfFBQUFBQUtDcdbo+aMkBUra/RrLVTslLLy1JlVFaqE7KmVm9nDVTuR49HMwc+EWl1E1Ksj8it4qzcLU9JsZGTRjuu50uYVZpZWa2OyVJ5WsqNvEGUiy8d9DsbFsUiGEtWPcwG+28c0zMoa7TTUm4WND6jslqfkForZ+fr9mP6PSvrtTGp6ifwyPkVpQbQuE9GWBpuX8mwrqBcrBekqtff1nvEcwkKCgoKCgo6OB36mjaitAaM1RRYALVlBaTlioJaTUGtlTGwcjDx+Ia3yYFafAjUJqWkoFbvKKiZJaSs512rjRrEVRSi8LwBNcDVMHzZmqLRAYQ9yAzQ3P7+mIh+Al/1dkbPkVdYHLNrrhqoxawJFFBbU1Cr2X2IalgcB6xtf32PZoAfoCYKjSlZ1/tS0fMCs7rV7llQUFBQUFDQwSj271SD71rx4lEShYC+fHajJBfVltcbWkH3pKmGhwtw2svakL4v13imIkdGV2R+ZM3m9MIAG1fRDwe46c+5XZqUG8UZWVUocs1/MT2O9TNpDnWeL/pt1RXi8HLh6eHzUa3UzCmg5RUIRxXSZuSm2l0Fw/V6TqrtpCiGabyitvRSPIoHTv/W+8V9Ix7AZKOT1M+MMwUoYGrj751M96u30ht/A6DA0IpC2HJ13MWlNCN3FBobnZhed8RgjqWgovowYnovk7G2TbfR1XvS7dOXbX+Me9zspBQUAdcZex4rtYLCa0aaus2liXuf4OdRzW7fbDSflFeOj5rlMwlJJeOSiAfPY1BQUFDQoynSp01roJ5+7VDhtLvy/beuy/feuiYfXV6X9WpbimpUyIABn7sRATd7UWn1InJq4rZ8dfG8fPHIRVsZIJts2DJP1t9qqJrnb7xawN0711+Qt668IheWjw62RmwhcxZbZx3PQrq2sbA5E7baSgOPIfrBtbsxqSts4TlaUyCpAFCtpAJSwvYhrkxgyzqdI2qTuZKt25lP1rVCBkDbutPgmvTTHfNg2V54rwZ78o0BDOsKjWsKiRYXtXUFyI6ybUfDTUTbMpJ2cVgcuyvHJu7ITH5N48baoi19Ro93L7zwotXVVmsjcmVtVq6szhmkVVr6u94TEGS/zvUsq9TqmS3O5uUPvr4o//Ybx2R2PCMjuZRk065pPCgoKCgoaK965kDNyc0Flk22NayWLTBuE7iah+7RxYjSVieuUBaXmkII/dGIG3ONDUMgd4x7RTxG002FxobkUi0DOJZqcqCGt213N8oADVAbeBg5jqbNpWpelmt5qbXj0tNNeDu5/5vPwMXp2NiynJxYMm8lKy+MKMQ6b+Xjiz5pgOJSZUyurk8qrE1ak2zQvQqgFhQUFBR0EHqGQG34pEBN35r+DNIUSoCcx4UT1/fLNbEatOkn2uo14pvjtL5kEm1JJzoaF9ecyxqjmx412313ssvjAL64fnl4raqtpMWF8/GofNOz/jvYX2Q8w+LzZYXGqsanaUtnPa530atmHsWMlJtZWcPDV8vZswm6VwHUgoKCgoIOQs8uqOm/1twZ5SxqGnc3bvNxRKh4tFjuSePBTwSpPw+fHdmZ9B83gGBzKaZHA6TNe7BxL+we+GWv2K7h3hcX9y1ufdQUEvV+etsvMcLUG83CDJx4lCt83hVALSgoKCjoIPTMgtqmAKu+HsOxj4cQeKuYDoTPe8+xs/x5H/PUerb750OLqQF+7tedTsD9Ih7u093N/Wn2RO7sUYsPcaEZOOh+BVALCgoKCjoIPQedjYxODLCi+s/jmPEZtiMU3S87BMDbJry9mULQsBmg+Xg8KD4DlAKi9DjC2T78RzXuq/MUhp5pQUFBQUFBT1bPRd3rYGkAa49p+v+etF/nxXvmFkzfNOdNezg0+iZXd9z24T+qDccrjO4MCgoKCgp6sgpOkqCgoKCgoKCgQ6oAakFBQUFBQUFBh1QB1IKCgoKCgoKCDqkCqAUFBQUFBQUFHVIFUAsKCgoKCgoKOqQKoBZ0oGJ+OTfP287GPvq/2x8b/P4gGz5mWI977G6PDwoKCgoKehIKoBZ0QGIiYgdETKT8MNP/nfRzu+3b2Vba8j9tt+9W0/9VEf7Z0G6OtcmNB/sGBQUFBQUdtJ4JUPMV46a52cWCHbw9isAf5lyLaeqKR/uSjG1vCd0W133Yj3ngEJ+JmGy7/7DFdR9/jJeb00636WdCw9zuOIzwOa+bK86tmoqYK47fH3ws1+UmGQ4KCgoKCjpoHeolpH52/QX50eVX5NONJaSGT/yoGBG0O20+FZ738J1/kNgvFu0p9PQkFRfJJEV2WkGp0xVpa9podSLSUGuqZZN9yad6esyDny/7V5pRqbY2PXeAXzqhpscCY0AVMLZVpK1mO6ZhREWTusaBo/uaLvuSS/Q2IHC7dM6enLfS1Hh3N3cIS0gFBQUFBR2EDjWovX0NUHtZzi8t6ha/3y5PHvQY4k5jLDQfMdjZ3fqnpI2+JPW5JmNdGUn3ZSIbkTG17VRvK3C1Aa6IFBtRtZhM5royV+jJWObB65Wu1SNypxSTpSoL17u0C2iNZ/p2bCahkKh/A11bBRgWG3FZr8ctDvU219WT6VxPptQAvZh5ztz+w+Jct0tRuV2OGSR6BVALCgoKCjoIHWpQe//maXn7+jm5tLIw2Id9gw5a7i47WOv1Y/pMgKGYdPQ5dvV5up2Gn5oTKQmoyya7kkt0ZUKhZ7bQl6n8YIctqjQiUm5GFZgislxV6KpE5chYV05OdGRGYe1BulOOyuXVuFxfjxk89fSffKovM/meWSEjCooiSYUukjgGbGKNdlSWFLTuqpUaGo8WV9uTY6MdWdTz49UD8GLbQF5Xo3VJz3t5NSbF+ibJBVALCgoKCjoIHWpQ+3TpmHx4+5TcWJ/RLR7SdnnyoMeQfyJ9aXUT0uwk1RJS78TN2AaiDK/9SSriL5oMx9J4tRSaCl2ZH+3a53YCdNZrUYO0W6Wo3CxG5dRUR16a68gRPe5BAtA+uZuQz5bjG6CGB+/IaE/mR3oyoXA4UaDZVRGs15WuElY0FpVYNCZ1BbUbaxG5sRqV1VpE1uqE2Jezky05O9WSgoYTi+u+LHS6RYDax3cSdu6Vqge1iEJaN4BaUFBQUNC+6xCCGvGIGqhdX5+XyytHZKkyMdga9KRVa6XU0lLRz1IzbcYzIw0MJwODJX14sM2MQhK2MNqRoxMt/WxbWhgWxy5XYgo7cblVjMmVtZhcXYvK2emmvD7fkGPjbbfjDrq6lpQPbqcV5lMb5x5L9+SonhPImx5RUFTLJHvS6XTVOgpeMYnHae7U861E5epy1JpOVxUWEed9fa4ho9m+xBOAWvS+eHe6Efn5jaT8/HrSPHL+LjiPWjeAWlBQUFDQvurwgRrGb2rr9YJWoqNSaWbdxqADl/dberW6cfOqlZsZA+a75XH7Drg1Ogl7cnjRHCxFbETkkZGuWk9OT7fk3FzLPvFEdTUdIPbBbhZTZpdWE/LR7Zh8qDabvCPHMrdkOrlm++6klfa43GwuyJ3mtME9sc5EGzKRLMl4vCyFZE0Kiaokoi3paZruagSjUY2fkmS7l5KV1ristiak3FYI7aQknYrKrxyvya+erMlUvifJREQScZp6Nd6WHt152wpqf38xrZbRFwkAzF1TALWgoKCgoIPQoQM15CNEf6hOF+/aZl+goIOTQdqWZ8vzAcDKjbxcWztidrM0Jrcro7JWzxqkYewH0DDy8sR4W46Pt+TVhaZ88VhTXtNPRki2Oy5w+o1hl1az8pnaR3dS8tOrMbW4pGufyGjjF5LtXLd9d1IzuSj17MvSSJ+xv0lD8U5JUp3bkmzfkURnWRLdJYn2ahp/+thFNZ490W/Si+ellTqpdkLa0VFpRXIyXkjIN89V5J+9WDVPYDolktI4MvCAuPcGkKksJn/xYV4tJ58tJ/QX93sAtaCgoKCgg9ChBDWvCBVrpOsAIuiJyN9p4Izn4kCsJ7VWVm4VZ9Xm5OKKs1vlscH2IVCLiT7rppxUe/NIU752siFvHm1Iu16RdqNqTzqRTksilZaLqwW5uDYi79/KyA8vJ+SHlxISXX9f0sW3JVm/5CKyg3q5U9Ib/4L0Rl4e/KLpsr0usfp1idZvSKRxSyLN2yKdil5HzExjqNaTSKIg/fw56RfOSS8xLt14QaZGE/IvX6nI779ckaOjdcnG6pKKNQ0u8aJ1JSm9aErTc1r+7IOCfOsXefn0blKvmXsVQC0oKCgo6GB0uF1VWvEz2jDYk7FOL27W6jJ4IC11hbNmO6XwnlCo7slopizzo7dlKr8qGYVtJoi1QQWGXzsr0u9JrHlHksUPJFF8X6LVayLtskS7NYn3FdilreEweGD/gBzI5BXEXgQGwfrvDkIfoE5dpLEkkfIVidUuS6Ku1rolsW6Fi7UJcdPxiKTU4ttN1BYUFBQUFLRPOtSg5ipbNzVEsIO3rpqBWichDQW0Wiuj31PS1d+YwHYkXVFQuyMT2XXJJBvmSdsc+fkgYFFQU/BJlD5SUPtQYvWbCmoVBbW6glpLEtIRjcFg330SQKZB4u0alvWl0983/cjbCFCrL4lUrkqselWS9SsKarc1vlXbHI8BaVGDNVYyCAoKCgoKOiiFaiboPvUV2NrdpNTbWfOu0b/r8aQQlx4XGTkhMnpKJDsrkigo8aR10zaTlT1txRIiSeb2mNi05Ij+nhrsEBQUFBQU9GQUQC3oPgFmrW7Kmj7xqOFteyxFNJmlFNRGT94LajFA7RAmwWjSxS89uWmJ0QBqQUFBQUFPXM8IqFkjqDWzMcAg2AGYMHBjYNGuDfRIxDoS00+206+LiW+rzZw1i3a6rFhgLYwDPaAtkdEniZxIZkYhTS05gJ4InewPTxK0wTIanUhM40V8k2OblsjrRkZ5Bu23ej3muutIs9mUcrksq6ursry8LEtLaneXNk3/5veVlRUpFotSrVbtmG73wZMjBwU9T2q325b219fXXV7Zmk8Gtry8Imtra5ZXarWa5THGDg6NHwx6RnToQW0Y0BgBGuyATOEspp8AWjrelEKqLBO5FSmky5KMtWyKFKbouFOakbXamMIaTaL6gCzP7yLjx/BSKfzEs4cTeBTSADXW94wqqEXiGQW0wqbxdwC1AxGgBXCVSiW5efOmnD9/Xj766CP58Bcfyi8+2DT+/ujDj+STTz6Rq1evyt27d60SajQag5CCgp5/AV1LS0ty5fIV+fT8Bc0XH92TT7x9/NHHcvHCRcsrvNzU63XLawHUnj0dalCzsXlUoAZrAdQO2vCeAWqpeEMBrSSTuWXJK7AlYk2brBZQu12alVUDtZR7O9Pn9PBsj6tKQQ1IO6SgpjHUe+BALWagllawVEDzdlgB8zkQb/rA1j2g9uHHA1D7xYYZqCnAAWpXrlwxUOMYIC8o6PMigIu0f/nyZfn0008HoLaZT7x9/NEncmEbUMODHfRs6XBOeGu/aYJsM0UEIw+1kldQc78+HAuCHl/+Gbdt0uGYlJs5uVWckVulGVmu5s3KzZTux1xrpJ3NedRemG7LWbU3jjTkS4t1ef2ILaZ5n66sJM0+uJWSv7+ckR9cykh0/YN9mUdN6relX78l0q1qHK09U5NOT9NWV6FrRCIjL6htzqM2PZaQf/VqRf4ftSNjHUkn3KS8Xiwd1exEpNKMyl99PCLfU/v0bkJq7b5ZmEdtb2o2mrJeLMr62rrB2Y0b1+XW7VvWlEOl0mq1pdfV5zU0bDeiCS0ajUpcE1mhUJCRkRGZmpqS+fl5mZubk5mZGbVZyefztgoF+wYFPcviBQbA4oXk9u3bG3bnzh3LJ416U62xLXwlEglJZ1JqaZmenrb8MTs7K0eOHJGFhQXJZDJm7Bd0uHXoQI1jbJ4rtZXKhCxVJqXcKAy2BD0x0dysH/V2UkEkIaVmVpYro7JUHbWlo9oKbwAcO7GfB7WkMslLc12z1xca8sZCRV6Zq1mQW3WYQI0JbwE1Jr09qqCWSfYlpbDmFUBtf1UsluTyZ5fl0meX5P0P3pf3PnhPLl++ZN4xjIrHiqbhbE9as/JHXwi0csGogE6cOGH22muvyeuvv27g5td1DQp6luX7oeEV+9nPfmbmm/zpz9nVlxnro7lZjW8ooi8qLh/EZHR01OzkyZPypS99Sb74xS/K5OSkTExMSC6XGxwRdFh1+EBN//aV/rW1Bbm8ctRgLejpqK6QVm0lbW3PYiMrxWZGH5JfsWCzcBgGtZfne/KygtprC3UFtaq8PFu1csTvzdMmDV1WSLu0DKil5R8uYxmJFT+QTOmdnUHNEp+mkexJ6Y69Id3CS+73LaAWadzRxHdHIp2qbgLU1BTUDNYSIyL5syKFs9uuTIBHbSuo0fQLqFUV1L77EaBWkE+XmMKkr+AaQG23wjuA3b59Rz784BfywQcfyrvv/lx+/u47cvnK5cFeuxcVzbFjx+T48ePy1a9+Ve1rcvr06UHFNGJeNcBuL6JItPSqaQVg3PBWaDiUf9FozBbsH5YvRt0H/7hycuu5h4rbje8ePpE79+Y+22v7sIOeD5HegK9OpyPXrl2zZn6a/N966y354Q9/aAMEyEN7afLPZrPmPQPUfumXfkm+9rWv2XfyDV5pXmp282Lj0qd9s78fTTvnjc2w3T7DelC+GM5Dz6MONah9cveEVuKnFdjmBluDnrTa3ai0ezFpdWLS7CZs5CeyAR72zWkD1Gj6nOmotc2j9qXFmgEbHqmO1nccoy95+uz7cmEppZaU9xXUfnRV7UpaEuUPJV99V9KNKy7gIdkZIzHlxJh0MselnX9ZOjkFLpOmyyFQi7WXJa4W6dWJLFv1eE2RFAYKZl1AL3NaQW3sPlBbGO1as2diqNxicXbNFlJTUPuLjwrynQ8V1BQyyS9t3RZAbXei0sE+/ZRO0K4vzfUbN+TmrRtWAe1VVEBjY2MyPj4uL7744sBekpdeeklefvllSehDBKxoCt2tqCTxVLTbLWt6okLEOxFV2E8kE5JJ02SUHuztKpBhoHNFasRgbiso+v3Yxxe9w+Dnz/0gER774y0Jev7UarXMW4a988478vbbb8v7779vXjUMSGPkZ0dBbrfyHmj/YoPhWfvKV74iZ86cse4CdCd4UHcBkmuv59LnEDbsWT79ku591vB5yKV9LemH8oyXyzODP7bIh7eXfP4s6VCD2s+uv6CV9ytamR8dbA168uIpuiQC7PDwt3v8/pn5tT5PT7asj9pXTzTkzcWmgl5EWm2Od4udA0Kf3E3Jx3fSCmop+cm1tFpK0tVPZKT+vmRbVwchD0vTSiQhvWhS2qmj0sy+IK30yY1tw6CW7K2rrUmsf/+IwF6MRdmPaRjHFdLuB7W5ka5mfDewwIs6mDKk1orYOp/f/jAvFxTU8C5ydwKo7U4//vGP5Sc/+YlVQL8A1NQAoY5WOh509iJX6AM6MeunRt8bmj9/53d+V+13DKji8YQV5LsRxSFxabc7NrquXC5JpVKxkcCcA68Enrqx0dHBEZvHAFl87/VcRQMk4qXwlQ7bHIi5Dt38rf9v7Ic4L2E9SNuFHfT8iHRH8yb90L7//e/LX/7lX8rPf/7zDThz6caVybuVTyeuKdSlnW9+85vyL/7Fv5Avf/nLg/6dM7Z9J3FOnzf2ev5h7ZQ3fNrnO8A1nLb5zdnghy2ieXcv+fxZ06EGtbevnTNQO7+0ONiqEbZ91XYbiSclu42akOyq9187JdCDF0/HmXXQ3uG229JM+szIJ8fG2rI42pYX51ry+pGmvDTfMo8ai5tzeDzWV6DryyWaPtXO303K+7fxrCVlMnJd5mOXZTy65AK+R4Ba3Dxqpd60LPeOyFpv1t1x/SfZr0pOViTXV4tVJKuWiLTsSETG542x3U9LsTclpe601PWIZj8rhWxMfvNM1Wwy39MMDwAMDlRx/+EImj//+nxW/ubTrFxZpROuuyEB1HZWRwtfPFPY3/3d38n//b//1yqe69evW9MO4LKT8ALQAZpKhOc33LmafjpUXohtvh8OXrXf/M3flN/6rd+y4+iLg8fgQSJMgMx12r5jHbar1YqrmNS6na6m4Y5kM1lXqU1Ny8zsjEzPTEs6nTbvB8dTwXIs8Ak00l+OQQ94/rgWH286gt+9u6R/F82jgeFJYZTexYsXB7HaXsAngyZm9fxcL54Qwg96tuVhhKk3PvjgAzNebGjy3C5NADqkLYwXiFQqZWnMi7RLOsRIdxjfvQA0mkHpr/bKK6/Iq6++qmGk74MkwmlpPqtVa+YNv3r1iuaN7fsde5Hf8vmcGoN+CppGRzbyBun85En6lZ40YCP/k/+cx/Ca9Zk7unhUZjWfMV8cRtzpq7e2tj44w73iGM45Pj5m+ZMyA3Dbei3Pqg65R+2cvKWg9umwRy0S1b21Bj1sN99uI2/Ue/cKPEyETPA8nyctd5fdE3Kgxrf74+FADS9UX+byXZkt9OTERFtOz7TlxGRnYztHu3QkcrsUl1vFuFxbi8uF5bhcVDs+UpIXJtZkIb99QeCXgb9VzcnFtRG5WipYuNyafKIlM9m6zGRqMppuqTUlHd+EACCNN8ZGN6HnzsitclrWm0kptxKSiEfky0dranUZyyqoxdl38+1Mg7dz0Pz51pW0/PhKyuLu71AAtZ1FIUwhS8fo7373u/Kd73zHKiHABhsqgu4The+bb75plQnPzyb4XF4eVBhXDZC8qKiSyaT1u6EC+uVf/mV54YUXzCi8HyTAidGnhAlEvvvuuxY3ICyp4fKdCgNQO3ZkURaPLsobb74hb37xTRmfGDfvB8Zxb7/9M2vGpWnpy1/+kiwuLtr5qUxu3Lhh9vHHH+u+DKC4bF6N3/u935NarSp/8Rd/affnQaIyolJl8ASDKAifQRVBz7a8p/Wzzz6Tv/7rv5a/+qu/kkuXLtkLDelzq0ibpHXfz8xDuxf5jjyH+S4HvCR4HT161NIO6ei3f/u3zQtNfsM7NdwEWq83pKJpH4D8gb5o/eAHf2cvGQ/SwsK8vaj4cywuHpP33nvXoBPo4ny8SHENgBt5+h//8R/lH/7hH2Rubl5+7etfly984QsKdrcM7q5oPjl//tMdX2KmpibtHpAfvvCFL1p5QX7bei3PqmL/TjX4bpURlV5X//nsRkkuqi2v65twu6fwxgz2VLK7BzUEcGHjmYocGV2R+ZE1m/EeYxb8QdVt+zp5/01EK9NJuVGclrX6qJ3X2qAj9DmJKxDoZ4S/D4fZfbFYdwf3yS5l4/t2BqwM/72xv90HB8WwgjKExGM980IlFIQwFgN/kkY8uEIXO67UycfV/e2ALjVYrDzG24yCVVtBfb0ek+LA+L5Wi8kdBbWVSlxWq/wWlXIzInNjUTk+k5b5qbxkcyP3Wp5PvAcFafRzmi5SsqrhcG4q+0wyKpOFhEyPZmRiNCuT4wUZ1bfNXGFMcnktxEbGzRLpUWn0MjaatdWNS3OwykIh2ZO03udGJ6rQFdf4xKXY0DirlQZWbMTlqoLl7VJMai29yMEdaPKCozaaT8orx0fN8pmEpJJxhUD2+/wKwKGwxXtGfxtGrgEoFNBbRaGKAV0UtLwZAzy/8iu/Yt4pfievAWhUXlRGXlR0Pkw8C+xHxeMrMVd2+RTrRMWIAVkXLlywplhg67333rPfmhoe4S7RFKXXUNRKD89CqViSMQUmm+Ygm7GKBo8B1/b3f//3djzeAjwdVEbe60WYgBqg+qMf/VB++tOfauVyXCvLV60S/d73viv/83/+qVVQVIxcI2EDqEtLNIfdtoqO9M61AKYjI86TiLZeX9CzI7zDeLx4Wfinf/ongzXSC/lnO68zaYuBM0D72bNn5dSpU3Li5MmN6WpIE+xDXuBFg7REs6oX5yMt0VR/9OgRPf60pie8UK4rgRd5qtZwL1vv6EvMjxW2PvvsoqVFXm7Iy+Qd8vfq6op1FyB9ko9Jn+Rj4kLe4rrY10+rQ/4lXsAo3kO20ypFH7qj+jJE+Ezs+8knvNjwEvS25oclfRFaHby0sWLJkuUdgJRrGhsbHXjU6K4Qtc9nXc8AqM3YBKvRaFItrcfgmqWwxpKHyKiM6XeCV83dSxKrfd/B7Lrd/+43QtB/FPXUogpkEUkr9OSSIqOZnkxme1JI90VZQAqp/hO1jKZ1njsd583rqXF0WOYqP7scpD8lY4Caxl8/gVH2Z7TkVlutKqTVEgZvQFq9w3WJZBMW6sZ+AFGjrdvbrI7g4GmpnJBlPR6Y8vcuqQCL84rzszwVzaTtXkoarFvazSiAJTWsuJQUClcqUVmravgtN5qTwiGf1OP13AyeqLUBsdg98cUqjajcKcdkReGyocd5BVDbWRTETFJLvzQ8SbzZU0FsFQU7lQpgw1xPDAjgzdg3zfA7FQ2FMoUzldgwqHmRHoEvKicGGlAh0PyJOIeHGfbxlSMTh/K2DzgRB7wUb7zxhnyJ8ysonj1zxjxzC0cWJJlISrlSltm5WbNkStOVxosKjUqWioi4Ia6TysqaS9WoTIg/22/dumV/A6J4D2jWBfTw6FHpct109mYbn9wPmkiphIg754pqhcpACgzF9e8Aa8+mePkAyvGoASXAPOm709m+TxgvIXjDGO2MJ2lC0zgvBHiAScN9TSOkbcLwLxJAn5eV2xpuLpfV/HbUvGBADemVF6JNMcI/KjHb5qbEYcQo5+RFhTxF+icN4snGQ+zzLABJXgIcyQv+JYO4EzfKAvILsEfciP8rr7xq/UyPHz9h8yyurCzbceRV4ke+/LVf+zU7F9fPeYiTg0utL/V6LNZ6yygznoduAc8EqK3Vxw3SYtGcfTpIO2SgZnEmQ7UG91H/5ctDxHHcT38M96rTj5qlE5ro1EYVziZzPZkpKKgpTOQ1DwEV2wHVQVlKAQjPWF2BiTjSPA2s3Zse3JcEbzE2osddGP3TtgIPtlqLy3pdwUm/1xV6OvrSCGgllGt6vc39OGdDIQ1QK5k3LmGQV2ok9DfelgDinnnxDBK1UAHSeppGWr201HsKab2sQRrhlRXUgLSS1vEAYEvjR0q0c2vcW10HaQCij8OGKagtK6QV9TvHeQVQ21lACZBG0wYFM5XGdoBFge8LVgp4+tDgSaMgBlDYDuRwPGHipRv2EHh1tGKj0KdiAo6oVKgoPAh6kAF2fEVGpfi3f/u3Nv0BFdDXv/51Ozdx+LJC0jmFtHPnzlllBKR9dvkzC5s+angtvCeP6wP68C5QueApoFIi/oRL/DHfX4d9ADEqHOLhQY2Kjn52v/7rv26QRly4J1wLHgrC/9GPfmQV1/z8gswpjAJpKa1kuc6gZ0vACy80pAnAhfTIlBykz+0gDdE3DUj7jd/4DTmuaQvISWtaTMYTmhbo++X6qJGufH7h5cWLcMkr5Ln5eTdhNGmZ9IV5uXwTt3w5o0BEOsSTR7MmnjHyGi8dwNLv//7vyx/+4R9u5Fk8Y+Q9XpjIqxjAxUsJeeNTvdZPz5+3kd8jGn/yGB5C8tucvpAAaXcGgAmIES8gDRj8xje+YSO7eYEhX5Ov8OYhrhng9CPCn3U9MzmaJjQXXQBg2HhDfvpG3Ky/neYp6mW8QgCVgY6C1oiZZq4N64vW47YvFUdaM8JINiUzYxk5MZORF49k1dLy0mJKXj6WlVdOjsirp8fltTPOXj/7ZO3VUyMKHxl56UhMzi0k5exCTk7Mjsj0aF6yqZzGPyOpRFI/E1pQAGp6I/Rm2CSxCjfeymqu+TOu3938bM1ORl8OFMCjfFcIU4C7VYpuWjEmN9VuFONyu5yQpQoT8CYUjAbPfwCMwCNAV2xq+Br2Wi0jK7W03C3F5NZ6T+5oWMuVpIafsmZM86YpHPJiwgtKRf9eUgi7U47L3UpKLSN3Kmm1lP6W0HNzfgW8poPKoN2JygK4or8NnxTS24nClkKVwp1+LbytU/i7fjNuhBiVBsZ3bDsBYJwDD0VVK4ZGo6kg1bbmo+FKj/0o0OlPBjART87DFAZ4AbzHYGrS9X+hIiNeVFT2xn/iuDXpEG+OG46XjxufVDI04eApoTImHlQ63ob3R3ynwiQefiQrHkbiQwXJJ9s4Z0crPQY9lLSS4pq5pqBnUz4t0qRHmgGieJ5bQY00A4SQRoCz0dExgy3SVbnkugTQdA7M46ki3ZHvtnY1IFzCB5x80yh5hr+HRXrknLwEkN59msRTTZ4gDqRFD0Zsw+tLnuFv4AoPHfsCYnimyTN4hK/qiw0gBsABnmd1G95kn74tT2kcHCwmDBYpIwiL85Afyat+yhHOyX2jewFe953KmmdNEMYzrHsT8NMVjWdU+H1JxhTOkiITGZHJbF+msj2ZyvVlWl9SZvJi3yfVgDWmqaAvWi6dkOmRrJyYzsurxwrytbMF+eoLefnKC1n58rm8fOnFCfnCS3PyxVfm5MuvzspXnrB99dVp+dqLefnamYR85WxGvnRmRF47OS6L02MKmCOSTQNsGTUtQJJ4A/Fw9QyA6PPlraYgVWm5fl+VdlIa3Yy0elnpScaatRtdBSkFuZsKVd6uq11TULu2rgCnwLRSA9TitjoCSRhY4x4CavUO3i48dSlZqyuoKWTdXu/L9eW6fvYM1Nb1d/qaVVpaobd70tFnxtQbNL/eLkf0HHGDs7vVrMHaXYW123rcrbLGS0Gt2HAjWIN2JyoImvgoPPncWmF4URADZv5NnAKZ36hQqMQAKQrhvcgqIj2m3VFQ2wIxbKOC8h4+Kj4qACoZKiPOT+XjK0xEZcKoUqb+oAkGrwIVle8750XFxr6EQ4WD94DmLICNinArnG0VFRPHDRuVlIc34khc+Y3wisV1aeg1+HgGPXsifXuP64MAg7TlPc98prTMZbk1+k3eukWfsUvW1YA+YXhn8dICRdt5nxGAR/onb5IftoLasHy6JF9ipHv+3pqW2Y94YnxHdD8g7+BtI+54+XzeI4xJhawz+iICfJGnHibCJX8SFuUGLzAcS1h4rIFe7unzoGcc1BCw9vSNf92cWlFJxaIyqpAGkE0pmM0U+gpoaoPP2XxPrStj6Z41KZLgAJyJQkaOTmXl3EJe3jyZlzdOZuW1Exl55WROXjo5Ki+empKX1F4+rXbmydorePM0Tm+eTMjrx9Mar7ycO6pvVxMKaOmspBJpyWimBThzqajkU4peSWDN3RtneBzd4AKgrdmJmwet3UvqNiq6tLQU1ICopWpUDQ+XWsX1C7tTiSmk4S1j6Sb6n216IygmALWmAhQgyEjOUjMlxXrSmjmXSl2FNlFI098bSanStNnu6/l4q6SJXvTviKzWIrJci8sKAxXqabWUfk8aHNLkuaLxqWjeZ/LeoN2Jgp83dd5w+dwJtijUKaCBECCH50ohjlFxAXh7BRH2Z1qNdsfPXTbYoOJvX0ERPpUOlYlfWoe4ECfOy3543Yg7AAdM8kbPPlRY7DcsKgvC4G2fcGkaYoABwEZYLi6DXp7bABu/ESbhYJQRgCQeDR9HvAf8hletove1qZXSXu9P0OER6QxQIo/wfasnzYv0AKDhaU6nGSyg5efgZYbBLn5kNCDEiwFpDmjZ6QWJNEP657yEsd3ABS/SpYcwD2t835qG/X6Y30aePjbwVJMniBN5r6nnZj+2e28c8PUwcQzn5154Tx4vMcSHe0B+3emanzU9B6B2OMTIz1gsLYn4iOQzaZkqxGRhQmRxUuT4tMixqZ4cHe+oteTEZFvOTLdlYaynQENiZnoITXD6dpDPpmR0JC2TYxkZyac0weJS1rcSTXxAztOySJTCIaUVU07GlELHR5Iymuftqi3Ndlm6vbp5B0c0vjOjUb3eiBzXaz421ZFjE205oZ+nZrr6d1fmRrsyke1IJsFbY00r0ppCVkczNJmaNzC9l2bOU8aAhFikb8Z3h33bid/dgA63XBQFhmbmuL59pgoaP/oS0vzFWxZ9JAeVpPvfTE/pftfvTi5MPm1Xs3t2CNonAXTAHH10GN1FnzEm/MQ7QAXypAWUcV4qFLwTf/M3fyP/63/9L/nv//2/y3/7b//N4saM8XgK8YIMQxKVBxUSU4TgHWQ7oHb+/HnzbjA6rtVqSjzBCPYHe9e2k68sOY7zUrkGSPt8CC8SLwhAezabsXSAV42JmIEcmhfpu0Y/S/o40peL5sbdeKkOUni2yU90R6Argm96JZ+19CUDYGM70PggWPw8KoDaPgnAiEX17UZBraBvudMjCmrjgFpfTiioAS1HFViOjjOvWEvOTrfkyOgA1CJJPS4pac1s+UxKxgoKaszBVVBQyyQ0YzLMOK6owFQUT8eYEiWloDY6mpNxm/4iqSCpoBZrSaPF4sCAWs9AbVZBbXFK9Lr7cnyyq9eucDrdlZMzPbsP8wZqbUknFJj6Veko5LE0ieKY3gtsaPoVwMkMSHPDTHaGJDeoQICxAVwRRtJAbcTucSSyFdQ2g/MQZnWm/5HzWZhunKuf9Hdjc9C+yYManfEZfQkYfe973zNQ26nZ5iBFZcF5eTv/8MMPDcz+5//8n/Inf/In8l/+y3+xv4EvQI2392EPCKBGx38GAdAcw3aaPgE1+g7RHwhQSzDPU4wXlMGBuxBpFFDznjbOG0Dt8yO8SHjT8OxmMlmtG9x0Nr7/GM2LrOUJoAFqGP0qOeZpqsNqH4BaVUGt7TyGG6DWcsu1kd/wDO/kdf+8KoDavokKHshISFzakuqtS6Z7R7Ld25Lv3JCcWr67abnOdUl370q8V1YGaEqvq28RbZp39I2izmzMFU2wDU2wFMAAiDvH0zLO79Y/bEtTKxgyFW9AVBDAUFzpJRHtSirakEx/Ta/xphS616TQu66fNzevW+9HurssyV5Jr10rX0bJ9jqKQICaq+gcLDlg0n+HY6H/qg0qRK2udB9GfW6619nuFtOmuath1um2pKt/d7tt/bslbf3bgaELd1hb/0bubLpNN263PWh/RFqiE/Vwsw1NhkDOQbxhk2ao4KjA8FJQWfg+QpyTSoOKBOiiWYY+YXTcZj/iRTzZl/3IF8OgBkRRcdIc46cHoZmSfRkZyrVxrXjKmfpga8ryldgwgFF5MTCC42imWtdzU6lxLpqKuIbNfBD0PIuURjpkVCSDBZj2Bq8vLxQ0dZJ+8bSRZvGm4WkjrT9N4Zm+eOGieczJL+QNBsn4vEG6ZvAD8R8enfog+XyCJ45mVO/ZZgAD+ZZ78DwogNq+ikJSrVWWfuWm9NcvaOr8RPqrH0pk7SOJFT+RqJqsfyQ9/btbuiT9xl3pdUrSbmiBX12T4hpLy9yVGzdvy8pqURMvI9YevlDzQYvz1+tNzQyMDirJ3eU1WV5lpFxfUglGfaYkEelIrLMu0do1ia7/QqJr70tMrzVW0uvWz8jah3pPzotUrovUl+0+6cW7E2iGsznoBp6wncW2wb1QSHPTo7j5czbFCht4+qpSa+p93bCK/lZX0Gzr9vtHUwU9XVHAUvn4t+qDgLNhUYgDaXREpqLg5QNA9FMZAENAENvfeONNWz3gm9/8XXnppZftOCq+nSoCPF2+ozOVJc1RdKLmN0ANK5XKmna1CN4GrrgXgBnmQa2llVtFX+BWtMJjZvhbCnuVStXmzWIOrWyW6YtCkf68y4CdJnkFEz//H5Pjfvvb35b//b//t31nPV3SGGkHIOKlAU/c09TtO7dtYMPbb//U8jmeP6bXwPOMdxDIoisB0IkX+2Ea9siRV3l5wvib8Hi5Ir89Dwq5ep9l3YPbVZHaLRFAbP1ThbWPJbIOpJ2XWFn/Ln4qXQW4XuWK9JtL0u+UpdUsKZQVZa24KrfvLsv1m3dleaWoBTNeNkDt6UIFGcKBWtUA7fZSUZYU2BoNVkzQt/lYXOL9tkTbRYmyMDpQuv6hQtrHap/atXMfpKjwCqg1Vtx9MlDz8KUVs/Utexioue2uT1tC77jzqjlYc9bp0neuJnWFM29AWkMLiJZmZDcCcHP/YXM+vC3a5qeg3cl7SIGIB3l8KHh50+bteD9BzZ6oP+3Q6YkPIMUbPW/gFPC8ldP8SnOmn0oDKDtz5rT8yq/8qvU583OZUQkAattdF3/7Tt+AGk1PVErAHWFfu4bXo2yjot2Qgk1xH4gL9wFo9f12qIxWVlbtRW5pedniyX2iQ/n4+IRkc1nz0AU9u/J55UH5hDTJihl4zWhGf0/hhjn1WEeX5ni+AzxAC+JFww962Um7Oe+jaBimbmt83v35OzYStafXQH5gzjSm4yAP4lHDI0j3ALzVXOfwy7QPB8jDXP5wa4GSV/FSkzc4hoE8wGkAtUMjEtbD7ODFiMN2LyqNbkzamsB6nYZEFMAi7TWJtJb0c2D6XVrL0m/p792aTWFBgd7SY5n24VYxIp8ti3ykeezaclvBbXOSwKcpml+b7b5U6j25s96Rz+605ZNbLbm1phVIvaoVRkU6jXXp1dek11iz65OWvhXptW5cu1q0vSrRTkVivZZE+s6b5nqe7eY5OUhzqz90lOlobtL7ooXL5oTIWlmxgsVjGPO50YRtnjo1A8InmJaeN5G+ebv1ozmf5Js9A1I4P4N1GKAy/ASplIgL3jSaJ6k0mGiWvIaXAg/FX/7lX9r6pH/+59+y/ml//dd/Y9MfUBkAYWNj4zKmb+9MNLpTJUeFwfxnTGqLd4PKg47VVDCM0qtr/t4KpQw4YN3D//N//o/86Z/+qfzRH/2R/PEf/7ENZPi7//t/bZQnE32ee/GchjkvI6MjkmZB7X2uaIOenIB48gf2oGZK0g+TwzIhLF6pX/ra12yWfiZOBn5o6gR+ADReJGhGfNCLDy8anA+YIy/sprmQ9E8+IVzgaRiohsULBjAJnAFgwCNdZsYVpHx+Y1Jp8gYvTWynKdc3gZrXWf/rdrqysrxizaY//vFb8hff/pb8yZ/8sfUV/U//6T/ZwCPmaeQagT7CZsT10x5AsV96xkHNV567sYMVXc3bfQW1HqDWk76CmrQHoGaAdndggNqKgsyqglpVKw8PajFR5pGbJZGLustHNx2orRarhwLUcOgBauV6V0GtKxcBtRtNublaV3iraeYrS7telO4A1HrNVb3GFb1eBbWNa1drr0isW5Z4rylRG52p4LWHZEj/M4M0M0BNgU+Pj0YzEo3l9H4qqEWYk+1xjKlCgAkqduLm7eDT0fMoYOhpgRqVELOqY8OL7CPAikqPyolO2FQWLOdEYc+ag9/61rfkL/7iLwzW/vzP/8zW4Pz+9//KFoamYkopqI3azOcTFoY1Y24jQI2K04MalaKbqLZqHjw8A8OVKGHTbPWDH/zAQM2PMv1jhbX/rpXT3/7N32jlW7ZK+cVz5+QITVt6XxmVzfUGPZvysORBbSfwJ82y3+xg4ABeXg9qNK97UMOTS92C5w1gehio4TkmHXPMw+S9Ww8DNdI2wOUH0gBiDT1mcgBqQBojVIdBjfwFdAF4zA3HtFedds+8bDT14jH8NqD2x38k//k//2f5j//xP1pzL8cQF6atIWxGXXMvnwc9M7na9V0ioeFN2ZuBUQcvEqpvvuuoKVjhNeo1zHPmTczqavo7TYWRvkQ0o7AsE7P4V5vM9RWx+bpY4qje0jcXm+tr+4zwpEQ+ZJJXZv6vKFCuVfuyWunpd32r6jSt035XDUA1SNXrc1a/5/rtfvTaeu2saAre7lXcB0yfrSio4VUbPN8NrxcF3OOYaXAe/ZsBC/f3gwvarTwI0U+LT/7erfybOwU+5isGKoqdKgdA0Hfkp9AuaAWU1oqICmi48uM7lRS/01RC5cYktjRt8rePJ80s/pz8xiS3rEyAl4zrYQ4nKoRcPmd/U1ECUXwnLlSCfp4n5l+jv9ubb37BKhPuCRUq+9CcygjRN998c8Mj4md19/F0Xrwxq4SIK02qeBCYNX7r9QU9WyJt8SwtzSqI8dy3e6YAF/nAT3AMuJFeSROAGtPB8DeiKZA+X+bJ0mOG5V5inEeZNDUzM2v5hvM+THjd2I94MiCA9O7T4rB8HiWe5BHi+NKLL1keI3/gySY/4f3yRn4gThzr7smUzC/ofpo3ON7Su+YD6k3vMSfexINwuX6+cw92cy3Pgp6RtT5H9XeaoZQr7cFbTNUcuD3ciDdMuoeI71o+/honhY+owsNM9IrMxK7KSHRZkpGaJNTciMV7tdafk7v947Lam9d7BKxF9f5H7drJRAvjzMWWkMnRrGaIvFY4m+uvPWk1mh1ZXqvJ3dW6LJVFlioipYa7n/jE0pGG5CJVyUcrMhq9Y5bQ37aqLVmp9SfVJmS9NyLr3RFp9jN6vTRN8SbHcx22+++bkz+330c/8bYJzak88+Ew9mpckfvkPA7SkAf/+xXW+txZVBDADpUCXiQqDzoO70YU1L7wxStAvyyMiodO/8DbVlF5ADwAk/cyUCFQoJOvdoIZ76mgIzKVB1AFMAFYGJUIYMXbPzD1msLaiRPHrZKjQgAG+aQi4VhAjArDexCpeDg/APbiiy4c9iGOXB/Hsi8VGCDojX2oCGnqxPgNSMOb8rxVSJ9XkSZJH6RR0jTeJJoAARxvw+LlBcMLhpGufH9I0iPpiHxCny+musETRZ4Zzi/swzHkDdIgni283uQB8sKD5NMy6Y7zk2Z9GiUML+LNvoQ3Pc26uycsPb/6qsuTxIFwML4DqaRr8g/XAtyNT4xrGh+3cCkLXnvtdXlFz0VefOGcG5BA/MkXfPfeRK7N5/lnXRG9iRs1Icsfdahw2l35/lvX5XtvXZOPLq/LerUtRTXKN/pA7BbUCLjZi0qrF5FTE7flq4vn5YtHLko20ZBssiHxKC7Te/sn8Tf9vYC7d66/IG9deUUuLB/Tm02fISYs1cqcfkN7cAZuLp5OhUusNi55H0TcyWRU4swN05Kz8R/LufhbshD7ROFlWbJqeI+26rPum/JB9xtyofMFaXXjWtEnpKP3i2bGeCwqXz4VV0vI2aN5OTI3IQuz7i3paWit1JCPP1uSjy4uy/lbbTl/pyc31/GK8fR6Mh4ryVxiRebit2Ux9q4ci7+r170+OHpT1f6ULHfPynLvjFxuL8ql1qIC25Reb8Zso0nTFrjHAKMHPS8HUm6ajl0mzIeKMElfTJ2g6SaaMs9dt1fRgsfP53VvnEqtntnibF7+4OuL8m+/cUxmmQsvl5Isq71/jkUneEZRYjQnYlQguxHQ9Lu/+7vyzW9+097iXUf8azYVAcaQ/62i0gCkKLxpyqR5BcjajahYgEm6G/hZ4vmkEqHQp3mGipA3eP7GEF6OTsd1dAZMCQdvGOYrCoradrujRmdoKlrnqfP7DZ/7QfLxGA476NkXaYF0RN6guftP/uRPLH2TJrZ6wxDpkAXKMaCFlxMAhTSLMaCAvls0oRMG6Xi4C41PQ8DV//f//YH8wR/8gYbpRoc+rJ8aaZX4YsQN4xjCI1wvzkd6xlx+YV7QpJ2D7gj+pYnrZh/iyXfnEKIPqduXvEPeIs9sJ8IEGvnkPMRlpxeyZ1EH7FFzwPW4HrXV2mY7s3k6DIp8Rf4w46Fz5OY5dupL4uTjs1tDfHItej5py2T0hkypFaIre/SoxQxS2ZOJVRfGnVdtcoTJZTNSUHtaajRacnelJHeW1mW53JHVat+WUnJ3oS+ZaFPysfqePGprvVFZ645Jo0+Fs1eP2qY20+PWYx/VLCcMPjW96798t2ulGdSu2P3mFTxqO4tC1hW6CRt2T78sCnB+o4Afele8T/5NG08A/bbwMtDnBejz4XjhfeMNHO8UoAagnThxUt/E3ZqYexFxo8Cn4CdcvAxUQngPCItKgcqA+LGvPwbjd+LsKw2/3csmTdbjttvPH89vDzLOv13YQc+2eJ7kCaCK76QTDzBb5dMQeQMvNfkDzxmA5l9k6BdGXiFMoGo4r5FP8G7xMvP662/I6dOnNF0xoOrBo7OH5ePo0yzpme9bxT5sc+C1CVJbz7O5n8sXyaT7Ho+z8o9bUm04H3gjP/hzEwb2PGmfQI0ftv7o/nagFt0nUHMVqXlbaIayz4cbcgmCuJMIeYhb44v8bz5OuzVEvNqaEdoyFbupoHbzuQK1uoLaneV1uX13TVbLXX0mUam09H7qNmL8KKC23huT9e641BXUgLRHBTUn9tsv8+flE+l3S/daMUZpYmLbvZ6+AGo7i7xHIQrg0OTpPQQYsPUgUOPNnYqIZk5GQgJpfMfTQFMo2xHnAKZoBqTv2Je//BX55V/+FfOu8Tvn341c+eYgjWNoPgHQvAFtHpKoDPz+3qgoMFe5bMLXcNgct3U/X7lg/twPMl8hBT1fIn2QH3i2vHQAaUAYHem3iv3IA0xNQd5gRORHH31kgEa/NDrlA2lAH5Dm84oXzYQMRKDJk+ZCmha9l8un2Z00nJaH0yzpcvhYv49P6x7S+G3rOYbDGTYPaazOw/Fbt3vz4W4X9rOuPeV0ZQcFLH1z1TKvoPXVuL6kTuSwvrNsTyazXYWynoykxRbnznBjB94SNwP3o4q27mFPmoOi3VlLAYhmSb77ebu2E7/76R/2ZlZx21JD/O0r+t3LnVmvUjMfc9u2NVP1bIQjYe89vP2Tj9mmEZuOfu0YhDuoRmx9fGlYG5lst5mNMxOr/bPNZ+vTEOlGCydGgtrgApriActQWT5MFKAAD8BEnyqaWniTp3IApGhG5K14O9EMQkWEJ42Kh2ZPQI2mHSofCnYAkGYgwqZDM31cTp06af3M6NsCWO1FvlLxkEa88aR5UGPb1srg/grp/koLPWg/jOvZ6i3Yav6YoOdLPm2QnknL9GGkfyX9tfB++b6IPr2Q/nlhAdLwnOFJY0JZRlh+8MEHlmcAPJoMgTSOIw3TPEpfL5pLyYd8Oki7P10/SD6+Hq745O9hsQ/nHU63253D78c+w2mdMPndbds5b/j99hL/Z0l7qmWSWjbkk32Fsb4sTvTl3FxfXpx39tJcT16e68jLsw15YZr1LPuyMBZXgEtLPpWTVCwrMZvy4MnLvG8s09RvDCpdDz+Ih+oerJv6wYHdXq3HcXjwHgHSkO+b19bD60pqtXZXWh0Ns9uUiMad5t6nIzCsp5Dd14wQl3giLb1oUpoSl1ovJi0GQFgy2ryPexMjP/2z8CIcH+bTlANAD2se9omXm3ONqTyeTpp+VkUlQQXk3+RpdmEkFzD0KAKmCJPKjD5pLETNOofHj5+wApzC+3ksuIOeXwEdeNOAJ7xev/EbvyG//du/bd95qfGd5PciAIiXDF6MmLvsX/7Lf2l5EO8zHfiBw62QFXR49AigJjKVE1kcd6D20sBenO/JS7NteWWmqaDWUVATmR9LyCSglsxLKp4ZNG09jh4NBvCG9Pp08G1q1UtFS+XrYWo4PH7fq7du2DwAajh7hDX2dp40kUanJ1V9WzJQ0zhHbHLYpwNq1hAbUZhiUXQFtZg+x34sJc2+glo36kBtyKu2N/lGbmcmq1R5KzoMoEba8V41D+SDedsiDtScVy1ot6LyAdSY9+krX/mKVRq83e8HqNEvzYPasWOLkkoFUAt69gRUAWqkazxqLKoOqOGJ9iOMSde7FekfsPOgxgvN7//+71seJN8AanjaQj45vNplH7W+WSbRl1yyLyPJjoynKjKZXJdkvyqxbk3i3ap+L0tKKla5tfsxafUSUmqkZL2RkXSiKjO5uzKVXbb+acl4Sys7pRJLGy6BUFlTZXf02E43LjdLU3J9o48aTQPsNajQH0FU/n7GeZcoCdM1dTpI802kAJ3r37ZrM8ADCHsyGbst02oj0dUH9lFb7c7InfaCrOhnIpaUTDojY/mUzI6n5Ph0Sl5aSMiJ6YRMjTE9h+vM/DTEnWoBj/WuNFo96UWS5lnLaYGRo0+DPq9spCW5WE3y0dID+6h1JCMNYQDBmKwPBhPQRy0ajemziSrMRyWuhVA8lpBE3H36Nz3nrXz68qNMuS8e0kMftd2JfDdcyfgmUZp15ufm5cjCEZmempHZmVkbBEBlBdwNG8P6gTuaOYE+PzSfJhyaiBgp+iheh6CgwyLyCeUeDgXSsW8SBNRI/wAXeYFPpnvZLp/QfMpoZ/IK3jimtSCv8ELj5zyjSZ9wA6Qdbu1qeo61alfWqx3rgzaV7cpcti6LuRVZzC8bN7V7MU1QEa2Y25KItqXaH9EKeFKW21Nyad3ZVPaWvDn3M3lt9n0ZSZekoJaIUcnhkdGKj4A0rXSZzqOTkKbaz2+elZ9cfVE+W1nQhNSXmNrjiH5FrrnKeULcdB165gGo4XXr9xr6uTmSbLfiNhrkqr2celdeTr4jR+MXHzg9x4XmK/Ju/WvyWfcNyRU006iNFlIyMRKTyUJEFsa6sjDalemxtFU+ZNInL3fPa42W3LpblZtLFVmuRGS5Gpc7pYhcu9MyS7XvyFT0ms0h96DpOdxoz5NmF1qn1E7Kam9agUzhL6qFUTwpyYR+j2klO2hGbnVYo7Nqk+o+PXmwp7OqWwGBuHW7FU2z1cH0HN0wPccuRb8ZP/0F/WiY84mFxm/fui23bt6WRqMu7W5b768bDDQsKjC8AFQ0vkJinjO8EBieA/bZi9chKOgwinyCMQCHvprkFfpoMkiAQQY+D9GXc6vwvPEShM3OzhnUzcxMa96ZVribuqd/V9Dh1h5ArSsTmbZMZ9synynJsfRVOZ65BqFogcpoxah5yhLRrlRkXCvieVnqzMnF4oJcLC3IWGZFXp3+QF6a+lgmcssKfcuSSTS0qqMCjHoe0LDiUmllpdLMyvu3TsrPb5yRK2uzWjG6flJ74X5/YXE9iNVj8NQkYikzrrPd7mkCd32Qej08YoPm0f42c7XoGwf/MekuFQAdGwnPelgppHa6EWmaReWVzEfyauYXspi8IrnommTVnMduEBSm/3xaOyvvlN+QS62XtdLRDKS2MJ2VY9NJOTIZl3y6LfmUWjZpbz75/NNbt6zZ6shqsSYrrD3ajEu9nZRlBbX3LjXkvc+aEmvclgkFtanYFTme+FCOJT/S6y4ZvG4kMFW9Nyrr3aNmF5rH5dPGcVntTklCAS0RS0gqkZK0moHaQC0WV29V7JM0OpRkn4LwCOU1PTnvZrdbVVCrBFB7DDFyjZGdxfWisFj5tavXhcWW252W5qv7QY38B6DhRcCbgG2dET0o6HkSZR4whg1P+MzyUIyk7nTuzye8sPDiQr+2ubl588SNjBQMzAKcPVvaG6ilajKdrMl86q6cSH0iJ5KfKGJ1zAsGQtGUCVCV+zOy0jumoHZcLjdOyZX6KSX3lizkb8jCyHU5NnZFjo5eUXhb1wq5axPfAnpYVQHtbnlKbVIurMzLp8vzcqc8vmdQ46LcZLoiI6m+Wk8KaVGLKgBFZXWtJMsrRSnrG0m3zfJHABoePpoy7387AdKiChMxNZakmRgfk/HREWl0YmalZkxW6mq1qLw6dlPeGLsuxxVIc4m6GtMIKBj2nF8todCYiPblk/U5eXv5hHxWOSqzk/rWo3Z8LienFjJyfDYtqXhTUrGmZFL0L2DE2dNbmYBFpCvVmpSrdb1ePJ4puVuMyk8/qctPPm4oTa3IePyuTCXvysn8TTlRuCmZWN2uuaPmVe+mZb05KsXWqFysTKlNSrEzqnCWlXQyq2lBQUjvz6C109TpUmG3NipuFr1/erDmQS2v3yk8A6g9rqhkmA/Nw9q6GhNbWsXUuz8v4i3jxcV3B/AWFPS8ivIOY/Sm96LxyUsOtp1HjeZSugAAbN6zxjxprHnru5MEPRvaG6jFizKtNh+/JicTP1d7R+LCjMkOiHw/rGL/iKx0T8vd3hm53n1F7WXpxFKSSVQklyzJi9Mfyjm12fwd/a2uFXRDzxvXCj0ua7VRubyyKJeWj8nN8pjcKo/Kej27Z1DDy+U7uc/luzJf6MqM2tTArly9IRcuMdT/rrSbVem0apoRXGLfDgJYVyyRzEkilZWZqWk5eeyIHF2YV0BLaAWdkDuVhFxej8sVtTdmyvKFubKcHGtKXiExn+7b6gz1jotTOt6XdKwnnyzl5Sc3xuXCakGOTCZkYSIpp4/k5NzxETmlnzGpm9HHKZnMqO1t0s79FE1QrVZdmnqfWt2kWkZBLSb/8H5drSbdVknGUkWZypTkzGRVTk/WJJXo2jXjafRirdCiAm2xFpPP1lJyaS0t5bZWtOkRM0VCfQBA8/AboiukqLSbWoE3tFLfOifQkxHXAajR9BlAbb/Es/VGhdMzL7f+PShPthMVzVYLCnreRb6g7Bs2fttJ5AvfL9R/D/3Rnj3trXQjQdBviEq019LauzFYZLsuUTX3vSHRrvs7xnetdCPC2zEDEhJSbuTkVmnaloX6+O5p/TytYHZaLi6fkvN3T8iFpUW5sjYjtxXQio2MNat6QNtb8iLxEt++HR+P9iUZU0CK9ySrAJGKtayjf7xf0XhW9bW+osZn9d5FxL3p7/12SXrNdf27LMloS8FCJKsglkn0JKnhxvQcqNVPSLWTlfX2iKy0x2WpPS3LrUlZ0+/r7VFZa43IqlpZ92kqnFIhdbSCareaUq/XpFQq2vw4lUpVwagtnQ4Z0oJ+aqIjP30latWaFIsl6y+xtLxifSeswFCkbPWTUutlpNjJ6/WOynKTax2zay6plTtcc14qnZzul9X9U3ocHWZpgu5Iu9M0GNMnpoUJgz6c0Y+RAS7cIz4tHQY9N/Idp6lM6DOTzqQlk83YlAE7GZ4C378mQFrQ50UeuvCW0QcNb9l2+cMb+YT9fD4JkPZs6kBKOPxYWrVq1d2WCP29GE3ZoyIG1uIKapPy0Z3T8u7Nl+X9W6/Kh7delw9uviLv3XhJPrh1Si6tzMqdSl6hLqUVs74tA2pqe5FLjhzjOqRvlYc3miD5/jDBBr1OW2GqZk2lSqkSi1O50P9NMSXS3Qin2YkpZCZkuZaS29WMXC/l5HYlI8uVhKxUYrJUicqdclTWaniYunpvCLdpLuySQtDS0orcuHlbVlbXpVphQWv6JjxdUuP89TozyVfk7t1VuXb9ltpNWVsvGUCxRilrlVbaSVmpJ/UZ85wTclevd7Ua02uNyLpaqR6VSjOulrT71KU5WEGt3VVI1XtLE2u/z9sf018460ncRp022wqteq7AaUFBQUFBnxcdHKhF8JV09DvNVC2tkLWS7Wll2xFZqRbk8uq8fLp0XO2k2ik5r5/n7x6Xz5YX5KaC3Go9K7V2YhPUBmHvRa7h09lWscoCo0jxgjkQHGzYUbicOwppTYUWBhsw0zNNLvTNG4TBufSz2VEoacTlbjUpt8sZuVnOyq1yWuHMgcvtUkxuFunPBqjhLetIq92SmoLQWqkmt5ZKcvXmqtxdrkix3JB6gwWcARTc3E/HOp2uVGstWV1vyO2lily7VZRrt4uyXlZwxdOlt7ih111pxWW1BqTF9RoZGRqXpTJwqtdbiSi0RRXY6NMX12t3S2bpCRTA2noP6gpqLH7OT4wkdoY3saM/thTinMctkFpQUFBQ0OdDB95m0OtTuTbU6tLrqul3m6dMf29r5cvC3nTALzWiUuvEpd2L6zHAmXPzPhKhPUGBZ26NzqhFVWOvAMI1RRQ4Y+ZVulVMy831pFxfj8vVtahcWYsrqCYU3OJSa+FR6ktdj1lriO4fUVgV+fCmyGd323JLaW51vSqVWlVa9A97SlZvNmS10pVb6xG5sZ6W66UxhdBxKTaS+hzp5N9QkFLYbLYVxHtyoxi1a8WurcfkympMLuk1X9V7cKsc1X1EqnrNLEHlvKUAYUfDaUqzVdVwihvWbCsMKuhzt4OCgoKCgj5POmBQG3ihek2tgOtaKdfdPGU9txQPo/cqzb4sVyNSbMYUVmIboGb9Vg4/p2lc3aLzG6CGR63dVxCJKHRFFdIScruYkptFD2pAS1yhJW7etWo7ovdCHKjVReFO5OKSyEe3RC7dUVBbrstqsSrVWk3aeJyektUbTVk3UIsqdGYUxEYVuMYUsBPmDTNQa9N82ZJVBbWbxYgCGpDmgc3BKaB2u4w3MSLVlt6/HkDuvJ8M5gDUGu2K1BqlDWvq+buajoKCgoKCgj5v2tuoz9i6TMfXZT5+RU7Gf6b2tiQijPq8V5XenKz1T8hy94RcaJ+Wi63TUu3nBxWyFxWza8TivFHdyDbX2fHxPSdcFeES0pERtTGR2ZGuTOfbMlNoydWrV2zRWiYOrCkE1ep4+4b7gemRPhoW6c2YM3v6K6+8LGfPvihrtZg19dGciefomkKJSXdnFYR4LGeGV7FjIwQ3J221a7br3rxmf09oSj02KXJ8oi/zkymZmcyZ+Sjtn4gDM+0DmsRj8zqHVa515crtply51ZSVSlJhLC3lBoDKYALmN1PS7NO/rOvu++A6topzbHhLd7yarXHY/6t+NLn7E0Z9BgUFBQU9KR04qH3WPiufdc5IpV8Yqn5dvyf36aphqwK31s+PIcL1oHZ0LCpHx2Myp6A2lWuYPRTUBn2zHFAofA1FbmF+QV5+6WU5c+YFWa8nZL2RMC/RBqjprg7C4lqhM7VIRuNC3zaAZnMyXYMjAyTgzvVB424Qd05XSPdt7rd8Jia5TEJyWUZAcl12+L4ISItFkxpflhEhHs6buVUt5bBSVWFErd6KWf+yZocpMyp638oaLyBt85mi7aJpIes/95/hWRCxDqAWFBQUFPTkdCCgVlZQW+8pqPVOyqXOC3Kp+4LC2+as+m6+sk0w2b5KfzxZqHRUVx0Zj8vRibjMFHoykamr1eTa1aty+fJluXNHQU0hrVavKZttxsPihhm0AF0DT5lqbnZOXjh7Tk6dPC3FZlIraDdI4HoxJjfWHegAatFoXD8HIxdt1QP657GoN6RCmCydFdPvTFGh90Stb6Dj7gnR4ZkgC08P879tPjWLnQtv8DcyRLX/h3bcRkBaLJaRuC0wjmfNLat1v1x89Qj3pwo463ZLCipFF/+HnOvZF/clgNp+y88HZYNSBjZULG0rPy+Un9YDQ9u9ZAQFPQ8ij5AvhvMKf3vbKvKC1UWDPOLzCxbyybOlAwG1Um9BVhXSlnun5Ur3JbUXpdYfHWwFHRwEUdHb+prbLdn0mAKSgBDWkBzLxmQsF5VCqie5RFuyybYsL9+RO0t3ZH19TVqtpvWvMs7wXiWzmMXVvEUKlh5ERgojMj09Y8s+sSpBXa3SYiLXqKzXyRgJhSogTSvoAYy5Bd+5Vz1hAfZ4HC8WlQseOM003A/OYv296NNHPz5/Rt0FY7fBb8P5kmtkCSau2Ytw6OTP587q6zEphbSsZuSshu9B7P5M7DI25oGVwsGDWkm/B1ALoPZoWl9fl9XVVVsa58aNG2bM2beTqHT8Wp98soQUn8wthVERBQU9T+p0OjZnJa0/fr1P5rJkdQKM7VvFHGpu6cH8xpJrrBcdVvJ49nQgoFbsHZGV3hlZ6p2Va71X5Lparc+s816GGgYuvUFFt99KxFOSTuYlpZaIRdQUaLT8jtkyV32p1EpSrhal3qjpGwpTQpDQ8UrhVQKyUvqZVABpazxpFuU63a2KxeKSYLLNRFJ/ZzABIzc1M/FdDfhxx1NBOzB1y1O19XfNQBqndCo3ALVhKGIB8oY0mhV9BjX72z8ctxf/Dn7zG/Q3ll4izEQ8PfhN7PiGrY+500LmLgDiyrqVwAeQ5ps/d5aLA+J6ut1yALUAao+lq1evWjeETz75RH72s5/J22+/bRXSTgLGzpw5Y/bCCy/IuXPn7JPJP7GwjmHQ86Zms2mAhp0/f14++ugj+fTTTw3YWJx9uxcbtxj7rNnLL79sdvz48Y2XnOBVe3YU+3eqwXerZgEOZn//7EZJLqotrys4tJmoti+ZWEsy8Zbk43UZTxZlLFWVKHAQ10o+rhWXfWalGZuRenROajIjZZm3tT874jw2zgauVwVDRRP92H+PWjzKAt9ZMypX5uZqdyM2qrTZSUi9HZF6N6bxSkgvmpZ+LCOR+IhEEqNqYxpAQfp6Tf1YSrcrsOkn14Z1I2lbUaDeYZLXiLTUmPBVAzCvFrPpM5AA4METh+cJcd14+ZIJ1vHMGPBxGxg4ENNtHMvkr92eW9uSeDs08HLf+Nfc2bo/nrRkImWLmbOQuTUDWThdDYcRtx07x06G1y9iYJkkVP3Ng5pu3NaGhRfQAej2kOaPcWvBkrb4tOe/sW2rIf/p5bdtxstmrSOt8rdeCB7Qzf22mhff791vOF54U3eOF4YAcdenDzkAb2k60BcctdF8Ul45PmqWz2gaTPKMOGcQotmGt3/WKrx27ZrB2S9+8Qv58MMP7fP999+XDz74wBad9hXTVsP7RsVE5eUXdMfbwCfvnb4CCsAW9KyLfILn7Pr163LhwgUDNPIHeeXjjz+WK1eu2IsOwLY1n7BYO/kCI7/4dUHJN77plPoi5JPDrz2BWirekXSyK7lUW8YyHRlXbomkxqWfnJJeclIkOaHfxxXU5qURm1NYm5FSf1pK3Qlp913F5kSzGWfTSq53ME2fDmLS5lmzpks7B14fQEEBzZoGmYwXiHJ95YArPEx40hzoaNxYKktxzu0zkNYDVOhUCN6iUZa6AtDSFj5VxUazqVbm/EZfNfqCxTVOLnMAcUCOmoXDUkluLjEHajsrpudLJjLOk0b/A4W9SIQ4unBYvJxr9KDmni52r/D6RTbAwx27KQ8nWzX0O6Bi98eH7T/Zh/AcnHf05w6eR/0tqueI2e8ODO+17c7J78OQH7VwCA/jb+t7sW2YhOev3f+2uR+g5+NGvFz/je3CIR4ubgHUHl0svk5FcfPmTfnHf/xH+da3viU//elPDdTwqvE7lRNA9yBRfuB1A9poKuVYQI2KB48b+Qvv2vbpKSjo2RD5AQ/au+++a/nkrbfeMkADzgA4D2FDDWP3CBgjX5RKJYM5jO8ch2gWDc2gh197AzXWyEz2JZvuG6SNa6UUUTgD0voGauNmrfiMwtq0NCMTUuypdUak3cPD5EUhvOmNOShQixuo0XxJQqbpElCjEo4bpAEyDtS4cgUdKmAFKYCrq/szStMgCywYKvD5xp/D5vqkpex4fsBXSHOgA7WObXNNjFkFKzxfhOQAEgMGROJ6791cYg8DNfMYJnOSTY0MwgL4uBagQuOvGbSj10Z4/vq20zCoKfJY3N01AZ/AC9fmzP0+MPtv8Aw3QG34PB6guC8xvfMKjwpDeK3iQKZGOmLhA1jO3D1APhzdn39tG6ALkOJJpO+gBzXuhb4VanjmlRyYHYP3zAWh4hnyO17PzXA88PH54HAIyMUrgNqji0oDwKLZ5i/+4i/kv/7X/2petEuXLpkXbbeQRjish8sxQBqeBtLsyMiIVT5A2ujoqP22V1jzlR6fmI+P/xttF6bfhvy+W21Yw2Fs3YZ2OsdO5vWw6/X77vW4oCcn/2zwotEdAED7yU9+Ij/60Y8sr+wW0vCgkadoHmXwnJ/lgJcl1gKlf+f4uNbbqr0+f39eH9dh89oa5vA2r53S+VY9Tvocjtt2Nqyd4rz1GG/Depw4Pkh76qM2lm7JeKYlc7manBwpysnRolZuHE7kMKq7vpRbOVlrjspKY1SuV6bkhlqtk+IUAwEwzLfVOLA+arFYQpLxjBqjLt1anMSx16dZMCbtTstm0ncgA3RQKSvx4E3R/0QYnQlA6RatwNkO+AB3jAj1I1YNdOiAz+fAPJy5+zEI08IFEgCEvgIBy1fp1oERByCr1WlKvVmVRqtu4e+kRCwlmfSIghqDNLxnDhhxC5lzfH2jr9tmfLfK4DKW1zjQ70rjpqBSyMZkdjwuM2oxvX5lFVKp3is3Oo9Mzrqf1uzEQvLNhtRaXam2WGGBvocOfMbzKVmYzMrchMLrgHUwwuRuUMhgTdzyTVzzLak0I1JuRqXeoWnTxTubikshk5SRbFLGCs6AyJa+ULQ1vUZ4hmpdvDUWZlvKDZFKI6Lxo8m7Ky21TCqpYSX1+pIyoWFMjOi90nh19dpocu53sa609XgGmDRbHakq39fU7GWF9UaVDOPcr1jOnljoo7Y34RnAqHyoeDC8bI8r8ulLL71k/XBee+01+dKXviRf/vKXzVvAotR42XYjKjeajPA6UMHRUZuKjeNZBJ7wqNgwvHb8ThFq6U7TMKPH64OKcKuII8dgVJIAJZ++Ocp/kicATkCTDuFexIV4+ThhiDKFuI3o/qMjowapSU3nyaFrthe3jpZfahzPtXHfnQfZAS7n49igpyteQhhYQ/MlXrQf//jHG90BsMfJL/Rbm5+fN/vKV74iX/va1yzf0G8No/zfjUijPg2SJjHixfGkKZ9HyC8+nwyncW+kf9LdsFeP37kHGOkWI30Td/LMbsVxxIm4+jTPb1tldbLGm3iSDzgP38krHM+xGPHaquE8zTX4PL3f2pNHjfomm4hKIR2T0ZxelFbEkWTO9eWK8+m+12VUqv1RKXdHtPLKK7ilFXKGEwBnUho1j9LBeNRQD++ULT3UVQhxZ2XR72Zn4E3TytkQLaIVfyzNN91JASvStsEHKf0nlaDAy0pCoc/dH+ABQOMMrrnU9fHST/sFyh40d+rfNHcCQRzA9TJFBwMT8JohgDJO/zeDKZoqW4P1LgG9neWadrUCUhB1nigHmgabQGVXw+kyyS731t3v7TTsUUvoTUomIjIzFpeXj6fkK+fScnIhIafmE3JiLi6L01E5MhmRiVxTRlIVycWrko41JaH3i/vS1FtdU6M5sd2PKuhl5JWTI/LlFybkzJGcvLiYk7NH83JqLicnZrMyOxaRqUJPxjJtySeako7Sx4hF7eM2mpb7zMtDIaPQOJrU86flxWMFefPsmLywmJeTc1mzxcmELEzEZLrQ1xeJthQSDb0enjWmd92Arie5dFLhMa3wmBmEM2rxIW5nFjJyVMOZG4vJVH4zTizarw9M/3dQ2NR8bukFD6SeI3jU9qZ/+qd/subOv/u7v7N+NxT0Q++KjywKTApkKjgqA0a3LSwsWAFKIb8XUMP74Ac40OxEs6zvtE18faHsC3jSKN6NUqms51+Wmzduys2bN+7rM0QzrQctXniAMMCIY4FDP/IVr4c/xzCosZ2KmrjhVcErSbMvcWNbT9N4LIG3XisOtWTyXlCjoiH+7E//QM6DV5JRt1wH5wug9vRFGuH5Amc///nPzfCseRh6nPxCuiN/8Nx55h6seO4MMODv3ch7tL2njr6mfJI+SV/EkRckjPBJzx7qOM6nc+LDuYdBzYdNniFt8p3rJqy9gBrHkOYBNM61U18+wvf5kngCWtwH7hNx4Ropq8hrOx1LHuaaya9PGdR6ktRn6EZQQpEKBfGk1LopqXS8pc3Wm1lZUysqoJWaaam2khqmr6w4i7ODBTWAiQq2a5W2q1SpbJWyFdb47j1h1qFeDcSgKS+i8Urq9QFpgBSesL7CEMdwFADm+p/pX9ZcSr82EriDLQM1aw6MGqhZc6huc3OpuXVOWbsSwHKDD6L6OxAHQOpbL2Cgt8g11e1kFMY0pyb1XO76LFZ6zV3C6CgMqjngY4/tNQxqcUBNbWo0riCkwHEiJZOjUZksxGSsEFFg6it8aBqI1CXa04RJ0zDNqx3N/ApE1VbElsRiFCzNibMTClaLI/LqiRGFv6TMjac0bIWlQkLG8goxcb3PCnlxPJfcl07NlhErtxJSa+H5dKA2ko0r0CVlXsM7Ma9QpXA1O562cMY1nEKqL9mkFgwxwmpq3DSDKTBW8ajpJ6DW0vjhlRvTlws8XacWsnLuWF5hMjmIk1aMGkY60Zdk1MUpqumyTdpv4WXGo+YWnqfpk/seQG134s3UF9J///d/L3/9139tldBWSAO2KCApLHnLZrTakaNH7e0f6Jqbm5MpmmomJvS+MuLa5UHEJ4Uy5+D7hO6DAWgUnA8DEOJCcxJ9gqgUgSBgBgCioKfApiDnkwKc7/5Nn3hXKgpqut/169fs2EuXPrPj/L7Ei0qHwp1KA6j0hbqvjFyFcM0qPH6n4qRy4ni2U3nTP4n4EQ5wR7ypJDDmgyyVS+bZo3wmfH9/2JeKCvDkk+uk0sKogLiX3HcqVcR3rivoyYlnQJri2ZI/hvtukja2QhrPCnDhpYQmTPLI4uLihscMjxZpwMMYx5IXSXukG54xv7GNMDjGP/ftnj3x8/nAdzkA0PhO3iG9uxeW0oZXjPSPSM8+HXvwIT1zHuJJXvUiHPbx4fprx9NFntitWnpMQ+Owvl6Uixcv2gAM8t5wPDEfJ/ICIk9zrdwjrsPnO/KlLwv4HM7TxJX7SneahHIDc7L6+74f2hWoNRXSMDqs04DW6UbMc8K8YXfLMbmzxe5W4rJSSch6La6Vd0LhiH5iRNgnMtcMd7Cg5uUSHAmSpjuaOs2TZoAGoCQsJi4utPfrhel1MtdZIpHRv/VNXYGn3W5YouJ3l+jdqEoXBh4xPGb+WvT67ByAmIMgF7bCiO2zmdmASTeAAEAjju4ZaPbR4wdNptuaa+LsA5Eal8jg3G2Na7PT0E8Wwue3+129w9oKathYPiZHpxNmvGAx2S4x6mrkuIf1ekMTMZME0+zZN6voZdNsCajhp8SmR1NyYjYni9M0QUfMaOa1/zTMZpNRSLjDNZyBlRpxKTYAtU2PWj4Tl7Gsg7KpsbRaSpK4PDUMFnS3wkczJRmFjEV4xXpEirWorSeKJ6yllksnNCygTKFxMmVLcyUS9EVz6YMm01aro2EMmmSbbWs+pRm1puHUB6BmkwQHUNu1KBQpBCnoaPKk8uGNeqvIV4AJlcup06fly1/+ivzar31dvvTFL8lXvvpVef311+XFF1+UkydPWYVCEyPPyfK2VnBehMEbOmmMsCjcAb8HCXChr5xvZqJgpjCmcqACRBTQVByMtHvvvfesMKeCS+MVU1CrVisGQj9752d2PPHi/KRPjqVg5x7Qn45KC3gkfCoKCnwK+4sXPtVjP7KKC0il0vCjY9955x2rvKl0uH4qZ67Vx+2mAhdxB8r4fXRkxOLAfbh27boN3vjud79rYEZcgFDfv4/jqQw9sNEEtF+VTNDu5D1AQAzP+Qc/+IF9J23w+1bxjI8cOWJT07zxxhvyS7/0S/KNb3xDvvjFL5oxFQcgRxpAhME5vEgXPHe281LE/jx7nvt2z550DJQQJ6CHvELfOcIkvQBj5EPgjPxOHiCtEU/mcCPNkX9I57zMkFY5H/nL5zFEfuAc5DPAyr9I0DQ7vN/DZF1qtK5aXlmWd999T374w38yICOOXB/xxPjNj6j123ye5ZNrpYsG+xAP8jTlDtuJK3maMo1819M6wOo3rUdzuaxd335olx61roIagIN3QiFNKysgbamiUAaYbbFl/X29HpNqMzqANPfW6cRZnD0ZUKMy9ZCGp8pBou/4D6joVn0AeLpIxDbhg42oTMRZo1MTXkvJul01SEsnXZMHEESzos2ZZh41BTUNg353DkTJCHRaB+zox0LzoD8H10+8PKTRV4440oeOqSweBmkY8Y5rvPHkMT+bA8GmAmWjWbMwCf9heuKgFgOuqJQVegzScC9vD2oGrPrsHKjF7wG1VJJ7q/HXmAFprpDbHaiNKUwBafNTaYsT8QEIPaiRCQ3U9HulrtdV7wdQewxRgFGYARsUaIAGlc9W8QZKIQhkvfH6G/Lbv/M78s/++T+Xr371K/LLWgm99trrcvbsC3J0cdHedu3tWAt/CtfhCshXMgAiwIOXgYriQSJOgMzf/u3fWgVDoUza41j68FAoD0MankEg69ixY3YO82jVqvLeu+/KP+g2CneuhW0U7mwHjLh+P08c24AtD2p40z7S7e+//65B2tmzZ+3tnPgAuH7UH3HgeqigPQhyj6n4OHdNz2WV2vy8plHX7ARAfvvb35I//uM/NgDl2jgnlRMASL4hntw7Kl28l/tVyQTtTjwD0hl5hfT1V3/1VwZG20EaAvRJI2+++aZB2m//9m/LN7/5zQ1Q4xnyTHnehAEoeQ8X8mma/AOkkZ6AKp77ds+ePMZLA5BFeiSO5BnywcmTJ+2lhfNwPtIsaZX9fVrldw96pFXyASDJNXC8F/vgxSIP8gKFB5j69ajmiVOnTg32ergaGhfqKaARSPur739fVjRsXn64dx7UAEFe0sgHpH/yFOfjvvDpoZnr5v7gAaR+IE/zwkmeBuTKpbLWCzEt81OSVUibmJyw/fdDe65BNH+bOaDb3uhMjicK4IAvH1WxwVxomdTIhgFQ9M9CPh7ONiee3c7cNr1cA6esgkRMWgpbzW5DK3KaCAEpvGTAnEKkHoNoFt2YBoOBCQpJ4IE/t9vPXSdfXXPd5jZ3/WzbPGZjuwEZnjFAz00L4v5WeLLu9vebe2SE1bOpQ7q9qkJZ3QCtqRkJz5zze+oJzA6vHj1l3CuAKejwCu8RhS6FOp/8vZ28hwDvwJmzZwxkOgohFPp//uffkh/8/Q+00L0tBS3cjxxhvd2XbNJb9hsWFQrwQyVBIe0rKMICULyoxKisABbeqimw2R8P3Ne//nX5rd/6LasET5w4Ia+88op1vP61X/s1+dVf/VX5lV/5FTs3lZQL04XLd8IFOqmgGNxAGAxuoPLkb8LDw0dhj3eBCswf48x5NagkiDcVG/2U2u2OvPLqq/K7WhnjYWSiX4zBE9wzPI6v6nbuR3EAYb6ZdWSkoOc9aQMsvqrHEn+Ma6JTOc1e3DdgEogcvk9BBy/uN/mC9Oeb50ivpIutz4J8QvoBxACXl19+xeAagOdFAwACKniWABf7sf/Wfpo+rQJXK8srcvXKNVm6u6x5YhPmhkV8SIuEzydeOPKIH5CAt5s0SPriN4y0yX6kZ87njbRtaVxtq9hmk8pbtyPqOhdPPh9FuIQ4HvACDIFC8iJ5krTPJ/mHa+A+ce8BMEDMn5tr5/6RT7jGL3zhC5aXuEbKCiCZl7aV1RX56ds/tbJnJ8B+FO0Z1O6Vg5BN8+I7QTuouHfbbhWRuD4oPwWFt1SC0YkkOAdGdiP1S1ftXljjd29uWx/YUSBiVnkDtW5bGp26frq+XL5Z1CBKj0MkGA+LdN7nDRWx2YBu4/pIiJz73vP6bXxujVe/D3gx9xpTgjAgAVNYEwVRgHAbswEPpkGft25V2h08fnjTWtLRa3jUBB0UdBCi4APQ/uEf/sEqEP7eTlRAvDVTCAJBvKEDDbzp/vEf/5F89zvftbfrTDpl3iKghzf1raAGmPjmEwAMbxNANux1QxTA/M6+7Ac0UUBTGOOZ+Gf/7J9ZgQ5YUeEANr/xG79hldPv/M7vbBTs24m3dppp/AhUCnS8HlQIwBUwSHx8pUyejccTktC38WSKuRZ5YYva9QOQePEobQjrX/2r/8fiQjjEgYrDg6D3pACnvk8OI5ipyM+de8FAk+axX//1XzfjO79RyXA/uBfck1CGPHkBajyv4TSxncgnvk8Z3QDIB9lsTvPWBfn2t79t+Yz0QnpGpAee/04eUloSVlfX5Mrlq5YPeP7bifRKnsLDRBzJq7//+79vaZEXGUCNvPvLv/zLG+kMEGI/oMzLIE1fSGx1H43T8DbEtEgMhkkMJnEH1vZL5FfKFmCS/IiRN4kncacsIc/haeRzWHjh8LDz4uVhlOsE0rgPvFyyJOXbPwPUrh4mUHuQPMDs7SbzUHhQTBVhD0thjbnQNo3JLGmmS0iajsI2dUNcxnNuygXW9cynRPRPG506kk3I6GAb877xd15/z6ejkkuL5DN9Wwd0gg7z2agdS8f0fDqi+0atuW1yJC1TIxk9T0zS8Y5kEl0p6LbJQtqFS+d4DYNjMsqQBQ17PMdxCd0eNytkohpuxEbOEs6Ehmvx1RMy7QRxyib0vHp+wprUY8b1czQT0d8YcduTeIQ+cQwOANLclBzAmmuGxWjCxZsWFHR4hFfI9wPhk7+3EwU4BTeQ01bYcsd8av1LGC364Ye/ME8RFRWeLJr3aIbYOlCAN2cKWaADYOE7hSZvxcOVn98PzwMwxxs0+YfmSDxTGAUzhTsVI4U43oFji8e0sD9rHjPiSjgcNxy29xhwPbyJY+yLEX+aNHUn8+D745wnwU3YS0lIfIkfTUG8obP91KnTBmMvnH1B5rSiprImjngJaEKispyamrTmT5qPVleWrYKlomYfvAC+rx8AyjVwL7mHxGu7ijPoyYh8QZolPe4ES4g0xPMk/duAmyNHrLtApVI2rxow5V86SP/+JWWnuqGr6cy8SJrfyAcMRhkW6ZM0Th4iLdI0y/7kE9IiLwzEgbQI8J8+fdrgEfAhD/E7cTYPmqZhC1PjQpicj7SN19wb/SZv3bwla3h3eWnQ/YePfRxtlydp6iT9Y/ztz8Mn+/tzsz/lDddI3sGbSZ7jGrkPXGej2ZDLVy5bvzieJ9e4E3DvRY+ZI4nAsD2+uCE2YklvWNz6M9EHiDc8ZwxoSMZTClgjCkI5OTKZlTPzOXn1eF6+eLogLx1JyslJkeOTUTk1m5KzCwV55XhB3jxVkNdP6L6zEZkbbcqxyb68MJ+UV47m9PeCfOn0qLyymJWTUzE5MtqX49MROT0flzNHEmanF2KyMNaW8XRJZvINOTOXkjfOTMrrGu6rJ9Jy7mhcTuoxC4WenJlJyGvHc/KF0yO6PSuvnEhqWDGZH9O3m5GIxiGl8dFtJ3Jy7gj9uKJyZLyj4VblyFhd4yXyxsmkXktUTs929bemTGSrCmsliUVolmCKDyDNZ7z9ufdBQU9TVCgU0jSRfu9735M//7M/k29/69vyiw/cCFEKTJt6QgtamgGphKgwHvTmSuXEKO+W7g8UDYttvu8YhSrAQoVDYQy0ILxzeDrwatEXheZE+s1UKzWFobrUa3U7PwXysLgWQAnAZJQr14P5meXX1lat8/Xx4ydkTM8HoHnYw+gIXdbzlspu/iZ+47ozGTdSlEpjuNrieJp1qLi5Dqb4WV1dlmqtanGjEsLDR6VKBUtYVJJ4OLnfVOpcN5UPQMq9DnqyAsx51qTFrS8Vw3LpIGPPO5VyYEGaABR4fgAc6YP8Qd9Eni99MEnr2wlPLWmkRYuMnffefMI24uWBj3iR3ogDaY28wt/DAiTxpNH3jfQGSPr9CI+weOn68Be/MC/gf/gP/2HD/uiP/ki+873vyE/e/olcv3Fd9+9sgN7jCk8Z3kbyJH0AyZN8J58yvyP3jHxAOcDLGffRg9p2YhvXxbPgfvBsuD/cJ67RP8vH1aHLjUau+jDxljENCFNluLnHnAFqqURaQU3fqEfyctRALWug9qXTeXkZ8JkSOTGpb58KRC8cUVA7VpAvKBi9cSKjgBVRYGrK8am+nFXYemUxr78X5ItnRuXlxYyCWtyB2pRC0gKg5uyUQtvCeFsmMmWZKSiozStsnQbURuTVk2l50YPaSF9OK6i9buCo5zwJqCnozQF6gJoY5AFqr53IywtH03JiJipHNexZBbXF8YaCWl8hTkHtqMLiTEe3NWUcUIuVJB7RzKb3YXNE524hjYT2+G8kQUEHJQ9qFJoUoH/2Z/9HQe3PzZMGqPmXOJoFKQiZtwxQA6Z2ks1/p5AGrDEYZji3eFCj8CYMCltghoLadyjmPIAacGag9qGC2o1bUqsweKBmcaYS21oYU0B76Pybv/kbG23pQQ3Yw3NC5cqb+fi4AyMqMO/1wKsBqJUrCqKD60tQQaczkrU3f5pGN/Mzx1NpAmpcR1srXbxpjEQlXF+R01SMF40KhWkLzp93oEbfKAAtgNrTE2mIdLNdehqWBzXgJ5l0A9n4Pjc3b94sQA2w8aD2wx/+0LzZO4KaggUwxOwGfn7RYe0EauQR0hyfW9OLBzXvtfWgxn6kcQM1fVEgTwFq//7f//sN+yO6OXz3O/Ljn/zYvIOcH2DaCoOPIjyCgNr3v/99AzXyJf36PKgRJ7olEHfKAX/e4bw2LH7nXpPnyGNbQY37RvwfV/uQG7kAiJOb+PggYHSvD5KZ5BkJ6fqV8dbgjL5mLX1bJFElE31rXmROrbnJjFpWpsaSMpGPyXg+qiDHDPsxmZtgOoa0zE6kZLIQtclMJ3I9mRmN6Pa4bk/J3JQeO0rTqEgu1dXPvkwURMOPDEwTX1bfTJNtyev2sVxfppkcdZR5xyK270iG+bw6Mqrnnh7XMPWcM+MJmdZ9xvNsp9lT9yXOGt+F6YwcmU7JwhTNp1HJpJiUVc+lxy7Masabztp1TVq84pKO02+PxOHu1INEhmCpKuaCSycZDJFTY5H6tBqT7O6c+IKCnoZ8AQcAUakASAAUb7d04KfJrlAYsX4gt27dVBC6aH3WKFx3EiWI/adhW54Zyja+kKXSI79wXt+Z3heuHOcNVXXb1WtX5WfvvCMXPv1Ubt9x/YkokP0+iMKdSoxKCvijeRIIeuPNN+XrX/+GfPkrX9G/TxsU5bSA31oJETe6gGA+nxI+80I6G7qQgYgz94uJby3/ayVORWNzXmoYHM8+V69dkx8pML73/nv6d8eaQQE44se9pql3a8Ub9GTknvGDO86TVki3ABKfPGM+s1nn4fJN9EASzXL0v6LZG5DYST6PbHdeS0uDc/h0ShxJax7e/AuGF/mXrgv0ZeOlBAD1+xFeUqGN+DCCm2ZD+n16o48bfTtPnDhuzficd7/qKmARTxn99ny+pM8acaCMof8Zf7Od+JFfHvY82GaDEIf24xq5V9h+xP0xcyMR8JBGhAju8SLFhbY7SvCaCJhWod+nzwTE7owpLFi2qNasKGx0bCoJ4IxpGyYV2FheaCQXk9GsApHBGiDlpnWYUOAZVWAqpPS4bM/gano0JpN6/KRuHy3Q500knehKPt2T0Zxo+M74nk/3rX9aJkkftf7GNgywy+ox6bgeqzA2NqLAqGGOKyy67QqAenxOw2dVh8nRtExPpN00EZP0VWOCXdE3Zt1/RAFvSgv5ybzuk9N4ZzTMpG6PS0ITwG4ePOtVJnX/tBbWGQW0bKqgIJhXyxi8BVALehYERNFcR8d+Khze1HkrBtCY7oPmxe2m+tiNKEyp7AATClQ8EHjOCG+rR4M3ZQp5+vNcvXpFQeef5MOPPrT9AUUqouHCnIqNJh/6sNDRmkEEzAtHRfSv/9//Vz9/WwHpnJ57RK9Ry7ZBBegVjVE50pcmbv11ERUB8XIV3r19X9hGxUkFySdNxHQwT20MTNj0Dp7X++ZHBxJPKkb6ExFXKi8q+wBqh1cenEiPeFZJI3zyN/kFUAO4GWgCfNDRHWDbaeDLw0Te8GEDTZwfgCHN85LCJ+lvWOQh+svR5Iq3lnTJywz7cXyGfKfAxMjtf/7P/7n84R/+4Yb9m3/zbyyfAE1cB+fdL+H5wlvGveGe8PLHgILf/d3flX/9r/+13S9eXABdzkue4VqH89qw+L2jL0bOa69Qp3+T17hnHqL3Iy/tMQSt2DUSABlTSDA/GDP3bxh/R/V3Ric+IgRw4Yy+bGmBxA3wc4uZ9ZiXjfUWW2pNPX9Pcpm4gllSCmYpyWfjCiNRhaaodfgfzbPUVcIsn2MgAZ368Vz1zcM1kouqsU/SwuLYVCIiaQUqBht4y6qlk31JxHu6XYFNtwNkeMDYzt/8Ho8prCUjFo8C58zGNNzIAAAx/a7nKRSU7NXGmRV/JK77MHiC+dui+oat4KaRG1VgGy2k7boySnEsZO4WDdf7K24KDwPkbYwVD+Ix4I5lphhdo4lG/07qJxbX7fs5miYoaD9FxeD7iuDt4Y2XTrw06dGMQ7MinZp9JfAosgpDC2MqsFSKSSzdtB5UMhhQAxixH4UuzTeRaMQ6Cn/8ycdy7bpbuWC4SciLApomFDwZxJ/C/9XXXpWvKKwxnJ/r4W0+b81XzGPoPF4YhT1/s1ZnWu8D9wKgpMIAJjkn10zcMO/Z4Hc6ka8rOAJqExOTFmfiQvy4NjpuA7hM9wHkso0Ki3ji/aMi43zhJe7Jyw+kI7096P6zjX0wgIBP0gaeYMCJNMFzpQmUdAeI0CRKWngUET7hkQYJg5clXlx8lwDvhQbYqlUXB34nndEfE68a6ZN4AWpMyYFHjbAWNU8zwAVQ8kb+ANJOnz5j18C5toLgowovGU3EvJTwAvjiiy/ZSxQjOBmlCriRLyl7yAfDHjWMawA4vTGVCXlyecUtks8zpEzhXjGfGnHn/j2u9hYCgKaAwASviQTr0I1qQcL8ZgUFEbw1+pke0QhmDdoeT5BqW5hottYoSbVRlIpavVVzEKdlYkfhrTtYZN1NkzEk4qpxiMS00GHeNf2brCB8V2DZ/G1TkagmeoWYWJy2dLbvlFnIUA6GeAguUwGULJ3ERK0PmD+OKOgxlsHUdlsg+kzMRKvxGG3hOQ0jq2Ftehu3M0U/A163QDt928jk+ntEn88uzx0U9KSFZwdPD540ClUKSbxo9PH6zne+Y/28qCgeR+RDClUK5fHxMa2AXMdoKh76ztDRHm8Z/YDyebd8Dfv6N3zyLvnYV5bDeZnfgB68arydmykI0ZTDuQzQtPIbllUEWjEAXoQFwOHdorLiflBhAKj0pcFbQYVI/OhjR18epuOgvxn7UEFQOXN+wuGa6Jvzne9+1/otcQ4qrQym10OFBJziraTC2a+KMWj3Ig3ZFC1aB0W1LtpJPBvAm2eI8f3Onbv2fOkP+aMf/cgmcCVNsJ00RLomTT6OSFOkYzzEpKu7S0vyj//0TzZ5LXmT8128cFF+8cGH8s7P3rF4MLUOLw87pSefhwjbGzM7cA+SjIzWeq+tL1Des/W4AqAmJsYtPwFsc3Oz9oJCHsMTSZ4gDtsJSCPP+SZd7MaN6wqjH8lPf/ITua4vQbRWnVg8IZP6kpRKu3u+2zr+QdoTqGkVrycFTtIGaqnUqGSAtaRCms13RvOan+ts+4vdi+gw32wpqDWLUq2XpFIfgFq3Y/OldTU+XWbnF0BtC3QNQM0WWwca+RswYzJZFkHXT65oWGSOmG6LJxRyYveOqhoWN97ti1uTxO/mdAPQur2Yxs3Nqba9BsClb7wcu7uHiBcT2wS1RCyv3wHijF7a/ebmZgPIALWONFoVBdyGwWREf3eT6g7gNSjokImO74Da7/3e7xlwILxBHtQAqf0BtayC04QBGP3fPNTcC2quszAFOftR2Lv8uAlqW/Mxv3lQo78LRiVnFYKGkc87T9qw8KRRGVC5IirXraCGFwxvGBUjlYa9zStcMSoVUGMOLTyOeEB8x3K+400D8Og8jafDQE0BzUwrJ8IG1Pz8UUBj0JMV9YGfhooZ7neSBzU8Og7UOgYPPF+atMkjHtTYhzREmiW9P44AGNIxHljSMiOF6YS/CWo3HKi9/6H8DFD7oQM10uaDQI14+XyEcR4gjZafiNZXHkr3A9TIU+T3+fkFK2O4HkCNfGr9RfUFijhsJ/KmBzU8+Rj3+JOPP5a3fwqoXbcWrOOLxx2o6bm4tse97+ihIThPjvOiOeOBM2kszWdcEJ0fmcOL5ZNYD5RC6963y92J/ek8S5NdSi84a9NwGGVH+pKINCXRr0iip6af8W5Vuo2S1CprUimvSXVgjWpZWvWaNLWwqVUruq0o5VLRCjRucl1/a6k1a1VbK5C3Rwp8RpDVaOpo1qTXrEtTf/ejyljHj32ZI4VJZRv0kdNzMKIKY+kYXLu2vdOSeqMuFf29VNRzltalUtTCr1rUTKOQ2W4odFatAqCJorjOwrB6Dg2PbSz/VKtonPWYisab8Bu6rdOoiUZcIt2aYmldYiyM3tcCVf/WCOtj6KhpZvBm6OjglCZqt4D7ACx5PgNA67OfFcocw6i4UEAH7a8osPBG0bkZcODv7QS4UHDSf8RPZssx/EbzJAUqHX1pnuCtnqYLmiloihkWBS3wQadhtuG9YpJcypLhYokyiv49xGdmZtbO+aUvf9kKbKAFz9Nbb/3YRocBQPTpAhYJh3gQNwCKa+N8hOehjnPzSQXJb96AJo4njr6MpCC3ykm3A05Wseon+xIG56F/HtfKcVQUVI54T6iY8aL5qQW4v0yJQFMmRlhUcmzzxtI65HkqHqCUJmQAkE8qVfbZqWINOjilM2lNN8zZN2rfd6pDqWs8nPPJ86KPGumDJkPyDf2wyDMAN3UNx+wEOqQpAIV0T3oh3W0n0ih5kbz3kuaVRT0H+Ys6EvgnDX708Ufy2aXPpKNwNa95g3wC1OG19ekfT7JP5+QbfuNavdHSFCdfap7FuBfkUc6/F9F9gGsD+nLZnIzp/SC+rMFJeExtMpwvse3yJXHnOPYjv/BChPcS8027NPvS3/TsC2e1DPmSddPwL3T7oYev9VlsS7sbUxCD8h2oAWmMKGSes263oYBRExYBd56ihGVyvDiMhPCLh98bYc4EEjBnC307eIMEKpSoFSbckk05fbPgHHqzoj2Fs4YkAbR+U6IKJslIS8YzHcknWvq9IXFpSKRXl7WVNSmulqTVJFw3qV6HYcftpgJXRYorq1LSt0slHIsDcSSu9H0prSsgMUJFYS8aVQDV/4zmB28vy2v6xqmJni3pVEJS8Yg09QGxuHipXJUVha4VhbNsmnngFIh6LYOuqsIk21ZLCl1aaGZSmnj02Hq1ZvMkFYtl275ma4V1bdLbZLRj20rlmlYaFVlbdVDX6mp8NfN1NWwgrdth9uRBBrRb7ICLBMczwrPJvee5xBV8ub/8zT1h6SwYDTjm3ru1Phn8ED/QRdm93BqfD1rr0/ULyGeYjPjetT5tUXYV8ef50L9oL2t92kjfSc38moYR5xpe65OwGpqGynVRC2t9Po6oKIALKhSep+/PslVUFhTsVDZ0bgecqHAoLClEKdSBNQCEwp+KiG2EBVh5UaCyDWh5Q6Hu9dffsIKTPiOAmS+L/CcFMi+Z9JsBsHiZWde8zshSvFPv2CLrH9l3roP96TtH3xa8C7yZE5Zrgrpj+5D//HbivZMoKz1AUeHx0tjQShVYpcKl8uR8xItr9X3ReJP3FYXvsM124sWIOWCWJmPuG/GiUme/6/pp5aoaz4J7h7eN8/JcEPeO+8s+QU9OPAuavkkLV65etvS2HVzx3CijSDukPQDNv5jgReX5MyEzfzOq18MFMMWz3ir28ytckH7IN+TFrSKNkyaAFgYD8J2BLsTl5q1b5lFaXl6SYqmo+xQ0LqcsD/h8zH44RkjnGJPZ8lJxTtM55/Vi4l7yH/eh2XILyfMyxKhk8vFuxYsIg3+YS5CVAmiCPXp0UfPkK1qGnNI8unN/QM7J86A+4TjyF3+zP3HnN/IUeZ18w73gOdgAhTdel6OLR2V8bHzf8tBDQW3FQC2hv9HBVEHNlmDCQ6Nvo1r/4EkD1FgEHChgxQAKvb2CGqDgPD9JBSA64mUU0JTiFVwSomCmkJbsFSWuMBZTWEtISyGtKWmFtBgT4ervfY3HugJNab0sLa2sO4NpPNqtuoJbQ6qAjybUqhbqPVsyinjq9enDALjK+nu1uCatWsW2M2mkjT7VxNJoaAGpFQ4wxTY4LKqwV69rpaMJDqhie1ETWUqfTTyiUNPSc5bWpFZatePWKyz11FYI62t8NQFp4cii0njU1tXKet6YtCUVbUu0q2GWNFHrMSUFuZJCWrVcsiWiFD31nulbsYJaX/fjzvb1/vXtHg9ATSsbmlf5dE2mcX12+l3/A2DtvgxATdHD9gmgFkDtIERBRuFG4cd3mte2a7bkDZsKg472ABuFN5UIaQBReQAQFPq8EVNoetCgIPWi0qIpA28XlRYeAMKi0NxaMPOd31gpAEBhIWUmsV1aumsdoq9cuWwwhOcC4GRfwjKvgsaVeFKJUKGSbgBGKiPewjk3sMSb9U7i2rgX5pHXa+EeISANICVsrpvr8U0v3ptCPz0qCuJFpc19obKlsuB44km8CJ9mKoNl3ZfwuEfcD87HduLBveB37rG/X0FPRtx7ni+fZS3n8W7S9O7Tvv9E7Ec+4hNQwzxckx4XFo5YuiFN8MzpswikESbw48XLBM+Ylx/SDcuQ+Reg7dIsaZ/04ftpcjy/ESZTvrDgeVvrfbIXaZcXLsIlXXIMZfNwOid+xxW8ADDO68U+tEhRt1LvcE+ARyANjx73YjdG2uccnM/nX2Dq3LkX7ZMXsp26H3Es8SWegC75jvuNyC9cM0bY3AteqMhzXO8rCoKUW95TuB/aBagpsHSTaoAab6OuoItpBccQcmQuRr1gJqplQlrWzXSgxk3eHaixjmYykbaRiXisAMBot6yAVpR0b02SnRVJdVcl1a8pyDQla1ZXcKtKj47ytbKCTFFJvGhA1mywbIxClP5e04RfLa8riK1KpbgudS1IWwpRzbq+RVbctooCWmlt1cJo1HV7k1nHdbv+XbXmy1WFJedt6+u2nobf0GM5xltFEwKQF+3om1FDjx2EWdJzlvGmaQXQU2AUBcpWVd+gNT5l3V7W/ThPWxNmRKGy16havNZW16XI267Fuazgp9sV0GIKpQm97pQCbDbWFQZBdPUe01/P31u7v7bIPM/PQdmGAWkaR/oA6k66L2LEqlZYmnHHFIgCqAVQ2y9RwGF4uoAqIIPCb6uAL9/8gigEKVx5e6V5AdigwKXyodKhGZKw2Ab8eVHR4FkAWIApKgIqLioVbHtpWaVpk2XraBKhYuHtG68ABTuVGF4+7yWjQqQCIlwKasLl+qjguAbzFJw7ZxULBfaDRBr3HkPO6ytcjvXNJ75S9NBG+EAglSFgy6fzpFBRu0l7iRdhcyxxoxmVMP28aRzP/nzyG9+5V75i3fleBR2E/LMCVEjjpGmePdDgAX5Y7Eueocwjn5iXSgGOl5abN2/J+fNudC+GN9U30Xl5uOP5+zTk0/PD0iwAxPlJj6QVwJ5wyG+kJYw06r1zxNMfQ/j+3H7uPp/nkb8PPj8AkqRp0j35gXuxG+O+IdIxQEq+PHuW+QJP6vdJPQflgWtu3U78zn3AiAegSJ4eNp+XKG/oogA043HkWG/7oYjeFF9TW2XVocJpd+X7b12X7711TT65qhVyMyPVJu57TsobKBeA0ddJb4bCgPWREhKT3iTmQWvjtWFf17EdwHPidAx3Zb3KhrCoeLdXkXSSgQgF26+pIMMggkKkJKPRomRF32Q7axJrr+l2bjwUDBS64QSUJ4AjENDvcx6/Uj/nYN4Wf8PwJ+mnjcp0cQAX3Q0lbmzlWGLptvO7Pxb4cIMEGD6vx+nnpnS7bmNAQTTCcYPtnMPOw4AHhQvONTiecFw8LUQzfndG3O1w9zkYoNDRxI71gLJYViLxrKz1JmS1NymVnndXc02EZZHXv7EhWXjM+eL7oQDf+rZkg0EKcnI+J197OSNfe4kMi1eTGDNPk4JMG1f6mlaYq7K8SnNuV60nt8sit0pRuVtl5GtU2movHRuRX39tWn7l5QmFJNZWBQQ347K6WpSVtXX91BeCNawo19ZTcnU9I0uVhF0nU7XMjSfl+FRaTs5l5cUTo2ojks+6goSJPysMCcfzWHKj4NbXS3JlJSpXl2NyV+NVbfUUInsKjlmZHc/Jibm8vHGmIG+cHdF059IlTQ4VDaNcqVuB57ycVbm50pebqz1Z0nBWFdrWG5ru43kbzMGt7Q7Sb0nPUWp1ZXE2L3/w9UX5t984pufKyEguJVkWeP0ci4oHQMP+9E//VP7H//gf1tl5qyjgfAFIoUzhCFyQRyjkvYA+Kh2MJkA6MgNtXhSoDPHHfEEKoKCdCk7Cx0gHeNep0Jy5Yfhuvir6s7iJPym8qXz4TqVCpeDfwjHCooLCHgQ8XBvXg1G5+E8qM4wKxl+/D3szbq4pxlcmxMfHyf/m48XLhz9m6z0gfK4B4xgqQw+IQU9OPCeeM/0F6X/I7Pl8J33zgrJVPGdAyIO7f3ngWWO8xHz44UfyyScfWx7ESF9eeJU4DsD3k82S30hzD4N0n079uTDiTprhWJ8WSU+kK8LcLp1zDaRz9vUa3senX8Imne5F/rzEh3xDHDkfAJhOwyQ7lwecy5/b5xvitFUc7/MOYZNv+PTb9ksPBbXzCmpAWrW52WYNc+F9iWmlC14YwvRxZdY1DE0M3Z60u1phd3kL3C2o5SWlRvMc3h6sIKsyGlmRXH9VYt11iXUU2ICYQb8rP0u3C9PJuTOdZ2lzu5NLRDw41tVz24iHF3G00ao7hu2OfZSwXbw4druwOdZv3y5syN9td9s60o9oPBUYIvGcLHcn5W5nUso9rdQ2oGzzG18MUO/R5nVZCtD4M8UKsAao/dLLwJoCyTagtmZwtaZgRd+6jiwXOwppm6DW7EWkpfbSsVH5zden5ddemXxMUEvLiemsnNJ4vXiiYKCWy+r1W2ZSCNsHUCNDVmsNM1za9AdcLVYCqO2DKHAp6CgsWS4GYzQYXjXgjUIYUWDzdu3fsPmbgm+reFY0MXIsYVCJ4X3gGAwwY06kX//1X7ewgDTe4Pcq4tXRl07Ox+z+FMYPq8CehHwl4ivGwxKvoP0RHjHyByMneaF5//33DNY8EPkqm2fuoZo0DnjxyT5Ahfc8c6yXBwoAir5jeIfxEuNRw2s8DEyHSXgKfXlB2vfp/0ECOm3wgH4aOOp1P6v5ZJdNnwk1P5TcAQD79rUy5mZRmdJp0TWrNZzHp89eeL521/TJvhayHsfNZMRnOtqStFQl3q9JXNoSj7TNSwS4EB5Buu/OOA6Ycedy5vbz2902v314mz/efef37cJ22x4eNsfeG/am+W3Dx24Nm302j/Hb3PbBNoVCm3ZErdrLqGWl0afZGKgyX56Z+5dj7Y/75Pcj7/P2QVPgeD4mR2eScnSaeWD0edjBm02fDLygIGi3OlJr9qVW70q5Kdb0WWkBaSIN3XdiJCkn5xSMZhjB++hNn4VsUuPEUlpZmZ7IyMwkqyt4qO3vS9MnIt1zPsJrahg1tdD0uT8i7ZK+eKunsuA7FQqVyXCBSwFMoUyBDHxRaXnv2bDxO9uBavbnOKAMrwIeAt8UiFeON2jO9yjiGZP/iPNwHnya2iwHXFl5WOIVtH9iPjX6OdHPmjROvyjyyTCoefE75TF9I8kTPn+Qt3hxpUz0AtKAF5o4yR9MNssneYe8Qno6jOL6uS4853SB8NfHS9pOxrQljCDFE26AqnB6WK/vYdpjrF0CIaH0tFLqdDSBDKxl1jGPC2+h261Ft1VavJh3jso7EsHL1tYfO1oJJ7RyphkuY31GaLrkBnuP1WZB5QDJOs3bfq4PnYU8KMT8NredY90lu+2bx25u34+w7z12czthc7y7ls1tW8Pe7th7w/a/ESL3D6BygwFcpWKVoX3X8B5Uhutj4nma4anr0WzTtO8GSgN42dyHBmDnUWUIdVTDNybXbS59KNApuNP83ebNxzyAW8LY0Vxc7MsgLKR3xe4Rg0027pXeJ9tj49h7Tf/R7cPh3Gv23z3HUCHrfTTPCeHrXoMwOMIdF/QoIq9QQeAh81NNMFs6HY5pGvRv+NxvKhY8AIx4o7M801BsNUaw0UGavmt41vDY4VWgfwid/PEQ4FWjCZQK6VG9BORFD5Vcgy8bDoNc+eM8aYcpXkGPL14saJIknwBR9H8ibQNu5BWfHhGAxssPYEKewANH/mAADFAD5CH25zjCJk8Mv9TgWaO/GOnpsApA5VoANAb5UEbgLXyQ3bpN+VA0ZwD3ifLlWdUePWquQHAFGA8eMNBAgARNN3gnDKzUhFGIWoNv71FzYSTjbhmnybzIwpRrkqLZ7ehMWv9OyXiqKplIWRL9qsSkpZHD8/bgm20FmEbKJ+Rn+eE8SAYVAxgrjI3L7NysHDsybU1vx2ZzcmRKK67xlN7bhIFcq403bJt7YY+F58TzU4t2pZDpyzQL0etzYVQsFSEeKwYQUCiwMDXfq9WGrFeaag0pN7pSbXal0epqAtI3GbWZXFQWxmIajkKVzfPGVCkuLIyRsmW1UqUqpWpNimrrtb6U6n2pE06/ZU3qhXRE04laWmyN1VyKFwXX4R8jLo16w6Y7qZbLUqUJtNrTcHpSbwONbph2NhkRurYR3kSB5cVYesXFh3B8Pw6bMqVUlWK5LsVaRyoNvfa2xkkvodnR9BU8ao8s3v49/ABnVD70seEt3wPVdl6DYVF2UOHQnEkF5iscmm7wpAFpvmILEBP0rIq0C2CwMgZpHSPdY+Qh8hL7DHuktxP70CGflyQ6+5NHWHf2tddetd/wpPm+ZIc1v3CN1Om87AGaXA/NvAwy2MkWjy5avci8dBwH5D6r5cEjNH3i3cDzgEfFgRqtUAn9DUhjVmU8Hnhj8KRsD2rue0YrzsmCyNx4VE4ooJ1dHJFTC0AGC5Ur/UcV0Dol6bcrBmm9DtNJPKgA1wvSCPk3DvZ9WCJ+VmUjbfUZ0OdrenZaTp1clDPH5+TYTE4tKwuTKZkbS8hoNq5w0VOYUjjST3fvN43/7H8NLxHpSizSlnyqa3A1qsAGyHQ7XQU9BSJAZgBpjPikP9eagtqaAlul0ZGGglpbwSiq+8f1uAmF8OmRqMG4WH+9ngIWHZsdqJXLbk4dB2oKRWplhatKnX06BmlaVNm8ciMKV3kFNdZozSQUOhW8mDqlZYBFZ0+NW7WqkFaSKtOZNPpSbvWloYBK8wEGpCk7WXijrPGavRfU/PUxJx6gVqrU7bqqGpe6glpDIa3ZiQdQewxRGVDR0H+ECoICFUijoiCvAmmkCZoydxJ5m0qLApuKBkj76le/ahUQfW7wRrCdMIOCnjVRFmOkc+BiampawWRa8w3eZ9d8B8DR75M6jrzyoHqR/ckneM7II86j/cvm0eYlifw47KU7jKLcwGtOmQGk4QHkZWwrnA0b+/CyxvX5Zs9nFdQeaTABoOZHfUalI9G+VqpaCesWDTFmfXzqzF2mnwwmcEsW+USwmaBGsn1ZGO/I/HhXjs/n5fiCFt6FzWVV7ly/IjcvX5SlW9elahPHFq2i3yoSWZJFyzVR20zG+kBpn66UK9a2zSlt5OXOafk++cziH6w1gSl4crts1mQ9VzLlOif6BE5Fg+E1wgAc69f1gErnUcU5qYgSzEh95iU5ee51mZo76por1QAP+mqtrDfkZxeKZniH9MpcAF56Xxi5G9FnmIk1zYCrU3NZNd5C9Bx6fzmsrZVou83IMwda1UZLlst6DrVSra9/R6TW1JSgp+l1+jIzlpaTR3L6XLVizqYkp5aA7Afi2WBlPGnmncODRd+ymKa3zUJjvJCWqdGMhqc2kZZZNT89Bw+1pXEiboBaeb0kFQW11VZCVpsJKbej5uVrtnpSyCQVXFMaVlqOMm2IGl5hF0zPwiAsPIV400qVhgJfV4pYMyXrrbyGl9cXEhYlZoQyQ+fDYIJHEf1mbNBGsWhNNkwfwCdNGqxjyXbS8VDxtJEfye9AGiPe6ECNB42pAXjDxoDAoKDnQdQd1CXkkwsXLmo+uWAjQTEmL3YvzjWrd3z+IM9QD1DS+/yCJ41uAeQVmlJZ8Jz6g0EyhxnQgpweEdREK8qIWZSJV3tMuqq1M2tLRtNa2dEExnJKCnERFkVX2+gOx+kcLIxmRRYm+3JkQuTUkYycOpqVydHNt+CbVy7J1c/OK7Bd0wq9rOBV3hbUcvmcjE+Myuj4qBQKeS2oC1LTyv/mjVty6+ZtS+z21rFd0982InFD8MwTx3eTHurDYQmKiakJmZgcU1BSYNMET8iuom/buVl2yjXJMZnugz2Bj6JhUDt57mU5+/LrMjN/VJ+fZmw1YApYWyk25CfnS2oKatX7QQ2vVbTbsAmDC7GyFKJlGU13bM4yjPvA7NMcxrX3ugqhA/jkOddtQIGeT4PWr9LuaEHBfVZuB1DGRxIyqvANWCUVcIcHE+A9wZoKfQ09uKFw3WhrJa5wRTherPKQTSdsMEAuEzfzgwC4rTZ5MdeNZ0zvNZMd17sxtag0u8CUS9fEIa2WTcVlJK/QptfHS4cLZzCSzq4Lb53GSS+qxvPUuJW7OSn2pqXcm1JQH5dYfFzvCR65AGqPIu61HwnqR2/SEdp3BOZ30jEvOl6kQzzm5Dc/oos3bLwCQBu/YbywBQU9D3Iv/7x4NyyP+FHONs+afndTRzS1nnJeJ/KI1QEdffk2SGP90Lh5mOiXRl5hPjHWu3zQzPxBh0uPBGr0tVY+sBn4I/2qHljWmk5r2GjBjBF2LJVEhReJ4HXa7N+2CWoRGc1F5OhkTI5MReXsYkpeOJaS6bHNSu3qpQty+dNP5OY1FiCuSKVUuafg9ppUaDpybF7mj8wNEuG4TXz78YefyPmPL5ibGOttc+x2IuECQICQT8TcJsLo6DWNK6AdP7koi8ePWts3xnbfx2l1RSselrLSODDRLZ693Qyu2IuGQe3sy6/IS6+9IXOaEZsKFcCib15cXm/IWx+X5Edq69uAWrSnkNYpSbxTlvHoikzEViQdqQ+2fr7FM211W9LutqUqY1KOLUo5uijRxJQZ3uMAavsnPAd4BzBr1tb0S/9CLzwDDDTCy0t/NoDMeQUYdLPpqQ0Kep4FnLl84lqt6JbC4DLyBmDGb7xo0j3G8ormE5r/MPJL0LOnffSotRXBNBFEEtYXCu8Inzt71CLW32h6tCvTI105Nh1RExlTePNaun1D7ty4KmtLd6ShCRPjDWOrRsdGZHp2ymxiYlzG1Vh26cInF+XihUv29o5t51FzwBM34FEqs994AxkdGzWjEnByoEaTKjOXj4wVpDDiJgfE/JsJhheNt5xqtaagVpYyi7MPQJP+VPshzuNGKMZk4fgpOXrqBRmbmrHr5G3Kj8Zdr3Tk/atN+eBqw/p/DY4efG4PaplIQ5/Z5+NNy42idZ6adNo1nXP/8MzhkaQpFCv3R6QYOWIWQO1gRN42DyveNH0G5lHrbXrQ8RbQD5bKyOc783zr71hQ0OdB1EO+NcK3oABl5A28ZC7vuOWoWBKQfMJLDRZeaJ5N7V8fNbWezYvWVUDTiq4NKLDvdn3UHKilEx0ZyTZkJNOUmXxLrSm51GbBXC2yxNKS1Errtm5mt0UT4v2glstnZWzcNX1OTI6bVcpVuXzxily+dNVOuVMfNRJxNpeRjBqLyqO0VtbzR+ZlQc2PROM24U1j/U/rf0Yne61E+B3jTWVzJvKYgQ5QVy4WrS/O7Zt35Ob1W7Ys1H7Jmu00M45OLcjozBHJjIwbjPIccR4y6TBzm11a7sulJTcX2KYchG0LatGmXQNTYTzvsolM1XjOwPeoGoDGerHlYkXfTOvW7FDq5mVF5mVdLYDawYh85Jp6XHPP1jzLewOVz/BLkQc0vgcFfR60mUfIH/f2R8O2+82/0IR88mzqEV9DSQiMDsWi0u3HpYMp5LFGZ5cRmgpsWtTaf9vLbWOmfdactAXUB012AA6jB5mnTV8WNCwS384JjDcIFlIuF8sGQstLK/aJa5jmTpegBzsPRIIl4do0IwwOSOFNcZbOpCRfyNmwXqCPptWp6Unz2M3Ozdj3wkhBklq5A3qW+DV8zgXM6Q/29mJ95/T42flZOwaYzOayznvH1Vukdro/D5c/3M1b5kYv2lQU5ongGUXU3NJT95/lwef1nqbn3WK8bepzzCrssyD3/JEFN6R7fMyeVSqVtjdVVsxwE/8GHZR8hcJLD/mRQUGZzKbxN0A93NzJMaHyCfo8iXLLe8nIDxnNFz5v7PSbzytBz6YeAdQcYNiEt3jN1PCe4YVrKqT4vmnAkd//XijYTCz0dcskYzKaTcjURF6OzE/L8WMLcuL4ETl1YlHmFYrGRkZ0n/TGyMPtxFQNzG5Pc+fy3RW5cfWm3Ll11zr07yQWYLapPJi0VRP+cOC8jeBWrtYYEMDi7jTFuL4yZJB0JiMjo6M2bHpqeto6aOYLeRvlubK8Kkt3l+TO7dsKiysKTT3dVpCJqUkDtlm9xnze5qswSHWwtncNV2ojeu45hcjji/Mbdgw7Oq/3dEZGaaLVfYPuF6CeYsWCQtZg+ujRIzbsm87pI6MjVti59BEUFBQUFPTktccayEEFcAGAAGlMpMroP0Ct0WJajrawQgFLDW1qO1DrO1BLRQ3UpicKcnRhSk4cm5eTx4/KyZMKarOA2qik8WooIOm78+DYe4VHjQlPWetx6c6yXFdQu33rjjV/7iR7K7H+Lv7NfLBBRfMhoMboza2gxr68rRio2WgzQG1GCvmCxWN5eUXjcNdmUF5bXTUYY/3BSQW1uYVZtRnJKRQoDu4LqAGaIwpi84Ca3rsNG8DaET3f6GjB9g26XzaKMJ20Z4LnlEWNGSEFtHHf8K6yDElQUFBQUNDT0CO4CobBwn+naW0TwIAQZqJ3k4F6A3TuBTbXvMYUEKy5yKfrDIkDgxCjUaynQEdnST12e04zATzWP0sBkaY/miEfBEGAC3Ov2bxrWhlnsmlr7sSLwiABQI6mU0aPLt1dtmk+rl65Jp9dvGz93m7fvCUrK8s2ypN44WUbHRuTGYVLPGhApU2iyiSuCpDEi8VhJyYnJZdjEML+TMDH8fRVYyoR7t2G6T2MRroai44+ZP2P0beR9KaxWH40KxH9lEhKetG49COD9VY/RzLIZyH29YrcvbMkVy5dkevXrtt3Fnev67btpoQJCgoKCgp6EnoEUPMCgjwIgSUE5Sp51wkYUGMpmE1Q2xwIwH4cQ78fBZZYWoGBUZebqwkwNxbHRSIKGgpqrAW6nwJm6CsGoDGYgAEJANrYxKjBWiwas35v9HW7e/uuXL96XS4ppJ3/+FO5+OlFg7a7t2+7ud0UEFMKauOTE3Jk8agbLarg2W4yp1pViuvrCo8d6/M0PqGgli9IPMG0JXhqDgaMGNTR7+r9V+MxRRTGolEAbRPSYlEGPiioRRXU9Dn0bTDF5wzUmAeu2pC1lXVrMj//yQW5eOEzuXH9pjVj41UF/IOCgoKCgp6GHgPUhuXAa7OSB+CANZr2hj1qVHgAl7OegltHv9L/vtnsWj+zqsJRhRnmK0xlURdmwu/aAuEcs7OHbK/Cm8W0HKwukMlmrI8ZgMaSE3Qk5zc8fJyS4c/MSwO4MSdasVgy+FpbW7cRncyuz5Bp5qzhWJo6OZ5mVX4v6z5tPZ5OnWxjZGgmk9W/U3qOR29W81DL4AubDkTjt2FVPmsWZ7bzqCMRBj4MTNynmGkc8Ow9wLtnnjuFW5paAVzuG8Y1ci+5Dn6nE7itZsB+icFqEanUhvG3P4ZP/iYcjh0Oezgcmic598YxbBs65p6JifcoIKzVaEm1XLNBKHjTbt24Jasrq/pbxZq993sOvKDtRXq259FyU3S4yTy3N/IV+5on/QGe86Cg502U+XTF2U0+cVMMbeaVoGdTe5yeg1397sMVI4Ulow1LClUl/e49EFq5R5ISsXURsYT+sjnhXjbZl/F8V8ZzXVkY78nCRFdGMpuJqbhyV9aXb0l5bUVaCm3NRl36mkj3Q/kRmjnzgyk9JmRSLZMdjPIbAFa75ZeCcp+W8BWI+A444iF0I2toNnVrFwJqeGEqrEygwGmT4CowcY7p2VkDmgvnL8iFTy7IuoIec63Rv26vck2eCi8KKZPzizJ95IQUxqcGW4FL9yyLtb58cjNiVmkONqrMAwrcdGtKyqsS7azIRHRJJiJLko02NJ6uKdrLNRU7gAKOuEeEQty5L/ydzqQNrrg/GHHkd/oCejEq1R/DveMYvJv+GM7DMYywtPmABr8DmyRVfwxpzrbp71YYqT2O54t7aWCo12erEzR5/hqmrXrQkXKvICsyK6v9uTA9xwGJ5+cnvOXZ8jeV0lbxrDYn8GREm4P4oKDPg4CzukGYq4soAzdbqzZFWcqodrrZ2MhpLTtduR30rOkRFmX3AtSGYQ1wYZ4zaGAI5jY8Hfpbn+9so0LF2tLv1rVSrEm/U5Fusyj1akmKpYoZIEP/rkatrgmSfV2H/v2QTcWRSUkun7FJchm5OVIYsf5lLENDPzK8XyNjIwpfANi4jIzo36MFgxVGeNKHDdBaW10zgGP+NTr2xxMJyeZzwvJSDQW19dV16wtHHzU8SPzmPAL6VmRLPQ0R1J6ER02NSYZ7UanU25v3rqjxKjVkrdySu8WurNUduPGc7Fnp/TcvZ68u0V5VYgpsmYgzFmd386htVn7MN8Zcc/TjY9oRlurKZjP2OLkOCgImHvaLYccTur/+xn5MZUKzr01NotsoVChcrKlZQZkwvecMbyPPgM9EcuBNi9JMzuCJqD2DcT2GJmuAkd/sDVPv53aV+m4FBNoAmZZbfcLC0t9cM35PWv2U1CVvFollzVxTPd7isCj7fohKhwXZWSYHTzXfsSqL7Q8ZIEfadJDm0kcAtaDPi4A0Wpxo2SmXS5pXitaqszWf4CRgyiZahOjKwwoFAdSeTT2CR82xl/PobIKa9UHrsXKAGt41rehsJYBBv6cYgwaiFKybwJeMdSSfZJLblq33ieFR4yzEqry2LKWVOzbxbbvZkI7adm8OuxVx9p6owmjeJjidmBqXublZW8yZwQ02G7pW2FTUjMp0Hh4FjxhNhe7acTnjMatWWNOTDFKxDMCca6yKYLCnxhQmy0tLNgo0q+AByPCGQ7Pa6vKK3L2zbP3fHmUS3OFrGZs5IuNzi5IbnbT7wx3sML9dLyblRkQu3OnKhds9fYYbj3pDrPEZba9LrFO8Z8LbrR41vGkGYmpcK/eFpAOo4kGkWRMoo8nXvJFqxA8ww7zwpq2vF6W4XrKwmKsO2KLgob8fXhLuXULvufeu4DHDu4lcHEb1m6bTlnP7MzEtS3UBWfsqvb7gUTsY4S1zTTNurU/W+cT8eobkMcBtJ4+aea/Hxu0la2Ji0j55scJ4GQoKeh5EPsGArnXrbrMmd7VOYa3P1dU1LWe1bNSydruWJspoW4s6mZKZmWmZnZmRyUnyyoR18fHleHjJOfx6pJUJgJV4PKrQsQlqETw1dP7va8LRAtbMPGCGXda5PhlPSTJBs5VTJtGR0UxLRrMtOb2QkVNH0jJRSGjFp3FRyFu6dU3u3Lgsq3dvS503BAWCx/GakCBJmHhp8IxR6QNX05qIScjmHdOMwDQfbgUC168sm8k5gMjnzPDkcNeI4/r6mnn+GgqR7lpFZhX65uYXrJmugmdAw/OrGGxUUGqA2q0bt2VladWO24uGr+XIiTOyePpFGZ+eNbjEALWOgtp6pSc/v1iSn39WllLtfo9kpFtXSCuZPQjU8Aj6VR8Q1+Hd7jxru08KaSm9ZpoOeU4eJIcLgu1ADa0OKmo8coyMJRy8KSy7RbMn4RHOBqhFmEJFQU3vO6DGqM0Aas+OyAO+4vn4k0/kww8/lM8++8z+ZlobD2lDxdOGSAfm7R4ZsalUzpw5Y8bUKouLi/Z7UNDzIF5kMF5ePtF8cv78ebl85YpcvXpV64+7g/J++3zC6jjkFYDs2OIxOXZsUU6dOiXnzp2TF154wXUjCc2hz4QeqekTT1pcIY0mHQYuMnVGTOviuP6R0AqeCowZ8XsKC3ipSDBG93GFNa383Zp9UTeHWk7fjgtRWZwbkRMLYzI7NSr5XNaavjqtmjSqJWnWygZN9BnaLkHuVoCDdVhPMNpTz4FZU5trzsNdjLdrRa2CS7lcVKBqWR81pvvgeLw/NG1yfGHUVwiucydeNmDDJsQtjAiLtXPtNOERf7bjNaLiZ8JdoAVPEFN47FV2LZrBuJZZhcKjx48bIOZyGQWmtMJl1gYsSCwpd9dbcmO5LvXm/X24WPor0mtJVAE7E61LeoemTyYcBlZz+mzw2NmbnhYSiP1cx388j+44/6ZGPIfFfWLgA03FNnt2Jq3PVCGnWFLgXbNrcoVHzDxpeFZ8QURaonmZ7QTL+bmXPCMGBGy3YP/jKjR97q94/ngAgPCbN2/KFa103nnnHXnrRz+Sn/zkJxuVEb9fu3ZNrl+/vq3dunVLbty4IcVi0dIiIu2QRvHuou3S3141XN48blj7qW0r5kMUv6BHl3+2fJJPqFMAs/fee09++tOfynvvvmvff/GLX9jvO+UTfmc75rsSkPd4qabeQ5TTHtSetfTD/Rk29LzmgUcANSpMLRQV0LCIedEaWtE3xGZTw8ug9SXG0kV4ZQAb4I4pNzpd13GeJXlSiahk0yzOHpeJkYSMFeKi9b1VzFhpfVVKaytSVWiiwqbDuH8gjyIeonmh1Gz+NDX6TfEGPjo+ZnGlrxSFfYHf1PC8WX8pvQbOjzcIyKASSKVcfyuaRhEAwqhQJr+l+Y4MYfdKM4LNyabHkmG6HXd9NJ2yWDtzde1Vw9cyNjkp41PTks3nLT4Y4VOB1RRgbiwBakxKzMS+iXuNsOirps8RUHN91JgS5V5QA5KAVH///YhZxLl8hufzQboH1LIKlTmmZom4Zs6qG5Tgzuugmolo+c364ul5PKgRcT/YAFAD6oDp/VYAtf0VXjSabS5cuCBvv/22/OM//qP84oMPDMxWVlfN08YzfVA+94Ux+5AmOAZPHM1DeB8oK0hD5OvHKbgJH/gnHxEMYT1OePslf93Ei0/M36/DEL+gxxPPEqAiLfPSApz9SF9kPtB8Qr4h/1CPsH23Ij+Qr8gjABthcHwimbK6kFRDOfsspZ/h+8R3rnG4znqetMerGhQGAJlaVCswPDHRXkUi3bJEeppw9LeInwqCPmnxtMJXVqKxhHR6Lak3FbradQVCfQvWio4Jb5lHrS8xaSvAcONpdux2fbv7o4PZbkTCJIHyFk6T2vzCvJw4dVxOnjqhdlKOHDlizX0kZjxu16/ekGtqNoBAEwiQxkS3o2PjtoIClwVAtHQb/QcIP8nvehk2sWqxbIDWrOv2Vntf4MIKbiu0N/v0GGAMzaNmE95uzKO2acyv1tdtbsJbB0jbiXDrdeKvz0+vjSZXOvTjSQO0HkUcF7UmdICTaTbwPCrAVusGbsAgqwWMjY/YAI57RLLQ67Z+kAebRIL2UVQwvOlT6QBp3/7/s/ffXZYd130+vm8OncNMTw4YZJAAQVJUJCVLImVZVLAtyfEPLy+/kO8L8fKyLdvLP1m2RSqSoigzEyAJgEQOkweTOoeb0+/z7LrVfbun0yRwZng2UHNvn3tOnTp1qmo/tWtX1V/9lSuhCxcuqGwtO3TFMryTxAYapYPCefvtt+3b3/62x/fd737XrQ3Xr1/38+5G6BwAQyg4Pu82vnslJCPsDIN1klnRwY9pENgSeXiF90hngzbw7Nmz9o1vfMP+5m/+xusJFmesyeii/QplAstzrHff/OY37Utf+pJ9/6WX+ta2Vav3YedhksF8QhdTBx5VuaPJBAxz5nMCEAWsaaluVT+pF5wuiwjK1uqkfWsptR9StmxzlJZCpae7ap121Qq5ISvky25JGyt3PRyfNjt+wGxMt3EM7KVs4eaHNnv1oi3N3nCHdfzU9mrEdxNo261QAjNmGzJ7kK2dDh466MEtRoo/Nnh8MrkAPyx8oeZuzNnszXmPh+s9DhwzJycMn7PLFy8L4i673xXLdOBvNTwaHJyvXbuu3y/5PqC+3IfiXMOiBrjp2W5X/FlyLJWRs0PHT9uRU2dsYnqm/6tgsZ/upbWO/eSCwsWurVS3qYjdml7dklr+ZZtKXbdphXKqprzY7KMGVDGhAqhitia+YsyaZZ02LILka0G9MyyPbtGjWA3czqFM0NpQxWJrL3zPRieCnyCyMLfogeVGfGi6VPTFh8lj9x2cX/IhYoapWQpFN1HlDOsIhTQwM/geV1TdI/FRu3uhHoUOWNtee/VVe+WVV+y1116z119/3T8Boa2C1RTXAazbWKbpSPGuAT1muNEoD8ITHaKTJ096+PjHP26//Mu/7IG6F+PYTUgDaQQU48QGlKFPZFGHy0cG6JwoTThij42yXuKwu0zQ0UNhkD6um5ubc8W4VaizPAeByRA4dvPp1mQF7kfgO7PQCaQ9Pit+SrOzsx43VmnSyvNjBKHO+BqQClgSCcxej0LaYvzRN5BnJp8JExNhiSJGD0hnYpn76QkWL4b1Gb781re+Zf/v//0/ryu8b0IcvWCiQLFfnnhnWyXqMMoOnRrKFcfiO/+lX/pl+5XPftY+8eIn7PTJU1536BzvJJQXyh+BOkiZJ2wnlD0C9c/ri3QhZZA08Hzui9ovgzsJz3nw4EGbmZkJbkReJlM2Nz/nk/SoB7G+UL95Ju5JvSJQdzjGdZxLuSfdBK7ZTYiHexN4XjqEpHs3ie0U96Xukgb+vhdyB5MJMDEymy/toJY2hj4JUs4pVrfPO6A1W/RGe34eoJZiOYiOqL2rRi+NL1POcpmuFTJ1K2TrdmisbYfH2zZcVOHqpa3TS1l1WQVi8YbVVuZ9xmfLG6Y7BzVeGIFCPTE17g3TxBRLbwgIJseVrrDnJ+c40CmwzyPnk0tYk5gYwPAmgcby5OkTduLUSZ2bdgibnb2pvAiNHH5s0wdpcKe9UN68ccMdQOduztn8LNtPNQRT9NhvHzBSDE1m8wKGvI1MHbLR6SNWGg6O/gjrvGGtqzTMzt5M2wc3Mlbdrk51laftVUt1VnYHtYG8w68MaxqV2mGpjiLDFy9M/wZEB5WornbAw38NgPR11BTi0Ce/s4E+lkbOQ+lgqcOKSWCYFEhj6Jl7R782pp7jtwiQkod3A/HbitKfgNrdC405iy8D3F/72tcU/s79bGIDuN17o5FjJjYNZQQQQAXLG5YBFBYNP+UsCsoAQHniiSfsc5/7nAcmGxAPv+0mcUiIe/xYaSOwXy/HuVfY7i7le/s+9eRT9uQTT9qx48fcQZtyjBJAGXAdQ7pMjNgq1A3AjFl3OHS/+OKL9vTTT7v1j4DPHsqZz09/+tMeSDvPSUBZvyqwZfgLX1fSG/MO5XD69Gl3Fo+BiRVRSF9U/u+8844HlNX09LTn9XPPPSfAfd5HEAII7O7CkMj9E8oC/poELGAEyjxQQ3kHPgBqIAhDwaTKFG3mVuFcOh/UP8oy8fLOI+g9/cwz9uyzz9oLL7xgn/nMZ+wXfv7ndwULrmUYlkA5orzvBC9xYg9lkokLBOoWacCKh38dE4ioXzsJafl5pYm0AWvoPOS11161V9XZI54Iauglnony/Pzzz3s4fPiw/81xhpAHfV/Jj92E9Md787wv9a2Puwnvg7rNfanbBNqteyH78lHrdPERYhFSIK3vn5YFZhTcUgLMZKW3GO4MUONB8XEODRzWFEAol2YIDsWF1Yw1q1DAa5bpVd0y12pWba3StNVqyyoqBLXKqrUaNeuqkPakNO9WYi+Dwu5Dd4W80imFrPhZ7oFCTYUg/YAJL5kCwwQB/KOY9QkUzAm0Prx81X3RJgR5zFJU7nklYE0vwIMlJYA1lIfP+tR96Z0zYeH61etuBQr3uc0RaETXpBiuVOimitbsZa3W6EkhskMBPZem+6etKR/n13q2pPrQ9mHWLUHvwHoNwWVTgFZRWNvWRw2JeUcgj4A0rGlYE7GWdASd5B/PhU8enxHKGOZ1q4o+Yx57PLrGrRY6TsPCPeN9OUb8DBnzbli7zoejuDd+bgJdrmUYaKC/cU/Fh5CBwsRH7Y4FyMA/c25+3r7/ve+6heANQQc928H3FjtI1Dka5tjInzlzxuEL5eTQp8aZ6yhPlBmuQ7iP+4DqWOzRU8+BNK6N5w1KvD8KB3CkMaZRZngIa9/777/vYHTu3Fn/Pqt6Tzmkzrp1bWJcHZScd8SwpDE89ZWvfMW+/vWv+3Xnz5/3z/gdRQWc8pw8IyDJUBbKA0UC6KEYgKdTp0552lm6hok2WCKxsHzve9+zdwVaDIMxNAYUOrzq+Wl76NmjIIgjPh+WPs5F6QMADBMzZMwzo0DL5SGHYkCS9pr0bZdfidw/4V3RJkZQo57wboEK6gq/IWGpp3E7IAgBhqgflCOsONECxSeQwvukDNHZANaBmth+64Zqm2vSxOYdAuA+At927556R92gs/Xyyy97xwE3A8o2ZSuW8/cVcGMgzQhlkQ4AZRDAo9x95zvftq9+9SteHmMZjtfHwLnxWvQvrjfsWvTySy/bP/y/f7AfKA3xWgL1k7ziGYAm6j6fPAv3pANF3SLtPAf34PrBtMcAQJJ/1EHO/fu//3t3q4jAR3zAJp+cT92mXpPHtFHkPxZK2qB7IXuC2spa0wp6d8PFro2XWzZRbiq0/Pt4qWmjBYVi00aKLRspEJq+7EYh27VcJpjlO52UggqhFCrrq8ELhEy6Z+VCx8aGenbsQNlOHhm1o4fUwEyO2fTkqBUVR7pbt26rrsRJSXdC4boXwoK3rEJPfEAVDSEWHXd0dwAJi9nGHjWZj8JmqJFCDkBwDGscy1JgUaJAAH5xUgEKg22p8H2jcvC3T0hYXHJYC2BCg3j7ijw69xNYzuLo0SMKM3ZgasTD5MSwTY4NeW9/rZGxuVXdm/26/C1vBAAt1an7empDgrSSVXYEta3im+DrGaIy8Bj1PUBpOBaFvAGIyQd+47zBY36ceGgf9BEbLc83vyY0Ui76fdM191ESULt7ofGiIaNh84ZdDSpgs1UAjNgj/djHPuYWJXqlKBEabBpdGsATJ044zKE4gDWEshAlDkFQMlhk+sD0ASmrcZW3zQqIssP1AB4NPQ04jTFpA8JopD/xiU94zxoLGEuAEBf1FjCiDaF+kxaUEu0B8dCQA4w8w2cZWlIczzzzrD0mhcpM7Gq14unjmfgElFCg5NN1KZprUtQAKtY2lA6WBwDwnPIQoBzRM/Hbz/3cz/kw7zPPPutQS5qxclBXyANgK7RbPbfSoaSIh79R7OQjeUreodCHBGtcw6x8JlntVf8TubdCGaDcYDVmJjRgQdmgnDtY9YWJbtNq848IYJ5Wufz488/bSb1LAI26gjUISIjWZICDeOkQ8BmF98u7pwxS5wAijsXO0lZBDwJW1GHqDPcDEinn1NPnn3/By+IzzzzjFl7uxTWULepttMAtL6ucX7tuswIb7vmpT33SfumXfsnL8mCIlj7Kel71gE7FhQvn9RxXpavXPF4sZ1xLfaE8cx+eByikDvDswBJ5ShtEXvJ8XIsVObYxW+/9yU9+0u9PG0B9oZ6QVv4mX4FA2g7yK9bzT33qUx4nbQVpjufdC9kT1LDODBdUkR3SWjY51LKpoaaNCcwc0AC1PqDFz2K2I+VEQUhZW5BWb6as1WYolCUdULwp3SflIDc+ZDY9mnJIe/zElB0/MumgdkCgxkSFdkMNYF29CUEaGXOvFDO9YIbusM7QMLMoLVYgrGDcB3gLMzJrbs1pt5qCtLw3/GQUBRDrGMtV4IfHy8+rgAyPjLoPFpMNqFxAGovgOpKgGNRwAmlY5OiZ3ymouYVSkMYyJ0eOHFZv6KSdOnnU840woYwdHw2+OfOCtA/nG3oPVHYU2kZg2BoYzihgUSulavsCtQhJMSAoCIewPohtFY5thSvfimvL+T5sq/MGA7J+n348H4UkoHb3gqXpDUHaD3/wQ/U+33doiL3tQaFRQ7HQGNJQ0gDT+EWgodFFMdAo0+BieUAZUBYGFZkrIJURzsGqhNUBawOQRpsUYY1yhMKhM4Z14O/+7u/sH/7hH1zJAGUAFmn41V/9Vf/bfXjUbly6fMleevn7UgDqFB2Y9vOJh/YNZQCo8TeN9+///u/bp6QMALXjUiRsK4fVjjRj5YvASVrIE/KG8JQaehQe531PcPW3X/mKgxyry/M8KLDf/M3fdEX11FNP2yEpWqwYWNp4Huo9cRMvsMeQD1ZCLH0oZa4nL4nfwbRYUpsSZlwzCsCWd7RpiXx0QlmOlk8gjQDYbNV7QAaQRHnk/X9GwA6oAykcB1j4G7Dgb8o+dQXLD/FHobyixygnEdRiJ4ewVShXWHyxNFOHqBNADnWVzsyLn3zRy+zTTz9jK6srbm3Cl4z7E380emAAmb15Q2mZc6j5R//o1+3zn//8LbBEID6Ah/p0/vw57+xF2OL5f+VXfsV++7d/262BtB10VoBb6jP1i7aENoB6SSeKvGSEizjp6OAeAaxtvS/AxbV0HIE04DfmKflMe0Nekg/r9VxtFc/DecTPfbYD3juRPTVIJq0GpdAWpDVssly3qXK1Hyo2WQphwkNNv9dseqjm544I4sr5luUFbel0sKzxULGRdD0rRceD0ECXlcFYplgHbHgIp0COqdAIgnKCEW9g/cp7IxRSfJzq/WE3/JwQ4I30sMYXgYaLoTu266CwIFjVwtIeatyUrqaAjcVXkdCTDcO/3AMrYpig0LcQueLfqHR3I+SHbu8gQF6RZ+uhXLAhHSthOVR6fWg6pU+f/YnzaQjswWrpvPXcvzAMSe8lpJ/A88Rn2e7YoKz/NgBlfk0/X7Y7FoMfG/h967FEHmyhgb6u3vw777ztvXr+3kloD6hDvGMsDHG4hGENgA8oolGmIaQRpbcch2uiYEXCQs519MJXpOyou20s8gPCPVAcKEgad+IHWhhm4R401igKAr48/E2gt8xQ7OHDrFsYYIt2IrZtCGlCQZ0587g9JbB84skn7PSp0z5USqklD4J1Icx0pSx7+xjj6ZdzzrshJQv8RfCMPXYCAEjanpFyREEDs6SF50ExAX3kIZDnFg3BIGlGmXA90Mc1VKW5uVn3Y4vwm8hHKwzt0cGfn5v3d8X7jh2AQQE2ogWW+sR7BsIAPCxHXAewUFe4lrgoR1vfKbBB2aMcUl6AOeKMem47ie0uoEQ5og4CLtRHIIZPoAwdiksM9yatTaU53j8U72C4oZ6Mj407ZAGVg4F4GbblOTiPa6jbPAvPSLzkBfWFtHB+9I0D4ijXpIPruDf3o24AoUBUTPvgPSOwkh46iFxPPaY9iPWe71xHHpMuvtN5pF7yG/cHpu8VpCF7g1qq5xayEcHacKFhw/m6DeVq24aRQt1Giy2d17RStmH5dNPyma4ehskHGcvnlElMLhDIeKPEMh6+tRSZyTovwUE8BncQVybfD8GviWFIAA3wGh1nBui0eqaH7Njxo3b8pF726ZM+K5RCiTM7QAdEAGcsYsvQR0rPQgHAR2u7pTYAM5zRsb5RcKkYVBAKz70S7sH9B/MuhrCqPzldUD6zTMqwPkfXQyozar3MiHWzI9YTuAHPiSRyL4Uyj/8GygRw4u/thDqBksCyhAWIoUiWJfiLv/gL+7//9/+6XxXwRdtBA0ojTm93a++f+hgVmcOJFFFVjbvX34F6x3k0+IAM59Po0ngfU0NNgwz40KAjKAsafhrjL3zhC/Yf/sN/sN/6rd9ySAKeUBQOWH3hO+0GcTLJpqBPhm84tlNXiGuYcIPVDIWCW4Hnh9IIeAKwKCDAEaXCc9NhZCh0Wu3UGSkJLBykmzYGyx3gRd7znNwbBcJzoFxQSlGp0UleXlm26zeuCeY2Jikk8tGIl33VC3w5lxYF74K2nXQE7xJAY0gcC+n/+B//w/7zf/7P9id/8if2v/7X/3L/Nny1CFigWLqGuredFRuhrFBPiJOOym6gFss0ZRX4Ii3ULw8CfCCfoU1GoqhfjBahXwsF9mbGYEC5VgdEz7q8wuzPJa9/tAuEmG4Cf5Nm0gf0UMeAJ9JH+4B1j6F8fPmw3nFvfscS/od/+IdubaOMDwrlOgJqtGByH+oIgb8jXJJ+npd6B5Rx/0Hf19hBIz8iGBMiwPHbvZJ9WNR6VnBQa9pwrmFD2ZqVs9VbwlCu6hA3CszpvGKmYTmBWi5DJmP1YTmPtOV99h+WNUWuf+J6a8z0bArM6g2sXCE4/ChjvbjeY17jJQAygBqbOzPuz3ppB2cO2OEjh+zI0cMObBPqAadV2GrMOtT5QBEvgMVY8UcD2oiLl7+1caOi0dji4MvaY+uO9fr7Xj0PddmhU88xmHcxNJrMFFJmuyWtpPeJH4pgrR8AN1PoZIesK1ALa6ntQ/z9ha9RqLz7CZtkn/FE4et2v28XEnkwhIYVaxU9fxrFnRQB9YffaPRpiFE4X/3qV905/2//9m/dx4peP0LjGRtNvg8K9ZFe97JAjcZ4rbIWQK0NqPVPknA/GmSUE+ejSJhFh+9P7BkDggj3ANqwRDHU8a/+1b9aHxIFfmicB8scdT/eS6Wx/1tvvajHMkpbEq/jk8Y/KEI6gORH090wUB6AHhAGLAJqpAlYY4LTlNJN2vCrwapAHgBqKF/yPIIaigyfVqwEWA2wHhAnM6nZieXGTRzXVz39iXy0gm8zW+sBawHU+j9sEd4l9YCZuwxnA2f/83/+T/+kU8OkkwgfAAx+l1jbuG47QXdR54Aj6gJWq52EVRCoJ1h+OY/rqGN0iriW7d/oVNRqVS9DjFB5ORXYoGcp77g/8ays3waoMcloEJYGA/EPghodKf7GUgyoMjwMiDKxhjQASli9f+d3fsc+8/M/7/UEifWNOo/+pb4T91ZIxLI4CGrcl/QDZhHEIqh5p0tx7gRqsV7fC9lbK3fblmquWLp2I4T6TX1uF25YqnLNehX1eGvXLduYt3xryayljG6yXyMPzizHuh4gwJswxioqkLPqQVy7OW9XPrxhFy9ft/OXbti5Szftw+tLtrBcUyMr0Gkz3NVP0z0QLGO88LCsAw7xwfQ8N7dgly9dsbPvn7M3X3/bLpy/ZCxSOygUwEE44298xpjSTmPKemMAHDMT2cvzrTfesXffes/OfnDerl5Rj3WFCkMjfeczq2jy1V+xjgB3ea3heUWexXDhypxdurpg124s2fKq8r+tHk5X76DLJAe2sQqh21mRZlu1THvNfdVYZmUvAVIpjKwhBazyDHyOjI7Y1AEWqB3ztdbCmmcK+s4xFq/FZw+lgODvQ8HGz4/lONBi/MbSKTOHD9iBmWmbPjjla63R4+ceVJK45yjH1++hwC4SzMCdOjC1vr5VIg+PUKfoQdNoooiwBtH4AiD/7J/9MwcjGurB32nMd1JAewn1ljpMox2VAS4Y1GEUCoqIRhulQM/9T//0T+0//sf/uB5YrBelyMQC0jnYUeM5Xn31Fb/mT/7kv9p//+//3f78z//cFSf3xQqHJYshE6CJe3N9jIMt52p12j4BphSLtzF0EHUeSiAqiSj8hkJBmUULI+nnWj7J23gOVjsULRLj5BOJ7VkiH70wCavd1jtTCNvz7f89UJ7wV6MTAXzT4QE8AHWs0HsB2O0KdYZ6yAQXYOnvvvY1++u//mvvVNG5ovzj6/Xrv/7rweqseuudGZUzymIsY1i2gCPqGGkdDKSf+sezUG7pWDD8iH8lPm34l+FHRj3gfDp23P8v//Iv7f/8n/9j3//e97yd4PdoGUNoL4DDmD/cm8C5PBPpAeK474NSF/YBai1LtVYsVQXUApBlBGtbA7+lqlfVQgnUqtcs25yzXHtZoLZirUbFmgK1tmAhglpYoqtnFTVGEdQuC9QuXLomULtuZy/etKuA2pIaqzpDhwGm7pXQIOHMj0WNnitpwVzL+maXL16xD947a28J1C46qG3MlEF4eZhvadxjoaMw0AACHAAbf1MIr10VqCmedwRq594/bx9eFqgtsyzB3YEawoSMtsLyWtNB7eyFm+vh/KVZu/ThvF29KVBTz6XVZlo2sAyosYRBCF12lGgDanFnib3XdAv7fpYETeyrKFATlFIJACWGYIAlvgNrMYwJ1CZ9lwGBWjEoEnpb+Pkxwwxow/JQKhX6oMYixGENOuCO2atuPVBcODpHUBu8x6j+Zl28aYEa4AZQJvLwyCCo0YBuBTUafRQS1rl7BWqADPXUQU31F0f62BveC9RQCCgprH/bg9qruub/Z//1v/5X+2//7b9tAjWGH7FkDYLaoAJjNIGOIwoRSyBCe8FOKAS+DwrpjaBGbx8h/RHWIqgxrOpgpvO5hmMoMT65dwyJfPSCwYB3jZtMALX9C/UCMAJesKhSpqkblN0IapSDeyXE76B27pz9EFD7u7/z+oCrAt8BHcCROvucuwdMqhNU9HJHWYx1hfKNVYu6vBXWqOMR1Gj7ATWG/Zm4AKjRcQPUKL9cC6hhef/yX/yF/dn//t++8wIwRjmnzFM/KNu0F/NqQ27082fwvuRZBLV7CbZ3K3uCWgpQay4LxK5ZunpF4bLCpW3CRUtVLllqjc8PLV2ftbSuS7XD0hohMuY+Eui1tfWpuK1jmVTHslL2AA6NJJu3AwM45fNi74fwwhzWVGiAtSZDhWoY2TidRW2Z8UnAN43hBxpyZmziR0DhwjTKch7M8GRjdaxu+BbgDEpB4Hzixw/O4+zHxzUMoWI+CrM97/75sN6FvKO3vREwUVNA/TZ6B3GGYrfXWA+soebrqHWbCm1/O3sJi9Lin0cPicKPgovvDqsXVrGwmG05BL73A8dRJJzHbyMOWOyNOrzp/HBeIcSnT/5mtwLux/3jtlXMyETJAHq+SK7Oj8robiA4kY9evL6ojlG3AB0ay9iz5bfBOkvjTDkiUO7uRCgf7FLCbG0WdyZe1pXifii1WIeReG/SRsPOsMv5CxfWlQmKayvgDIIQ5ZG0omwYugTQUKgoWKzKnMv1MQ7+9t08dH0sx5R1/F0JMV1RuI70RjBDuCeB/OETiUpyu7SSzghtiXz0wjsB0Hx5oy3vZyfhffF+GX6PE2AYrqdMUjaBIIYmKZ+8+7sVnxineCgv3jHwEZEhG1ag3NBhYZiVeot+oHzjMsDEPNIZyzLpBr64lvTib0pgaD4G/iYOzqXMxk4V9QW3BNwOmLkMrOGLxu4anAtAsoTI2Q8+cOiiXsRnD/ctSs+ocz+8cV8CecgnozbcN9aZB0H2YVFrWrqxYOnKZctUzit8YOm1924Jmf5nau0DSwnautXr1q0vWVpwkMuxtZBeZKZsvXRJBRFHxJreet1Gyik7fGDYTh6btifOHLdnnjptzz19yj729Ek7feKgTU8O+cruTEbov+N7KhQAQIx1z+jB+pIZAkRgAasNlhkKly+2p3OWlwKMsd3R/OyC3byu3v+V63bpwmUfLn3nrXfcioZ1jiHQoeFyf8hPhZWXL4Ai/lhg70ZYgDirMDlWtsdOzHiexfDskyfs6TNH/fjUxIgK3U5T7W8/Hd44qJJS0aissQKiQFAUNDIc5/cYOCcoLfXqS4VgZetbwOhtYQVzS5gqCUqThXBx/nbzs/4D/nzrKIn77AiKaRR4H4AzFZH7emVu1N0vkOHtRB5u4d2yHADWLBadRPnQmDJsiAUB6EEZ3Ingb0N5O3DgoHcEWDaAXjXKDUVD28DvzGSjF4+D8h/8wR+4wz5DsCipnRpzlA/T/v/1v/7XPvGA8O///b/3v//pP/2n9ou/+Is+RLWT0NkYlSJhmyrqD0LZJo1ALLPMB5U55R+FTPqpF/wWFSAKCIXIMa7dDnyj4uVeD5KCSmRnoT2lXQVcAJs4QQShntCh4H3fS8G/jHKILjstQKJe/JPf/m37t//233rdoD4i1B+sZFjzgMbBskq6uZ5FewEu1oFjGZytgbixplMHMX4AgCz2jBWPvynfdHiwrH3xi1+0f/Wv/qX9/u//gU+qqalDtYx/qp6fzhXtCJDHNoeHDx+xZ59+1l7sr5EY70edZKkR1kUD/sjTe6Gn74XsC9RSzUXLYE2rXBCMfSBYE5htCenK+wqCOAWrXLJe9YZ1G8uWVu8gnxNN58uWzgrUUiVj3dVmM4Ja2o5Ml+3k0Sl74rFj9syTp+zZp4CNE3bqOKA2bOVSzvJZ4KafpnsoDmr1hlu6sKjhs0ZBwrLjoKZCguWrXg2z0XBQXhKoLc4HWLt5fc6ufgioXRHBC9TeflegFpYgwPKDr5SDmhpMLEI0guzQcLeC5StDSHUDqJ086HkWwzNPHrenHj8m2D20C6jdWYaSP/jxsL0TFi8fttTLiT16hAYkWjwIPDfnAHlYyAZ9yhgSJY8ANfKL/AGYsTyiVBDyDlAjDqyYAJo7i2PNUF4zFM27pBFxiwjWkH342yXyYAuNLLO7/uzP/sxnuDE0QQPKsGEENaDpToSFXX0tNJ9qHxaiRbkBatR1lAuAE0Htn//zf+7KiFllTDpAQe4Gaqyr9G/+zb/ZBGr/8l/+S4/jF37hFzze7YQyDjQBafT6gTaOUbZJY7QyDio/YIvjEdQQLBkR1Egr56PgIqghfFJv4z0H62oiD7bEdwb0BFBjiYlDes+2PpRHmbhX4mCvckY5xJcTmMFfjHXMALXf/d3f3QRq1KUIarG8IeugprLJ2oLUYyBpayDuCGq0A4AaLgisiUb95HjcLg5Q+xf/4l/a7/3e77mVDf0bd0fgWiCNco/1/Mihww5qn3jhRd3j59fvR52kE4ZVko4gefqgyJ6gFqqr3rwrPRqG/vddQqon2LG2L1jb7TAtnsaBvTFXrFZftmarYu0Ow4lhPJ4MJGPpLa4ylNgP0VzrabjP7QaFkCFQLGcMZTL7Jg5jUvJZjoPf8Vfj5QsL3DJUGira0EhZPfKCg1ls+IAMdi8gLuJhOJWZLgDIYKG9W6E95X4s1juYd6SR/QBJf6uld2JYtFj3rRxmfqbDrM+Uvlu6aF22o0qBfttnNI0ClkAsgsDW5mHb8BtwRsOxW0PPenJhqJkhmnbfT5BZOCGvAiyH9a6Ih/gQ8o5nCcqzbGMTYfba9IEDAr7gwwbgESeWT+B7u+VSEnlwhcab4Rs2U2cxVxQAS2HQa6YcUG+CFSGUMcohf+8GFX6+ziWEc/s/SFxhCEzGBDQzMwdd8QCADJewTQ7O0SwRwhpmrMjOxAEW0mQ2JZ0EFBbpAoKiVTkK393yrONbw2DaEco07RydHNo86i7feV7K+qmTp+zTn/o53aug+7/hfjhsJRVXr8fKwNIlbHXDMYZ+sFZ87GMf1zOdFshOOYARH3GjPBka4nwUH9fjy4Piw8qHAo1pS+SjE8oEFs0Iy3sJ5/OueGdY06LVFDCKS7PsB9Qoq5RL7kt53undEzdlHl1N4DtlKpZ10sAisn/0R3/kw5Kkg7pDeYudn3gN5ZzlPK5cvmyvqywyM3VrwMeM62+qPDOpBp1TLg3Z9Ws37KXvv+QdNxbRfu/d9xXH6+6jxj6gdObi88TRHNKHkIbLVy7bm2+9Ya++9orqwPc33TNugs8Mc9KNLiK9PHusp/BKPP5RyX2pjcHa01FoWU+g1mxuQFqttmQNgZuDWocZSQ39FhawY7rukkAohqpABwvXRyXuwAvwCBiWFpZsbnZBL7bilhksR/zOwrccYziuPFQQpJVsZGzIYS1fCJUrrtFWFXgCfMQTh+hwFuVl89LvlQCFa7rXYN4tMc1bn6H3TR6qAqYCpKV9aY4RfR9RpeyDmi94OwhfW0SHfa/WrAq9K73N5+HcTIWIQyc7KU98HICpeq3RhzWVAQXPK1VsgJN3zvXEQ3xMMnD/QQEoMjTCNO0Jd8I+KAXLIqIoSyojw6XMqgXscM5N5OERQI3eMEMZ//gf/2PvHQNrOBDzGwqEYXF8EXnXO5WxQcFqBqTl+x2MQSE+rLtjY6PuOwYkElAqzB778pe/7I03EwAAIL7TgDP0Ep2zUWwoSD73k56tQjtAgx9BLXRYNxY6ZVsnFsr9hc/8ghULRfvxj1/zdLGDAmkBtlie4Bvf+IZDF+CGosKK9jxb4Jw+7RMXisWS7hOGPpn8EJ+Ha1FOWF8ANYaiElD76QjtXYSL3drQKJyD1Yd3xjIUQD1laWlp0UEN0NgPqPGuabupY5TjrfVkUAZBDdji76jPKGdYnhnex9LFUDzLZjAreiuocf2S2nsW6KUDRHneGr71zW/6jibXr9/Q+XXV5awND414p4KOyVe/8lWV4e/ZGz9h/9of+fnUB8py7EBF+IztBXB48eIF+/FPXvNzWd5k8J64V1D3qRvUk62gxt/U0/gcH5XcN1BLpbDi8JA45ULfrCIcQruNEg0Ofg0p7Wq9ZStrNVsQXMwvLNvC4ootLq3Zqo6xFljLh7VAo72FlxEa9I2p7Hxi8XGLUDYABcd4eYPHuBZrD9YYNjh2ctYL4QVRZ/jNNwhXAXWHSl2LFc2tTD60GGa0uMXIh+2CtZAAnLiFRw8RrE/B0dfToPTGSslHfIZ4bCchP3DDYq201VXl3+Kq8k9gOL+8no9Ly0ALvXPi5XUrXiG0f6YGLWMxbC+khWfMFVCSad07mMHJG1LiV+scAscoxBRqCnQs2Pwdj3neKJ89r1UJATSGn6mQsRKEfFee6jvgBUSTh+Qb4MzQa1ifR2nqDyf7vXUO/mmetER+6kJDifLHf4ZP/t5OqAtAD0OZDD0899zHvIfOUCNT/LEc0PhSPoAZLF/APfVrUIiHBpqhP+KLCsiXpRioU3x3BaVzDwr6sQLgn0IaUXD4+WCViIGhHIYViR/FSEeBtHJ+tKox5BnXKOP+nLubkAbOccWitBIXPnekm3JO2o8fP2EvfvKTduTwES/TKD3ShgKMAeVEnhBXyOsjdvqx0+vp4BgWD/KQeImDZwI4Ubjcn2fid84fzKdEPhqhzPKexscn/Ptego6gnFBe2MuWd4j+iXWDssq73UuIh/IL3APrlI/thDLBeZR5H07vl1F8PfmNa6lD+HthBQciiZv2P0IadYQ0U8YmFQfX81scqt0aKJ+VatXvT92iDSFvsLDNzoVlei4LSK9cuexgynPzOx2uWJYBX+7p9VQwi/5lNyG2uaJTM3g/6jj1guPkI/ok6LggPA91jGe9nXp+t7LnXp/1lVkb61628e4Vy6Yalkk1LZ3avBXLVmn2hq1u41btjdtCZ8LmO+PW6PHyUbxBqXMvFsFliyga0IygzrpS0k0p7XrbavWOF7QV9Q4qqwwFiNyl5PfSvmQYFh/8plDkxRIzugIMcR8/Vsa0HAoXv4XzwnZRQcH3dAwiD87/nOeQpYSzDgy/A17MFMXp3YPvESoQ0Xe3FCm9wIYrgq33U8FxfzXFzT1d+pkCOAFEBCxJg4Vkk+i8lOLqqZeRLY5YKjdkzW7WgXdppWbLArfVtYYtKVxbbNvcqgDU8y/MtmUGaLfX1MtWJeisWrpbsTKbsqe235Q95BP+EAGMKOzMTgK0eDfkS3xGhjODj1nTV6BmCLgN1Ck/OAaU+WQLnl/xBCvYmipGVfcJz+/TuPvx4IPG+eR3gGJ2seA4M3BD3GEHCIaVe4qTzAyLG97thIJkr8+7Fxo8wCeWf/6mR71VaLSjsqGxxefm6NEj3sgyQxL/F/y6eK+vvfZje/nlH6jH/o4v10GcUYAbevdcg3MwywRgdfByq3JKOraK13nVSxQQgUaYe6GU4vmkbVy/nRA4Pf3MMz5ZgH0NGTblN9JP2vmOQmHxWRQG8e4k3Jc6ghWecu8KQGmP10YlgO9maQhfpDEHKqCLeHmmqOB5RoCWZw5gGzaFJj00LnQOuY58QeFyPUqe4d7oRM137sl12+VTIvdHvN1U2WHpFeoGliasURzbSXh/lFGAhPJGfUFnMfmGoW2gZT9CGaeO0CkiPso/73+rkBasZJRZyskTgrGjKkuxs0JZjHUcQORv0kU55hz+pm4S+E45i+4GlOlY9whAHp/EP6Myy+4b1A2WZmJmP/VhevqA7xzkeicddivhb+5H+acOYaEH8MhT0k0clHkAi/rCJ39vvS91hHjID9oMZwNdj6GBZ+Q79yPv91PP71Y+AlAbt/k2oMZLDAUSJcrNfFhCitnXBOrUrduqSBlLKQvS6s1e8AdbWZaSXrOOaLzX3f2+sZCgzHmZQAXrdPk9uZ9eKECGiXhjwUeOFaw8XPK/eREofXyeWPGb+AJ0hJ3yiQNFAYwxfIf1LIQ+sPXPpffAkwKFIZ5guWLI0JevULqIi3Tx0vn0XQ+k/GnwKcgcj+B4i2AJS+fctyzluwqUrNFKOaQtLksxrtVtrapeQ6UlSBP01rrW6rB1VYA04IJg3aqlBGuZTk2QVhWsVQVqTKi4FdR4FvKT78BLeNawDRcVJSyZocKs+xCwmgFYLHEShiED4AJXQBZ5whXEAaQBdNHCyQ8xHvKZ3wC6rKCHfON7jNthSv8RF9ejmMhL0rVbQ7cfSUDt7oU6hdBI4tjL0EV0eN8qQDdQBxDRyLLAJY0mEMEnZe/GjZuCtJfsO9/59vqK64N1JIIdjSeOygydojB2gjSERhdlQsMMpHE+DTbnkx4aYRp8rFoOaVJqYa/MY65wqK/EzyeNPfcn/QAj9Xk3oYymVN/o7R+YCoCJEzXp4FkIxAOkAVp8Jz1YErkf6eI4z4kDNnmFAsH3zhfg1v15Ps4hTcRHnSMOlCRKjWsYrkJhcu5g3U/koxHeE+8GqHj33ffs9dd/sl53thPeH+85AgdrWHIMSMOXEmvUfoRyBqRhCaOMAPHblVnXRwqUt2PHjgdIU3nFdYBraHepn5RJAvUn1iPKE4AWLIbjHgf3payTduoe5xH4nfP4DqTxyT1YHSDur8s51Ac6H9R/nhsXGOKjPNOJivXP9YF0Np8ep8o46SIAaYP3JvA3aaIt4PrYbvDsfJI3PMvt1vO7kY/EogasNS34cKDLuQ/tKltKjZZzNjaUs4Pj6h0cKNvM9KiN66WMj41YutewTnPN2s2qLuhYV2AQrt5eiD+CGBsrMwEgABI/BlDD0gbI+SEyXd+5hsaJQobVjWE14ggO6lLGfnZYGdwVgv7nXF58DMF3K5A3hYeCQ7xY69wKpIaYFxnO7w8fqvDQSBOl9xIEQfliKOw+1KvgViFO2CLuE6Z48LGZUGE7eGjGWJF/RMA5OlJWGPLPQqFkq820LVQEG23iCYVuPfTaviNButtwUCula9uCWlzTCXFrokCJAIwBpTGtEVQ96LdoXeQZfGp3/5oAd4pPSWJ4uVHvH1OaEPJl/R5utQurq/tQra7xeIDEZvAhwCJButyqqcYt+r9xX9Lt71bvgXfrK8/r75gHu0kCancvvB/ymTrGiuBXr13zqfPk/CBIx3fB+6Pe8S6xCnzwwVn3C8PCgL/YW2+96YqIY0DU1vpBY/uUIIoZXE8/9bSdYAaXGv7d3jW/eRlRHaW8eP1VelFAAGa0YvFJI37wwEEHIbe69xtoruM716FoUAJcS7y7CXWHDhyTBYgP6wHPgEKKAEjbRRr5ezBdMU1R+fA3SpBzSAvXxBDTRnp4Pu6BMvLn6StEfufcRD56Id/RC3RmGHrDesU7C23hrYuvxvdI+QdWGM7GNw0/Rfb2HLQybyfRmsosR8CGTg1lijK2U5mNwMNQK50pylq0znJNLGukifP4LZ7DJ/EDOfy2AVybQ4Q5AmkM9Szcg4CQxhgnHSUALtYByjMQyL1iukgPeck1nE/clPd4nxjivSPAEcdWudN6fjeS0gOst3JsgN5G4bQ69rWXrthXX7psi5fftBOt79rJ1veskF6xfHpVwLb7uPda95At9k7ZXOeUfdB8TOG0rQneGM4C1NQu6YWLzMtZOzpZsiOTRXv82JCHaQEbypge5tWL5+zyuffs5tXL7mxeU8GjoOwkZCAr30PWKOWwOGSYZelDl/1zsLrEY8ACsEOmcwzrGWmjYcSyg7J3Xyr81fQbvxM3hQ0Qi8J9gAdmsfISCcSNJYl4eYk4QlOIY7rcP0uh0+7asKBqeHRIsNJxp3kC4ML9t3tmFrOlB15SYT926owdf+wpmzww42nn/JbSSXrnVxr28jtLHpYqgA6FaQMc0t2qpVvLlmkv2UR63iYz84I1AXmGyrrRQyDdPFNQGOEYJYc85H78Tr4OTjKIafHnJ98VsHzFfIx5rNj1N4AVFjLl+DpgS4Awfl9/L1Q8HSfeqOS4N2lw0Y9YZrgHEuIEknMCtWCeBwBbDF1zX72PWD42iR6w476UbVvtjti8zdhC75Clc+plKYjW9FtF56zZSrOr0LHjM8P2R589bn/8uRM2MyFoHpLyLd6/ntbDIJRhlAaWAhzhv6TA8Ay+KcxMjk1QbABphGkkaWxpTHlfBAdwKSziYbgTZbadDw493M9/4bd8QgK+bieOh+GZ/Qhpoa5zHz7jd9JGOWJoik4V0/yZpBB2CQjDVt4G6FljnfU2Qu0K1+4mfo2eLbZVdOBQZFHJRCEdg+kieL3r5xv3IkRFO3jfWA/JQ0CA98H9OJcQ08r3RH46Qtmjjbt69cP1GbnMNibgN7VVeMeAQgSgCPb4WuG7xXveTbA8AWn4gGKJxaoGyGwtO1EoP9Q3AmkNei4YPuKs6iixnFLGohAvIbS/Gx3prTJ4LBg2NmZ5E6j/pCHWTeLh3vzG81OOKc/xfGQwPV7HtrkvEo9zP+IgROE3rifcST2/G/mpghqWtJMHSnZiumjPPDZpz56ZtIOT5X4sZpcEaWfffduuXrqgnrMa9RW2P9oZ1HgpceFUCk98mTwiQc294Ck0bFG4JjaK5ASNJDDBOYBWsACFeLD6AFcs9soaRwxpxvi6enlYeDiPuIgzFkiOUYA4TqMOnHGM4b8wO7FnU9MTNjk9bvhhzc+xTtvSrqCGNY21yEjD6SeftjNPP2cHD20soIk1gkkGs4s1+8aP5+ybP561hVUsVhTcUHgdaxzUFi3dXrRJgdpEes7K24DawyLkOQ/GEHKovFgjQiUH0vy96B24tU/vljzGohd86AJYrosKRAJq91b++m/+xv76r/7Ke/0MgRIo47EBvV3hfccQG8xnnnnWvvi7v+vrOjE7mB40EwYSSeRhENwCsIjFdcOYgfjuO++qPQ96Y0Bl37ZEfUdg3TCWwsHyTOeGiQAJqD+Ycv8QcF/C8B4NdIAhYGxwiYlKNWyWfLfiPmbMHpVCwFoHMNGgEyiw0DPC7/Q02Q4KgALaBgVrDg71wBYVhqU6gC2UDFAXe7V8OuhJefCd+1EBBq1NdytABTBGOiuVmq2wpMhA3hGYEbfCRIwGecjyHAxr8Km0pApKM3uvFa2nYz1fniNYtx5WAcBoiMhrnE1ZTJedD9gFAT9E3gnlCfjm3bgfY5l18Ib8fIZFOSeR+ycnT5zwBSpZHw0HdvxrsHZRR+5EeF9ci1WByQasv/aFL3zePvbcc26Nw0KABTaRRB4WoTwzjEd5dif/T3/GPvGJF+3okTBj926E+sBwJ3UPJ3gsavhyMnyXtH0Prvx034xbutqCDkCNWYprDj8xhDW17gGoCaSCr1TwgaIixACoodw57qC2VrWwOG19Uw8/QBdWGSn8TDqA2tKKO8YzbEYhj1YzPgE3jg2CWlgK494IvSqsQQHUSPPmvIuBZ2k0O7oACFHaBWUpQC3dBzcdM30PC96SvocY1PSONkCtLFCb8N0lsH4yTM37IM+wpHk56M/s5Vw2mI/DooncPzlx4qR99rOf802VP6GePKAGUFFH7kR431zL0A/O/b/xG7/hsIYCmmR9vdLOuwckksiDKJRnQI0lLp7/+Au+2PGLnwjLs9wrUMOKBqgx/Amo0VmiLiXyYMpHNJlgYn0yAXqQ+2C9zWdTNpRLGSNDpXzaivre63WsWmspNG1pkS2ClgRPWIU2nNJ3EuKPi2ECWQBaAJqOW59gEIYMOYffPQiy+K0ZhyIV8JUKm5oLXpg9KFjk3JB+0qj0K4+I2ycseOXZ8Mdyq03fmZ2/PQ2Kk795Do9P8WLp43j0leNegzMcY3zbPbMDRVoVKyV4LI1atjhsHQEYa9J5qDY9D5n1eXWhYzeWBKvs3WUhcC9/E926QsVS3aqVjCU6tl+eg/vxN5BKY4FDPkAUfcOwNvoxgS/HCYCtx0G+9QFwMB72XQsTLgTL/XvFoeRtA76Lup788HgUh4f+79wzXxQsl+KCkea+P0xeYGFl90tTYCiT4W1F5PfkWYmP3xiq5t1GSSYT3FuhTLApMp+UbTpKDE1iEYu+NhyLFm9C9BVByRA4B/81HOGZ3o/lIc70wgKBXxq+O1xDueDdJpLIwyKU19jhRDeEzj5b9YWVDIAqynesD4DdYD2JgfqEYzwzEukQMbzJ2oT4pDFxgL99drDiop4k8uDKTxXUcuKMQlawk+paQZBWyOn+3Y5Vqi1bUwh7OS5ZlcXyABe3rm0o0e2EAoevXYQ0hhuBIQJCBQAG+J0APGEVw3qHdQrFzi0AD67dHpaAiVCZOI9n4pwYJ35sxIdPW0xHXKoiWur8GlVC0uXAhnWs2oc0fY/+Urfeuy9Yv7CCKWQKw9KAQ9buZvqQG2CtVm/baq0tSGvb7KogRM/qFkxfSy18WrdmqU7F0p1afx01lufYHtR8fbp+oxFntLoi1O80KhxjKJHfCSFvNuIATmMjBARjyWK/T2bXcpxZocTn+bpNiOmJoEb8NGLxdwC8UGaNuoLDMO+gyiK6ylPehcOzjjN5g/fCjFFyFj82QDn4rSWgdj8ltAHBJWBoaHh9piLghQJC8fCeUTQ4R0cwI6B4gDrOY/kKAA2rwKc+9Wn3twHWUEgoJ5QX90gkkYdZaJeoA2PjY76G2JGjx7y+jKouAGf8RsdmsJ7EQD2hfmFBY/kVlpQhfPz5j9vTqjtY7ahPtN2JPNjyUwW1rGCnyKK3mZSVixkbKkpJ61ij1fXhusraqlVXV6xRqwhqgJfd70v8KHGUcIQhGn13GJeCdgWv+Dkez3Gne4GV+5oJmIAOrsFSgzgkkWB+6ItDgsAAq0C8J3ER53p8CoARcMLDhkkFWNkYfg0VkIkRpC1Y9Jq+AjO+dMSH9YgFZXcCNQcgQRqBBW8d1tIFgQgzPhUEDYpeeWm+2O08oEYemMCR0Ae2VK/u1rRMtx7WUUtvv44a+eEWKyCsGCZfYJ1ESB7fgTQC1sgAugF2oyUMIU4gDSXKJutj46Pe4JB3WLz8d/22XSDPvQzpP+KPFjx/XwpYN9lzlTR4fjqk1ZTHYbFk8pv8jO+KMuHXKR7iTkDt/gvvjzyn/ODozzpEKBSGPwExlA7noGhQIvT2+Y2AHw3WARQVw0KsG4Zl4MUXP6HwSSmlI4K0MY+b95lIIg+70OEdGR1xN44plf0jR8Nq+7SZtH90ZujUcCzWkxgipNGpYTuxT39akKb68thjp92SRn1LIO3hkJ/KrE/dQsoyZSOlrB0eL9jhsaKdOlK00wrjIyyrAWz1bPbaJbtx5bwtzl6zZg0LVU1KlCG7nYUGGqjAgTgCgQ9FOiAFB3Jgg99y+aD48V0jREgAghgeQ5l7XIKCwYY/njd4jHsAaMBYzFI+IxiggMJEBPzbpNh1rgMkAasaUCaQcEWme3Kew6SObQtqgqCMKlk6m7fDJx6zo6eesPHpGc+fCHfwxkqlY6+eq9hrCitVoKI/5Omie7GGWnvFsu3VXZfnoEL7LFPBFXFH0HFrpZ6BJU6wkGFl84VoFXgGt7DpGEthAKHAK+DE+3Bn/8kxtLfNzy7Y/NyCK1ksbFjHthOGLHkGxzVdR9bE+wGIo+MjNjI27Mu5sBgultgoXg7UASBPo7CIL+vXYS1kVjETWuKyHkSezPq8/8J6USzOSWDJDQLAzPuiLEehPMW6F+GOz7jmER0Dt46qXCSSyKMktLe+y0utbvPzczarOsK6aYNLrWwVdA4gR3Cr9cGZ4BLgw6TJLOiHSX5KoMYwV8rGhwVoB0bs5MFRe/Jk2Z46OWQHJliR33WkXT7/vp1//227dvmiVdYqHgaV7HYSG2k+g/UsWLywkkSrkC8UW2L4jsVoM4pTUNNmi5VgMQLU1qSwCVzji6QOgAOKwi1KA70R4AvHfZz6sexQSbgvFQlgYH23qQM4TedtbnbRFgQlWJA8+0mff4RX4WmP6e4f2yqusHR/whPPfMye/vgLNnP0mJ4lDL9iFQV2F1Zb9u3XF+zbb+ieK+yJiDUtVur9gxqwhWM+5neGb8kbGg3ylTSyQPDomHp6ytPFed1rYckh7eChAzZ9YFJgCpyyUX0tLLWiwHIkk9MTHv/N67N289pcv/c4biw7covo1TrEZvpWTD0f/ofcb3FhMSjwaSnwqXG9j7pPZ0fZR2nUwm4SQHkUnouhUhbATUDtpyMB+OlMhZnZQFoEtK3lP9YN6h7v2+uzfx/c+SSRRB4t8fau3wmPdYRP/qa9305PxI4NBgX0EaMPbmDoH0/k4ZE93xarj/VMCinFdkUF62WGrJcd3TV0dU43lbeursP2QRwbQkOrnm8aB/K8UpDV7ywMC1gwRKVGWp/MBGWok+U73IpGQdyeWTYJBTYW6uj7xacXckGeK4QGC50yBBgi5Hz8owBVhLbeh+z6vfOtjX88RgWIgb+J35WMPrmEnQrcsodCEegBBQQqSvRN41yefbCixfQPHttOSBXgK8TWueQTw5kBxBgqZiFXFr4l+5QapQkLIIHXfpsVlTSRf2ocEMDV9/0sZB2cCJlcsHbw8DQeng/6j/yJEIzVi7yKvzvo9QPPTL4DugWBdAzAdC/FO8LCGWZrRkj2YU3i0rW8W/cPXKs6kGHBixBA4BxyzR3a9R58SQ7Fw5CoWzh1zl55nsi9F8oMQzkMxWAZi9u3EBiiGQwcY0iHIVB80bAWoIQoN1vraSKJPCoS9Q3tHv5olH38OvEz266eEKgn/E5dYWgUS9rWhWkTeThkX6DWSWWtLfDqZEasm5uyXv7grqGbHdc1ZWv3sg5rWyUj6MtlSoKMgpRkyqoNdrJftbm5ed/H7+bNWbs5O2+Li8vuZ4S1CrAhNXcjDmRS6t4ToRfSB6QNv7Kw6jKwhURLWpyRuJvEuB0MiVt/UyEAAoYMWQaiIIXiuxOgVPrX3QvBH25padlm5xaUhwtuzZqbX1IeLurYku/52esCalgdAKUwvBtQb38CzGBBW15edaDxDaInR608VBSg6Xmy+I2xuCy9tfB8gBF5jSWNfIn5Hd9B3B81+I5FSKZBIh4BcD90BJ61etXWKituKYtQxvAm6SFdxMF7xCI2R9nR8y8vrtjK4tp6YFIBcMwQGY0W+8fxjkkb1lp81EhjIokkkkgiiTwosjeBSKF300DakHWyY9bNTwvGZrYPhX4QzHUzLBeRF1qx3Q9qOwYUec6yGRZblZLs9KzeaNiKFOXCImAxvw4cS1LCLOYaLCPADwm6cwES3CokJY8FTdjgcaK8gcEmw3P6BCJIKtYfLGHRshbj2DYoPiw+G5YbPalAjd4+G5kDbPjFrff871HvX7f2NJNXc3OLNr+wrHxcsXlB7qxgZW6B9egYStIzWIS0aFWLadg7LTwTMMvwLo75+KThD1YsFywtSBP7+LNh8XIQVSBfADGfcSkYIg5CtHT6e9B3t6zxIGSLkpXqW+g8r/Q3w4+1ek2gtubDmQ5quh6/tME17wBA4G1RoMoad2srFausVkMA+JUOzgsAnXefOqw5vG+GZNeHohP5qcl6fdpHSCSRn2WhCmxXL7aGRB5+2RvUMiWzoaNmUx+z3sRz1h172tpjT94SOmNPWXf8GbOJZ603/qR1R05Zp3xYYDemuwgOADRfaBUnRmbLobjr1mvXrNtiX8uGlHDX6k2Bmz5rTSn4FrMXg0/b5uHTO5NB83E+l1coWC7LEGxGsW/ET+EGBNwSJJDgd4ALksA5nWE1oIVFb2NwuJMAY5zLwrj4zQAj7NsJULDjAT5sgNVekyL2Erd0KrR7aVNWWV15RZ7FUCf/lI++52dHed0jfbpKoMY7CAvf4ju1+dn3I9R94IplLvDtw+Wtzf1Yi65Rd0iLcMo9Aamw44PgSXkRLZZRuH98L8RNvnMesLUwt2Sry7qmLojSfbgf9+W9OOwpID4LtBCgmJ0I1sPYsIAyBCyb+M0xlIoVkskLvBMALZGfvgDR1CP28nPfzl1CrHPRep1IIj8r4h1VtX+Uf+rBdvWDQD2KvmxJPXm4ZW9Qy/ZBbfLjDmodgVpn9Klbg0CtN/60zgPUnhConQyglhuxHkCQwiolUGProj6o9boNKXxArSoAEvCIyuqtnkBD0NEA1HrW6gYY6Tqs3Z0MgtoGrOUNR/JBcVBTRQCofKhMvwNf4AxKHSWPFTAOlRJ8/TWJx61zfbJBlhmnHasAastrtrIkUFsVqOn66A93N0KedPqgBpTVGu31UG90PT+bAjjfx5JlJNxjMKN3wI4EgBrDoYOWtf0Jw4NMVOgCav6JQ7jup/wiL4iSmZtY3YRx3phg0QKK2Ij7FlDjvQiGsW6R9wxBBlBb9SFM8g5Q4z7hfoJEPVu0ylEwspmwvhv3HRagxbABayP6u+wgh48a72BhftEBurUlPYn8dIR3j1LZTulsDYOghuJKJJGfFaGeRPcRdNFOHRuOh3qCO87ePs+JPLiy56zP2blFOzzatMMjTStkO5bPdCybvrVhZCQvm2aGScqWqymbW03ZjRWzy4sZu7SUtkabtY2kJNNFwQUWnrYN5zs2M9q1meGuHZou2OHpoo0ObcyQm7/xod28ejUCxP0AAKwlSURBVMmW525ap1lXYEPaO2+UgTSsLnFtmlEFjq1g7VJgqBO4wDqD1YxKgI8azptcwzpnDK0h0X8tChYmKgSB5R7KQ2U/BgxgueFvYAGQw7IEtACBdyosz5HKCjIVDhw5YTPHTtro5DS12Ctkuy3gEaQtV7r2ztWWvX2ladUmw55hG6luj2VEWpZqryosWKa1uOusT4YhWcICmGKGJ9YpZpwCVMzgxDfNnfwLgi29osFVQIA1X6OsEWb1+dCnAIuZsCzkCDiFeCpu7SJvGZ4M65qFmU0I74rlQbg3oLW8uCzwXV1Pl8P3wMbrACDl0lOQUmJIlz6Y9cmwaU3vMvrGbSs6OZn1eX+Ed4qyoRNRU71iG7S1tVVjf1o2pea3nYT3GpcdGFzgk/eerKGWyKMktOWhPe8Eo4Dga1Wd3dXVFdWXioMYu65s11mhTaQ+5PPshRvqCHUGfcbaa3TSaR+pT4k82LInqN28uWAHhuo2Xa5bKZ8y6WLLCsa2Sn9uqIfVetoWqhmbq6RvAbUMi7J2pLC7TRsrm50+kLNT01k7cXjYTh4esomRjT3/rl4670t0zF770OpqzAl303sGxLC4YFUBnIbKQ4b/GUoCAON3n5Wphh4QANTInqDwg88VC9gCEe7wPqAQwjkM76rwCxJYigTLEU7+OLVj2WHRQkACKxF+VG4NukPxNaMEJhmB2snHn7THnnrGpmcOK3/6MyD1HoE1luf44Xsr9gOFlSrP0h/y7L/1VGfNUq05S7fmdwU1no/n5tncEqnncJgSSPGc/A5kkS9eohTWC5YO0KNz64c+SR8BKC6W2CievArxhLzF0hdmhrrCjmnl3gwrC5CBPRourHhc40H3ZpYtoI0VNMTDRAjypO/jqMC9GcIGqgeK/61CuhNQuy9C2QeWK7WqfXjlil2+dNmuXLls165ds6tXr3pZ2El4r6ydRmCGaJzlFo+hhBJJ5FGQ2G5iIbtx/YZdv3Zd9eSKXbp8ya7fuOZWM4K3k1uEtpK6AJiF2dLMDj3ii0xTX2jfaa9pOxN5sGVPULt+Qwq8ULWJYtXKBYFOkSHDW3usKQCGNbm6Das007bcyNtCLbstqNXbgqBOw6ZGMvbssSF75uiQPX5iTGHcpsc3FuK78MG79sE7b9qVC+d9yJB1rii4dypYakZYtFXQxHIA9DYopPRKUPpYZDiOIggQEGDN195qtfpgsX2PPfZeuD7Gx0Ks+KRhcRqfGLepA1N+DrMS52fnHBTuVEh3GGbN2dMff94+9uKn7OiJkwKYABa8R4Yn55ab9g+vXrf/9+oNQRv3A16wrDEMnVNLULFU86ZAbXZXUHvYxPNGAeHdEW5bElC7b0IdWVQnZml52V7/yU/stddetTffeMM++OADD/y+k1DXUDQon8cff9w3YGf7KPb4ZCV2li5IJJFHQejQoCdYJ/K9d9+zd995z95443X7yRs/tvc/eN99f3da8BZdE63OTz/9tAfqCbsTfOxjH3eQwzixnT5L5MGSPbeQWliu+2bea3WzlUbOlus5W6jmbL4iEKsUbb5a0HeCjq2mbHbN7OZa1uYqWYFaxpbqKau20oob36iwPIRbqXSkJD06kjcrZtpWyHWtoM9eB8fzqlWqdbt5/ZrNqtewvLjoDuZ7WkD2ECwt6zsT9IfLYm/CLUJbjvFJj4NjsXfiszf754VzsR0TQQhYa/z5FN9g3AzZMdSKNQiA4xmxLt2pECcVjDDMBr3DoyR4veKuKayuVmxucdXOX12zy3M1n6iBhSm8aQXGJwXWKd+UvWallEK65nt9RolbKD18AesnFjmgFdjCorbdebsH3qcyyZpWsmpqwmrpCUulSwp0KLhHGEJu6F0mW0jtLfT+2Yng8uXL9uprr9m3vvUthzSUEBY1VlvHjzHk+85CuUeJAXTENzs769fxN1DO+8eSQD1JJJGHSbztUvnHKPHhh1fs7bffsldefVX15DX7iTo1H5z7wK5eu+ouApR16sF2ejGWfeIiYJXD4MGw6cLCgv9NPYodWvRVUl8eTNkT1G4u1W1VkDZfMVuq5WyxJgATqAFpC9WSPgsKeZtfyzmkEeYqGZ2XsZV62qrNlLW7evkCtLQHFYoUe1kCaD0rZtuWFSwAabl007ptgZpAhuUS5m7etIXZm7aqXjcLmzJOfzeyHahRUAOQBehxuFJh9V0U9J1CDFzROyFES024Xj0RPYeqVV+pY8XqeGFfBzniEez59kujQ36t++PcpXVwENSKQ8OWK+D7Zx63W/LWKr423cKSIG22ZtcWOwJu3vBGUGr1wusOaVhCI6hlLcwQ3QotD0sArMKivwHUfJ9Y/lZjtd35u4UQV8+aqSGrpicFapOCtIJeALOAyUOgAFDrJaC2DwGqUBJnz561bwvS/vZv/9beefttgdslm5ubc9jaj/WTeobVmvjYcgrwA9Ji/QPSGAZNFE8iD5tEUEPfvfvuu/byyz+wl176vlue33jrTXcVWFxa9E7PTpCGxHioT5wbtmljnc0FrzPoN7aUYjFcvqOvkvryYMqeoDa72LC1hhpYQVetlfVQbeas1izoe9G/46ReaWas0ujZaqPrQ5+1FsOdKcUVXnxwXMzqC0NvgJpgRp/qF0uRNlRQpBR79JBbtrzWtJVKyxbmF2xFhatWqXihvdslLQCmCFlxtmMszKGwB1800nZL4ee46JLfY0CiTxjrsqEkcFQHnrDA8ek7Hug4ljhW8uc636poZXtz9X7F05DhOZSf+SFrZwQSLcGx8o2wtNK0xdWGzevz2mLXFtZSvtRJEH/T4ZMJBd2m2LllhXTLcikFgUUuH3ZRyLlzPnAa1pTzbasEqA61yk/ykZ0lmH3KAsfNnt5oPzicZzGvK+ha/NoK/fgIIZ6+fxn5qcACyXg6tns5lYysx9PRZy+dU3RhRm2pGCaEEKcHpS2kC/AOedJTujxN3bS1uhlrKnSx5ioe0sTyKSzVAbT75u6bnq/vu6FAeWXWcsNGrJqasrpAjeciraopnn8AbwJqO0usY5R3/GsY2sQ68NJLL9nLCljDmBQCeKF4dhLvlPRdFogPMPNlXwRrWOIQ7kF5YrgHUEO8fClsFdJF4BriwUIBLPK5NTDJgTRihSCN1D+u5ZO/+Y1riYd0RQVKmvk+mFbi42+upawBpyhRFOh29+UaAtfw3FG8DfBymMijJMG3eclh6sc/fs1+8IOX9flju3jpon344Yde1jiHssD7p4xRJ+icUO75HvUP5wBqsfxR1vikXDFCxG4gXEc55O/t6kmMI3aMKOeAH8J9BiXWqVgnuQ/1i7QgSZm9M9nTR+2di2qgagIwBTWVymQC/k04pRf6mU6jBbBUBSbMioyUH4AAy0S8Ljiz67uUbzbdtnymZvl03SZHMjY1nLFyMQAUANBZu2Gd1WvWqc5bTzBHUGT6/c6EwoiPGQ7sLOfgTucDBZMC7tsiSWEzzNpus3o+2zAJJttdKXGAoD/c2RcWufXAeWzurk+2JmKvSuL22YyqHPw9Nq6eiwrsjWs37cb1m+7Qfqfisz4zyn+F9PBhS40ctXQp7JuJBCdU1qXr2s3Vnt1c4b3SyDMEGIlN+dwVJHeqChUbzlRtOF2xsVLPpscKNjlWtExKik/vM+XvVwpXcQLN5E1L5YRlQAjVdtoq7azVOxv5OVTI2Phw1saGlO+qzwx1Y4SMwqzOhhoc8s3zWY1BtS3w7+StrriU5crbnvIc8KVsZGxa5eTAaMZyug0NCHnfU5klbSwR0tLzMtvVl3ghKIvr6jDUOkyCYEZpxgFqWs9GSAu06Ch09TzEQVwMlZKept57laF7Fbvl7rgt2BFbshmlPJR5ho51tvKz3fdR6yY+atsIDTWKhcBQ5ze/+U0HtQsXLti5c+f89/0I/jZsxM5nBBkUEEI75BtPHzhgzzzzjH32s5/1wPY58ZqtQvkhTZQ7FCBWPixzW4W4aTsIWCDwjSMQJwF4e//99x1AUXbcj0BauD9KDaUFiMVPIPKJJ55wXzuu43qOA3WEKLQh8d5xay3iRbly7+0UayIPt1AOsKS999579sorr9qrr77iZSSCFuUW4d0DSgTKJduvYR0DqAgAHR0AYCkKhgrKDuX0E5/4hL344ov2/PPPe50hbAUvhLhiJ4M6e/HiRS/f+LtRhqOg80kb4a233rI333zT69aTTz7pgXsSP2U5kduTPS1q88tqYKWEmx18zIITesqY8Rf8zVRc+gGvMwpQoHz+3iBnjvEZ/uY6QA9PNVeGApa6FCp+cEtrXZtf6drcSsctad1m1WECuEhJKYdU3qH000CBAqiYMUhD74vXKjCr0K0qKkgUMBrxmgpprcI6NTUVQN0/tWEd8AAoKL/4jjWQeKgMQJ9ywBtpticKDS4LuvZ8XTVmmcYKdyeCLbKr99CxvC13RuxmbdSurxVtbtU84C+4WEnbUk2wWNf7a7NDBBLeURBliIMv+ap3JPizTN6KQ6M2fWBaSmHGRsdGbGy0rJ5XUAzl8pAV9WxYttJ6nq7u3+zkrNIp2UpnyJbbw1bvlT1kirp2fNwmp8ZVsUdsanLExsdZ22zEQ1wUmN5WWvBOOarbkFV6o+68X1UcxNvJDVuqOGqFkTE7dGDCThyZUKM06n5/QyMoy2FPV6GgnmFOvcJMSfhUsEa3YNVu0da6pGvIuvkRS5VGrTw2IaV30E4eP2zjY4pnmJ4oM4H1fAqFArCuHqnS1rKSNTpFqylN9dSYNWzY88vXpVOI5TGxqO0s1A0ae4AGUPurv/or+/73v+8Kab+QhqCE2LsQYKFuojyop1EiEPEbigsYQjFgZUBJbBXqH/Wf6wAlLHzf+c53HNi2BpQTEIeyon3AEkG5xcKHQgQ8eTbuz7Mi3JOJDfzOTFagFOX7xhtv+DlAHHD5+uuv2/e+9z23mpAOlHS87/nz5+3SpUtuiQTgouWENob4E1B79ASLFeXp29/+tsMOkHbjxg0vqwN2FX/3lD/aZeoFk2lOnz7tf3McicAWhTJP/aAuop8pU3wCeVy/HURxLrBHGkjXd7/7Xa8H3PPUqVP9s1AlQTcS549+9CP7h3/4By/v1BU6GHE0K1rXEtm/7APUWtbq5K0lpRcsaf3hNv+MjQRQFgoQLx1rWbCe6RMY2BQCyPEfHj4Odz2uZ5JBVvfO6H4hAGjZXk1BEAWoSTFy1Z1KgEWJovBlIvpWpxi8oOnTAU2Fkz0kG2zurb+xsGAZZFX8CHEEX+aBpSUEaViIsA4hQB0TIAAyX+ZDecoxtqlCwfDbYKW7bSHvyTOFWm9MUDNpte6wtTvZELr9oO8dfXaVt+R2sAJF5UiGxAkGgKTgJFf0SQ/HDk3ZqWPTUniCLcHMyOiYlYZGrFAatmyhZNl8sOa1egBRXmkQVOn+1d6QtVJFBSkUKciDgrQjB6cEaWN2UJA1rp7YsIBrSCEvsMrlpWwEV12BP8OcNYYYbUzANmxNQWCjx8bswzaq86cnJ+zYzKRAbUoKMKTH01Qc8jSlcwWVaMGwgLPeKwrSSkoT6SoK+IqWL7EzwYhNSokfOzRpp45OKV71LlmyRaDn8en3bF6NXFr5pnJc13WVtkKvpGdTEJSaWyQJG+8vAbWdBStAtFi98sorDio0+vsp/4AJMzmZqfbCCy94759ePHUzDjVGiYqCa4AzlAIKi94/ysLbnfVGgDqqd+agVrezgqgf/+Qn7i8XFR8QhQKLS36gYLgHiuv69euuKAFCFBDWPY4TH8/GsBXpANR84sSrrzqI0WaQNp6JQNo4/vLLLzvMsVvKpI5NjE84yLHOIPGHjmDDn5kQ7x2VXgJsD7/wfilDQDnlhTLBcjVYxSL8IyykzgoEkxPj9tSTT9knP/lJrx9PPfWUg9PMTFiyhvIzrE5sqRTAHr3VaoeODeWYskO5op5Q1oEpjlFHBmGKcwh0aOhEUF65nk3f6TRR5yh/AFoc8gToqOvU/TNnzvjM7NjBQDCSVBUfC8fz3NQLWgPiGayjUWL55xqeI6xuEPTYz0LZ3weotQVNBSl8Fsjrw5eDGpkzmKF8pyEko8PSDwCb/tD/xOyx90P8G5taON/wQ1IAKiJkAGh5QM0EatbyYaq7ATVPoy6nYG0XePG+84AabjbwxjoWIY2FOfkdS5yv+eVgNhAANv3G+l4ejwoi1jggzQtWjFvHKHB3s9itywCo1W1CcDMlOBnT+8ttCWyMH/IXiUN16+KVQnEJTLKCtGyuLCUxJkibssdPTjsQsbTIsECtKGDKq9JnpUzSubyASCAFpLXzgqIAaoARoNa0glvNjgrSjh+etoPTkzaj7xNSfEPDYZZqDguYQjoL8Ok5lKxqb1RB4Km4moK0psrBsABqcmLSDk0T15SdFECOS0ltgFXZAVOJUn7gi5Z2S9xqp2xr+qwCW+pslJT+EV0zLWg8Kdh77ASgNuxWtFJ52Ar9kMrkw44PXYZzC7bWAtYKDmm1NiUQh3XK7oYkoLazoGiwCjBj7W2BEMMng8MxuwnQxBDN5z73Ofu5n/uMg9qZM4/b7OxNt1ABSFsFxUOg3gFKKBSACwUw2KhT56mjWMs/+OB9V47vSRGxzhTDQFgnuJYAdCGAIUCFpQMLH+dyD+6FcgPQGPYhbYAUwAegYm0jfsCMYaDHHnvMlRwA+IMf/MCtJwsLi6ojM/bY6TN2RPc8LpCbmgrppt0AAFGUgB/3Pn78uFsMeaZBxZrIwylAGqCDFfWHP/zhutUZQIpQggBpw96ZOKg68XP2a//oH3knhvJKeSTw/cD0QW87ASTcd5aXQ2ciipd/xU3ZoYxTngCpGKKEDlVY6xLrL+WV9ERQ43rqB3WATgRwCagBdOi6j33sY/apT33K00FZ5b5MGFxdW/VOUtSR/MZ9twMvfl+rMGt1Vd/jLP6en0tdf9RlTw1CI7HhX7YBattdGiEtBBqQsAp+8GUD3FgMFWdD/J3C0JFbeXQcJ/I21jQpZpy/Y8A5vSWlyaSEcG0AvDsRro1Atl0ArrCAse4Zn25Rw0rWBzAsZ74QLoVrS+A4vxMPhdOXGGHlaB3n2hg3x/genuPuBFTAkb+Lw73yrdNVz/uWIKASsIV3ove4/t4iZuhTx3v6vceSE5khy+TZbH3UxqQMxsYm1KufsrGJaRuZmLLhsUkrj4778GjerWvDli4MqZs3ZL1s2boMO6ZL1lToZfV7UQ3FMKA36XGEoPgU56jiIr7SyITldb+04kopnq7S0EmXrZMq6VNpUry5HGvfCfCGFJfOHxmftFHiUBhWGkuCv6IapQK9tmLRMoWSp8njUpo6Sg/71mZ0LJ8XnAnIRobZnWJM6ZjweEaUliHFXRJEAmxZPVda57ONWldluau8Yl01nw16D97fz4pEKwGNPJ+DymInocHG8oQ/FhY0FNJnPvNzDm1AFAoiwtNWAWoAJoYRseSh/Jpq6Kmbg/WOr7QHvjuC6innAZA0/MQfh5JOC6pQSkAW7WFURAyH8izAElY3zgXO4vMCaO+8844P/wCngBaKJa4Bx/ORHuAPK8SalFAhX9C9jtiJk6fsiccf92cnHZyPMDsWEATWohUPS0YiD7+gb+jUMLnmxo2bXl4ojxgLBiWXzfmC7ZQ5gB8/M+A/rh84MjLqZezM42fsadUV1kzj7+KW4X8gDRDEOsy9drofIAYclstYlaVnOmGpD8osnRbKISCF3gPUKOs8B6NTvjg6E9NUV6l/WNh4vlg/qBvv9P3xrlz50K8jbuKjbpBGjpHGS5cu2vvuz/med6gAWtJMnG78UPyPquwJapuFRi42dPtTVIAd+3uG/SVZYBZS57YMNUrpddn3suaf/nc/sIl4W0DXFKDhoN7s9lxJhhXm93fvR1mAtK7PtGRWJDMvI3jFd7Q1bC/8ghWViSRk69YzgRKf2YqSk1JDUG7RshiVH8HXLfP3E84bFB821rnEw70QZsTGSQQcD8f0zqn0rabAXXH1z2vovJoAl99QTCE9m1Pr6SctpFPXplReUipLPmy+bskNEoBdAO7pDc9O+oifZ2NYbFBA4sGQyP6FxjZaofjk770EpYMSwlIArAAqExOTPpS5l1A+6HnTiM/PL0j5rHgnifK6V9sBiAFe9P7d10fKraB7MnyE5ZXf3CIguEKhUWYAO4ZWGT5iOBOlSXpRSF/96lf9uQHPaKULzzJxy7MwUYllfKYPTCmuaTs4M+NWDoaNfuEXfsGdt48cOWxDUpiUXZRssDBs+Okl8nAK5RJ3G7YbZEF0yutOZZXyRnkcVpkrqZwCUZQ1/Bz/9E//1L75zW/Y22+/o/Ixr3Mz6nTMuAWWme3bCeUHGAL+Aa3BYVaEOhGtZlh4T5066eWXegwsRb9Q/gao6JwAc48//oQ9//wLdlidHjoolFeAjCFd0viVv/2K/eVf/oX9+f/9v/alP/9z++Y3vuGdOdJBuaZu0V7QKcIi/fd///f2t3/z1zr3S/6cX/7yl92vFDAkDcDaoyr7BDUKzNawl4RzHNTSQBpLU/Qtaz5sCqhJQfeYcl7XJ1YmQZqwIwzPAWpS0NKvdZZY6DAbD6UaFGsioAdLUOB/xkSBwYG4wfe0R17pZ/ITLhGu9A9uCL9RYRyy+vnOjgfM+GwyW1MVMkgf6IDpWyxOwJPuEcEIkJI48PnsUY4HkOKzqWMNgEz3JB4/5qDGUDTHw/m3AmEERn7Dp7FtaYLSxs4ZAbD65+h6fyYvUzy5ylcb/0RAkOfYGjdCLm93PJHd5E5ADcsUoMZQJ7sPYBGYmBiXstg/qGFVm5eyWlpZ9n16m4L/W0v4rQJUAWo+JC6FWNQ98WMc0jGUVQQ1FAPfI6gxzAmoAZYMP3H/raDGM+0Eam5FHBm26ekpO3DwgA9tEV8EteeefSaA2pBATc+I4nNr4RYLSCIPpzAEPy9Ic1BTed1JWELIQW14VOU0TH4CsJgIA8B8Q8Dzzjtve/lgxvzM4YM+KYzytZ1QXwA1rFwA39b6CWRFUMPvDQsvrgScFyEJ2APwsDbj3sAo0pnHHrcXnv+EQPHwraCmNH71K39rf/kXfxlA7UsCNcEb7hGAGuV6E6h9+9v2dYHa3/z1X9ufC+p4zi996UsJqN0b2YAHZvXhrJ7LsWYLs5UIxX4oWDbDYrIFK6wHHc+UrZ0atpqN21rqoC2njtmCHbX53mFbSh0yGz5u44dO26ETZ+zY6cftpAj+0PETNnHwkI0fmLGpQ0fs4NHjduTkaTuhQnP01GM2MXPECiOTNjp9SL+d8GPH9RvX+sbmUzNWGptSHEcU1ynFe8ZOnHncw/ThY1YeP2AjkzM694RfE+MlrjHFSdzjBw/7PU+eeUJxn/Hfpw4dt/LEISuOzdiBoyftsSefVnjKrz984pTfrzQ27XFw7eNPP2OnnnjS7z91+ITldV0jN26VzLTy4ZAt2hFbVli1wz4bkdmfdyWAVeCYTQLAhP/5J/7Yhx0Ax4OfEn9Z/3dQOOKX+z990VeuH4yAD+Jdj5tj+ocpEOFeIfjBnaR/UQSzELZIjGeTcIyfwufOsuuPiWwRB/J+Q+7W020hOCgE1sdjKZuDAhWgBkdkQIgGGyUAIKmDLxnsmGwW3h+NPAqI4B0N3TOUm/5JOwjn3rh+XXD1hq/xxqK8zF774Q9+aO+++54Psxw9esz9ghhWwlIRLQ6DljUC1jfSS5yAJ4CGpRBA41yed6u4UsyGuFCsxMH5WPeGh0d8WKsk5cxjoMzJU54xkYdfeI/1Rl2BhWx3tv4CJAxRAlUxUP6oK7/yK7/iYE9Zo+wAYMARnYatlrIosb4A/KRhu/tSximTDLdyHz6BKaxn1EvKIuAGMOISQD3HMnzk6BG3/FHngSncEQjU38fVoaEj9olPvOB+bLgbUOZJA2mh7hA396BOUtcY5n3hhed98gTtA/WKe3HNTu3KoyD3EdQ2huKwfLD0BaBWKAxZLjskMBuyTHp4PXCsmCtZMU8oW0nnZXIj1s6M+UKjK+mjtpA5Y7OpM3a9d1KfJ6w3dsamjz9tJx5/zs4883F78rmP2/EzTwqETgiqjtvM8dN2VAB36omn7fHnPmann3rWDhw7ZaXxGQHbMf32hD329LP2+LMfs6c+/oIdf/wpmxBQDU0etmnB1MknnrIzTz9nTyjeJ579uB0+dcZGpg/buK499tiTfg3XPqZz+HtSQFUcO2jTR07ZqaeesSc/9rzSpfs++YzNnDxjw9OCtaljduT0k/bMC5/wwPUnHn/a0zU0dcjjOK1rP/7JT9nTip/7Hzr1uBUmj1otp3zIHLZ5PfucnRKsnbCV1HGB7JRAbXt/nUQSeVgESAFKxkZH7NDMjBri0z6LjQYYZcOEBPxhUBoB1u690OjjC/PS979nf/fVr9hf/MWX7f/8n/9tf//1v7cfvfIjW5DiO6V0/fM//CP79Kc/bZNSWINC+rE2AGr4oMVnwoKGxQ2QQ6neiWBJKZeGPDAqgeKNVr1EHn5hRKLVDuv6MfKwk0QgwgKGDyaBSSm//Mu/bP/u3/07+/znP+/gQ/lj+B/nf6xOu1np9iOU20FQo9OC9Sx2oEgXMIZFrNFs2Oj4mB2YOehpY5RidnbOIe2CQG50bNR+9Vd/1X7ni79jv/d7v2+//du/7fBFR4b7AF7Ez1Aq1wCmtAW///u/r/N/z774xS/6BCOObdfhedTkPj3h5lY0nepaRoeyegE5wVo2W1SvsawXshFyOsZvBTVGhRyfeV8Pq5cZsVZm3Grpg7aaPmbLqSO2YIdsKTVjNnzExg6etIPHBGSCKKxXM0eP2/j0QRtTmJo5bAePHLfDJ07a8dNn7OjJUzbplqtJ/T5jBw4ftSMnTtnxU4/Zif61I5MHrTg6aRMHD9uhYycV72k7pt+Pnn7MJmeOurVtaGLaDhw55tcc03HixXI3OqVe9PC4jR84ZEeOn7ITKtDH9TsWsknBXXn8oBVGD7iF7NTjT9qpM0943FjnsKQVR6ZsZGrGDuvaaG07oriByrwAsJmbsGpmWnB2yJbtsK3ajFXsoKlKCNS2N2snksjDIvTYmWXMMOex4+pI6ZOhFhQXSikohDUHNRpnzqdRv5cNNdDDsOm169ek3M7be+++41v3oJCAxaWlZe/5o2SeeuppQeWYX4cVIloiYvqir1u0oEUZPHdQAoCGa/ncKv47v/Wfl7TuFFciD5/gsuGLbXd2tjoj1AegC4sWgfJKWcPC9JnPfMaX6aBTEC26gByWtbsdIqeu0eEYHPrEeoa1G3BkaJP7EBgRYQ3Nqekp3+GGNC8tBT+4devYJz9lv/Irn7Vf/bVf9cWp2TQeACTdWPjixAOu4TmwEmIxBNCof0wwwjUg1q9HGdju05P1GyyFrAiNFeFz2Z5graXSWFWGtvU32xT1twBSSKe5hgJaXw+ZdNfygreiD5cyIQFfLGY5pnxfy+BXFXriOE2yFVDWtzUKDZ4fU9y+V2f/s1jI+krxpMm3hNJ/bBfk1+p8LH+0kRzL5Znmv7si8PN0LY6avqWSjhEvfxMngW2T8BWIcROf74qggu8Nsj9H2PIIfzOWyoi7JsRnYf26bCavPMHHj/XpSNPWdJEbhEQSefiEnvcZdV4+96u/Zk8/86zqUN4bf9YczKhOMNstzY4cqg80zjT2WKho2O+VENcTTzxpv/mbX7Av/u7v2T/+7X9iv/Ebv2Gn1XMHiCprq+5/M9hecBzFiq8lSovFPrFioFyYPMBzsVwHDtHvv/+BFCv7/N7qB8lzoQyj0vG2YUBQzgxhEVB8PDtDooMQmMijL5QnZkPjB0lnBoBh8hNDhH/3d3/n5Y/yhsUVyy4zpQEaOg13I5RH4gDWGHKM/pqAYFwfEXDkd/xJWeZpeKis68x9RFkzjXJPPNQzfD5HVYYnADoBGnAZfFHDDjtxNif3CDo+6/ek3NOBo8PEbOzgUjBxT9uBB03uI4IKGNjLUw1ZHigTf2SMPSVrAra2Mj0CTghqnyTsX8YOACGkdT3TexkKzbFdkgCFWHyZBEXPJ+L7hiqCvMCKho6CACwxlZiX51OEASYHtZyV2G/SQS00hlzDtbkIR/rPj3naaDQ3N5iDwvm+T6RCRt9JEp+DkEjwxpcSqxPSKZwz+41xP26Hzy7PRvrZA7P/e/8/BzVBWloKK6ziz3m8vsG0JZCWyMMrzGBjpthnf/Uf2VNPs51NwUENhQOo0VGhTqjg+0zM+wVq+M78xm983n5XoMaQjIOagItJMCgPJsV4nVYbQZ0G1JjlxnDNhx9edaUFqAFWg6DG1lkM46wJ9sKElc31NbZFoT0M7digAH5YGAA17hVBjfMT+dkRyhOgcuzYcfeXPHLkqMPMO++8a1/72tfWQQ2LF0CHXxdQx3V3I9Q94hgENcCLzsk6qK2u+qLmDGESKJ/oKF/clqWqVE+IB53soDbKbjVhcWcW6uVZuI6yj6Uwghp/R1Cj3sfzN0Bt3NuLR1XuI6gFoa2hMQs8oh6kL5XQ098hABfMCOwJVAJ8sE5bCFj0mYbe7gjgdB0SrgjWNGaChj0d2cdSmKfQaOlYg+P6u81s0ZzVWymr1DsqLDhrdq3R1nntlEJav6X9/Eq1bbU6sxB1T6WFT+LifA+6vqm/Wc+treD30TGPT2loKA1NxdlqZ3w7rGqtozhb6+e0dL7aZj0P6SJeHecandvqKE6C4o33ren3ar2tdDf1nX0nO8ZWnSqznlehEY8BIVcSSeThFTo4wBor87OGX7FU9MYXpXBw5qBNTU96487K7Px+SI00S1gEZXBvhHpFfMFicdxYXJfZmvjlsFQGigpYYvFahn2AJ5QJw7JxfTNgDoWCcsSawSxQlBtwdeMGExXesrNn8bdb7N81CENT+OCh+D688qFdunTZzp0957NGUb7xfoAZaWT46V6DaiI/PQFgeLe8T0B9J4lWpcnJCQcd1jfDwhod71kyA98uygrnYnmiDu0G9Fiqsxk6COjeqFM2yyAsRasWVjDKNT5wlFvS/tSTTzpAsShvGFHK+7aDdG4wegB3uDAwXHrt2nV3a+B6OjG4GFy+fMU7Z1jvSDP35fkAN+oeFjzqwvnz5xxIz6qOsAB2vb73bPKHVe47qG0nDmoKLJnAZucs9dAVpKg/qxcZZ4IW3WrWaInEm2sqDJsXiWXQAKBZE1ytCor4rCis1WJQD7SRsWorZ6vVni0uN2xhqW5La3rhVf3OZtvNrJ+zvNaxef22Umk5PLU6Ajh9rlXatjoQ6gI6fgPIqtx34LeK0lBtAH8Z3btnSyvNcL/Vhv8OuDmUCcSAN+7lcKg4w3EKcMphEKBcWWsqKE2rdV1f1/2airstWPP5jyETEknkERMmHrFkCoqDJQjonc8cYh/DE2r8D7mCoPEGfE4InFjBn1ll90NQSCijkydP+hIhABt/fyiF9Dd/8zf2k9dft8X+orMoje9//3tSOpddWeHkjEM3PkMR1rgW/52XX37J2GwbR+9BQTmhYPGFe1sK9y0B3auvvmbf/tZ37G//5m8dBFnnj909GCoivpgfiTz8AgQxpE+54/tOwm9ADO+epTkAvEajbqybBvRQhoAgQI3fwnmFHeGPkZkso0+5vH+GkZrthfiIh4kKACDlnPKHlRfrN0DI2od0auhMcG6pWNJxlhLBhSnsGML6hviAsozIT37yY7dAf+tb3/TlbPibOkUZJw6uoTPEMwGh1AN2bmDPUZYk+c53vu11hmHXR1U+ElBbx4p1K5BEDTJDCTTKrF/V7ZIU6JkhzhCwHjXbDQFZ1a1qxBRi0L+KtN7s2nKlYwtrbVtYaYWw2rGlio4Lzpaqpu8pm1/p2M2Fht1YqPnepcsCteWK6TMdfl/u2I15gZx+Y2P4WitjK8Cd4ptfanog7hVdV2sK0gRky2we3/8t/C5g0zUVwR+/zerYjYW6zS7qd8W7onRWBWVY21aqAsNlHVecS0o796r0f+NzcbWl63StQG9uuW6La4K9ukCxhbMpS1eQgYkk8nBItBRgjQJi+Hs7YYijIVhZWVm2qpQMDTqO825lm2KHjDFfz4yGO1qUGPKgtz4o9MBRENyTc/mOtY7j3gRF8e/BOs0wJrsCoFTwjeMYyg1fG/xmGMLE2RmfnyXBFus3nf3gA1sWqKEQUZCsAYUyQYlFsENpMZstLoILjKFo3nvvXT+Xzidp5F4Is9suXbxkF85dUPzn7J233rHXBGvff+n76xYLrBVY/Hh+7sWxRB5+obwCM5RtvlMGtxPqD2WGgIUqDL2H5TUY7qSM8Un9Qbz8K+wkwada9bNY9jrgLjw7SKxblDt20KCck16syNx3SmWSDspRlXXqO2llQV580TyMjnpZr1Yrbn1mJjdWNBa6ZcupV175kVvXeJY4xApoEg8ghiUNyxvDrNQ3PrmeugHcPaqyz70+cx5uT0IDmMkQ9OL13e1oqYwaZLaLSvswIPeioHEKEw8G/cGAs1aHMWp2+A9O9MGaxCzSrmXTPWu1OwKdls2tNO2qwOjijTW7ps9FvbPluiBMIHRjoapjNf/9uoBtdrUtoCraSr0gyEsLiARWyz2d07KbS21bFOitCsbm9Xl9seHxXdN1XH9T0LVUE6jVdd1qV8c4HgLnzilu9r5cbWRtftXsxqLuL1jj95uCMwCy2ioKInN2da5hl29W7fJs1a7OK26BG/ddVvw3le+X9Cwfztd0vYBR8Leq52l3C9bp0aiTH8Gfbb/iW3b5wsKhAkeJ3MeQEmFiJG/HDpbsuALvL/jWBT8c1qNiqxMWZ6zWGmGYWWFNHL2mtFdaLAkbwsRwwY5MluzwZNGGShkPuezG+61xvTcqfIZAvi7XsYSy3VhIGz6Fw6W8jQ3l7dBkwWamClbMh8aEc7AysFAt233R88IXAuDGalpRuthDtKZHHiqGeMaHQzyHFA9lDmGWEnGwiC+NBHHVG3ofNVPQO1M8NcVDXGQHZduzpS/JXp87y8rKqs0LSurVhpRLzqfu8562Co0x+QqsfHD2rBrgd+wDNcoMa9BIA3LR4sAimKzEDvTQm2dYJArgQgOPxenFFz9pn3zxRe/5cy1DMVEB0lFEmbF47Krip6FncdtPfeqTDmVYAWKaUEJ8RvgDIJllx9APShIrBtYy4AkLHDPvsKIBVfyOoIRRcMTBdVgdOJ9rUaxsxB6cqcMODFg4aA/TKj8l/X38+AmP9/mPP2/PPfesD62SFzGNiTzcEv2xgJ5Lly45xMSyMyiAEscJWJ2wbFEGKAtMGmA2JGupATqUWyCG+sI+sdvtjYuPGLtevKB6cvTYUZ+pCXztJsRLu+udDJVNyivlGUij7lD36ETFDgiyqudCKN/saYsfN/Hw3DAAdYEOEWnB1YC/6QTxvHSQeB7yh3rKcCv1iTpAJ4i6Rt3ZK90Pq9x3UGMmpM+GVEESjulwTgVMwNHGOtR1Bem9SilMZmxuD2rMFAmghrDcB9jXbgFpWKYESQKhK3MAVV2A1BGo9fzz5hJwVnNQu7HUdEjD0rZSz9tSJadr0zqnJzBKCdbaDnZLWLwEaTeWgLQQgDAgbbHSU0jZnMDpugBq/Xcsa4p7WUodSFusZHV+T3G0dJ7uK0hbrLR1XymiKr9lPL2X5yqCsYrNrui+tWAJBNI+1G8OaR4vw7sCkg4zQ+k90+PHRJ2AGuckoPZgC40xZYbhTPKWIRo2ZN4qKB63KElJoVTefhtfrrO2omO8VwCMxppeOcMeX//6190nB0ij4Y5CTx6LExYsLFoskIkCA9JQaFHcEqHruC/776Z6KcU95orm+PFj3uijJCIIoRiIm+9Anq+Vpt5+W+UPSAO2UBxY0gjup9MHM+Ii7XznfigxYI1nQfGg8FBgUxNTbtkA0rh3RsdLpaJbE1FIDKOyLQ9KiQVwOSeBtIdfvEypPFI+ADUgjU4IZWWrUNY5h7oEpFG2ATbKHuUdSKMTQdnAnwurE0OD0X9yq7AW4AsqVwAe202xjuEgYG0ntJd0uiiDWMzoSHB/6g6QRUcpDnVGoR6Nq4xTNzHeUGei5Zzz6EzFLeOoG/F6no36AqTho8bzExcgF+qEAFP14VF2A7jvoOZLUugvXydeDWGviy8WjTKAFgoomZ7JYFWTeheEKRUeOl1BRReo0NUOaQS+h9/ZYoithepNhhWD8z3DoeI3QQ0TDBiqbCt0+oGJBPiZYZnKWbOd1TlpH86sK3AOe0o22h2rK5Jqoy0FHa/lNylzj1vKB4d/n8gQfuO+TeBTSWsrrxqKmzg9XUoD8fG7p62dF9xkbU2afw3okRJqOLjyW4i3omepMYlBgNBUelm6o6dgbHLv1rQE1BDOSUDtwRZgiAlDxWLJt3RimBB/lq1CQwzUAWv0/AlAGMqKxpwGmk+O45uCgz1+XhwfFOCHnjkKix4+DT/KYRDSonBPhFfJkCfruB0/cdxXVcdKECGNT5QXigAFyG8oSeCL45zDJ1YFLGpAGnAGXHI+v8WhIOLA4hBBjWv5DYsaymdsbNwVHb/xybAv5xMvgfsODaHEEkh71ISyArgDWEwOoLxQRgfLOH/TRvEJnFDGaPeoG5zP9dQhhhCBNAKdH4baqV9RKJ/RioUV+cVPvqi/J7wsogf2EjoRvheu7j9UHnLIo3xSromDdJGeKHxnyyvuy3c6O3RkgDDqJ3AJ5PHd09Cva5wT6w5CnQPemCF6+vQpv+fQEC4AG9byR03uI6htCMqU9pDp6OGThRqDsvPtUljaItUREEibOkyoYVcQ8rj1LKydxCxQ1lHzVIbAjgf6m3cDTITP8Ddx7xZY7oIQYIdjitvvC8To3gNxb72WY/F+MWAIDN9p1ImXQkPBGkivB87FIoZljH0mRQD+nINxxXtgYWQJAH16Ovkk7g1IS0AtAbUHXpRRLF8DeFy+ctnef/+9WxzpdxPaC4ZAWPU8WtvwT2FIh/e9VYAaeubsjxmHH2nstxPeI8oASGOzc5QAe21yPr15lAPnIHxHedDTR8ERLwojQlUchuK3aA0g7tAmbKwDxflY4zif+6DQ+GSSwLSUFIqKLbQ8zIS/CTxXdAwnvqi4Enl0hHdKmQa0gCqsbIAXYTsBzrAyUS9Y8f/c+fM+Sxg4Y7iT78yMBNKwpg0CH2UVOKIzQ3159plnbYTyqDK+n7KVkW4CjspM+lEHhzJNGaUsR8iKdQeJdc23iRNYUc+whNG5wRqHBZz6RydosO4RF6AW6w3nc93Ro0e8XoyMDCveUB8G7/coSUoFIeppV1Y4qzdaHfvaS1fsqy9dtvcu1azSKCnc6WJ5ZNzWzOOWPWVuyheCzbHIWrdqKQVzcNks4gNrtjMK9C4ENwZwEAAdCt76I+wig2mg4WQBXXrM9IYDOHV7LLRbUajdZtybJcTLEAlwSXoDkEVAYsusdHrIj3X697v1PoAABZ2ezUalCQCoiuSfpDsC9N7p7Cp/O51Vv2eQYNXkvfNZlgIoFwv22OFh+4XnJuwXFXI5vSNRpBA7gEyLzaAXVfEXbG5hxRZWOgpdu75qdo1h5ErK2r20tRQeOzRin358wl48M24HJ3IeysWNZ1lYXLb5heX+pzoFiyt2eTFjFxfzNlvJrHcapkZKNjMxZMcPDNsLT4zYC4+P2OhQ6PEB/2uVqq2usVL3at8as2LXFs2uL6XsptK1qOxdUNE6MFb2eE4dUjyK44UnRteBD+vsmuJYXau5FYe4llYqdnW+Z1cXujareBYUz5IAEKiOMB1lpdn1cHxm2P7os8ftjz93QvcqKZ3k6d69058V+U//6T95wBnfhx63Gdq5U4lAxPDLH/zBH3iIQEQvPpFEHgahEwNkEbAas0YZsx2pLwPqepMMAfrj4z4U31JHk85rvSbdrQ7OVsiLQMM+m6yxRvjUpz5ln/zkJ70TkMiDJx9Rl4zCNRiCAAis8t0SAIStzSD5uGF7Sb8DZww5tqRIA5iF6wEYgYonfysEbhUUaog3k4G88evASZgVkwGdMCMmm2OKMv4oWV0R475TGUgTCh3fvH2lFaESBYtcBD7SuhF0bB3Q9koj9xsMOn/dCtdPD/+7giOfOOf+SrhX8L3Bx4HeG70yFiIGaLCeFdXjYgsxemzWtypyHr/ltvTSEnm4hKGNL3zhC/ZP/sk/cf8Ses73QigT9LSxorHNDE73sXd/r+6RSCIfhWA9oizjj4ilKw7fU57RVdsJfpJAGW4BTLyprK0ZPpNb3QKIG0swPpSAGnBG/AxX7hR3Ij99uRsa2adshbQY9G839Kgx34aONQBSXA8B1LoCtaZAra2/Q+8biAKmgA7+2j3o3whqvgH8Bqil0xHUGNLob+vUH1rciHs/cus9gwBpgBfpHUzrzoLCIU2eNrf6lZXmjZBOYakLuzRsDK2G/Nws8T7xniEEAI2ww9/cL4Zw1n0V3YQeHQsrokDZPgwfB98xokjIW4ljbjpHwQrU1IDwd1HnuV9OiCmRh1AAtd/6rd9yUAOm7pVyoPwyfPLzP//zvjl1nHkWh2ESSeRhEYbN48SACGosg7EbqKFDHdQWFx3UGOZk6HQrqDGsCKgxszJa1PgOqNEuJ/Jgykfio7abYMnFnIsflgONICUsh5u2VrulAljXvVv6O8CEX4CPm451mivWqS9au7EUPmvz/rk5LFm3WVNoWE/x8YAOQoqPgslM0zDj1J8+xO/pauueew99ko5ep6G0VHSvZWtXF/SpdDWWrVMjTQseWrVZfc7puNLTbuhWAs9uXRHg3CkAdZhTRXGoBCBZzwYfKj4Zrwfe+kGVNVjFdpKe0tTULar9PJq3VvWG0kC4ae367Hra1vNJ6UrrOdJ67rFSyo5OF+zIAax5DNUGgtvNRw1fMJYWwbes6+9vwEdtoijISpk4zLpKF6tSrywt2o0b1+za1Q/txvWrNj93wxbmZ212fsUWFldtdWXZGpUla1SXrJzp2FgxbRNDWTswlrHpiYLlBdb+pHo998JHjTLIwss+QaUfV10h8VG7t4I/Vpy2jzIh4N+F7xVLY9AOUO93GuJByHuUGdfgD4avDRaIT3/6077ALIon+rvQGfB2I5FEHhJBL1E/6GQAWtQFAI1AWea32Png7+DzHYwenM8ngd+ifxd1ATcAfNKYZMPafnzSWQLcqJdJPXlw5acMan0rTvjHlbvKnO5PSElpYklrKE2so4ay03kCo67gDShqrVyxxtJ5aywSzlp9/r3w96ZwwRorV62xdk2QsuhQxf2y4px8TkpUIZ2iUDe5u2V0H/yPGGbtdgHEMAFgs1CgFVQ5us01B53W6jXd/4LVbr5rzcULVld6Govv63MwnLXmymWdL7BsrepZ8BVrh+VLBF4pAVrwmcNZuGi5DEODaX1GmMQZEwsT54c0BH3WT48H/BgEVE3lT+26NVaVpvm3rXrjFavOvWn1hXeVrg+UlnNb8umiiGdFaarbSKHnEHNoCgtkuC+zd/cCtUozLSDqTybobYDaIYFaLkPesl7Vol25cN7OvvOmvfnmT+wnr71ib735Yzt/9j27dP6sXbl8wW5ePW/LN89ZZf6i0nvZCt01K2fbNlJM2dR4zg5ODamxCsNZPP89ATWF2OCxubYvKVFPQO1+SLCoZtxvLDgTn7CDB2ZsqCzFJAWzsqrOhT53Eq7FAsBsL4ZwsApgRWMYh+FUFE90uk+UTyIPs9Ae0SkBtOiUAFt0bOiAUEdCeyWdiOLcIpR/HPDx0QTIqCd0ZhhSBdTo3PAb5yXyYMtP3aIWAYOlOwYhLeypyRRkFsMLoEaj220J3Bpr1q7OO2DU5991QKvPvWP12bf70DYQgBAgSqDWFohIvVo2V3Kfp2Kp7D2JtCDNunV9suhuGHLrCNIARSrCZhls+NWLEaS1125YfemS1W68a5WrrzsINRaVnkWlrQ9p4dg5Ad2HDmk9AZGeMMx6zTPUqx5NRp/97bMyKcGNfisAatkAS4T1demUFyQt1M+QhwiQRrra9Zt6boHO4ttWufmKrX74XavNxrQJ0jwM5tMFZXzNt/UaGcrZ4elhO3QQiwT+YYJZ3XM3UKs2w4zPWlvnKS0dSwvU8n1QK1hGz9rT+1yYvR4g7dUf2k9+/Iq98qOX7K03XrOLFz6wK5fO2+zVc7Z086yg8pxDWmPpqhVSdSvlU0pXwQ5OMw2cBUHDauzkwb0ANQo/75q3zaxPf0Y9XwJq91bcii0lA6QxvMOwzqGZwzY6MqbfMsauBFevXXXls5NgJQDSovLBJ42N0/kb8MNil1gIEnkUBEhjZiMWYiCNT8CKdg5rNPUEX7TtOjZcGy3OsZ7gwwmk0cGJkJbUkwdfPoJZn3ciFBxgjTWU1Ltur7rlqtus+tBiuzKvMGutyk1rVm/4sF2nqXNacTbjFsmWhKQlfUjBDx+1gkJ57IiVx1Xoh6ctVyx7CI77+MalrVpfEYDo3l1pZlffUZSuxqruy3DivHWqsx5aawqrs9ZUMEPJEG6tPKlM3rJl3bM8ZbnShD4Jk5YpH9Lxwzp2wPJFgiAp3bFcBuzZ6C31UjkPrKvWarKyOvAkqBTMkgedtQ8FjgrV6z7M2dJnc1WKT8GHXHcSVdbi8IwVR2bsoBTn448ds8dPHbGRyWM2MnHM8kon8NURcuELsbq6ZmsVlY16zyoCmRWB0ZK+r+oWbC7fFnhPDafs5GTajo31LNOet3R7wSpL1+3m1ct2Q2F2btbDWuXWRRiD+ySdg6yNT87Y1MEjdujwMTt5+oSdUhiemFF+TVmmMBEgjbXqHCCrariqtuRbhKVsRWmrNAkA6JCNKxwYG7LjMyU7oRCXC6EaYM1hIWYgdFWN4KoobXGt42G13rE13aPSDEMKtG2DzVsy6/P2hPzGCkC4ceOmXbt6za5cvmJnz31gH5xVZ0KKaCfBoham5x912GPBTz6BMxQPvyeSyKMkABkz2gksxcGSG6xHiD8agSHPrYI/GtY3Oi6slcawJ9AWl5NJAO3hkYcC1NoNQdHqNQHHh9ZcEXSsfCgwumndTl3wUXN/LBbG7TlUbSP4czGbU5CUyQ5ZJle24tgxK44ft5LC0MRxG548od9YNmMvUDNrrF63ys13rDr/vvXqC9bD7wyQbCk9CsrJfth8nQtDq9mignoySg+f2fyI5Sces8LEGcHjYwqnrTR6zNK9hnAFy9sG8PWUvl4qzIiNoNbo1KzRrlqjojy6/gOFH1oX3zwdJ3+6rapCWHJkN8nkSh5YmHR0pGwjwwoHP27DM88rv05aKq8yoLxjYker1VTApytYQH3ShxqLlmCHYU+ePNurWam3bIXukrWWz1t7+Zw11thKqCKYqrgyrtVvnZkUJJQBgC1fKFlBIF0qD9vw+LTCAStNPWal6ac9z5QhOlO55KDFwqgt3+ReXKX0sMgwoWOF/JAVckNWUnxYu4ZKDHuHxor0UhWY4AKwMfxJYMYxodluemiprJGscNWGJKB2++L5reCALbiuVqo+7BkXud1JUDBY5PC94TOGOKSaKKBEHjWhQ4OlP04aoI7wyd+E7YY+qQt0XrBA4wpAoM7wN8cTeXjkgQa1dnvJ2i0c8a9ZY/4Dqy98IFC74haidnUunHqHkhs+ZPnRo1aaOGljB5+2sUPPWC4/KXAakd5n54A+qDHsygXKm2677j5utcULtnrtJ1a58YZIYC2ErhT4HQrgBnAUJx+zoamnbfjAswLHJ6R4WAgXC054RaSjmxKoWVHpyvoWWm4Bqs1apXrDaktnrXn1e9ZQ6AnO7oWUDzxvQwc/obQ9YdnhA8q3g4xf9X9F+r6Dgsm4YHCPte4EuAxP874Aa94dfnH4592xANy5YQ8Fpad86BNWnn5W760s2EVRA0QRkjckFPGefmfm75DyM5r7dxqS9DfuEobe8ZPUZ1cgrs/tJAG1RBJJJJFE7oc80M4zvVbNOrW+NY2JA8uXfLgTC9HdCsOkrbXr1ljEj+u8VefPWnXlmnr3aw6qWGE6UvDo+BAEHpVZq82+Z425962zdnXd+V701o/1ziRAzZzDTHXuXYUPrLJwwRpVNqLGGsiabyzLIUjrCtB0u3ar7dY+Fs1trwler/9QkPZda69cVJp29u+5XWlVbyo9bwhKXxFwndc7WVT8VaUD/z3gjBl6BL4HZ3ysi+RVc/myNRbOWm3uHeX1DesJdO9O9CIEyoBxt3LD2sqvxuwb7vfH+wzpIE9ISwzMKM45oIWlTeKOEREwtwsInwAez0ScClsAMJFEEkkkkUTutzzQoMawHT5p+Fe5JW3pov6e9eN3Kx3BhIPa0gWr9UGt1gc137Ozgw9NGJpxe0xX8FYRTAmkmLzQFjyKXERMSouA4G5kHdTmAbV3rCIQrCyct2Z1WbAoUAMw+v5zvV7WOu2etUVrXWbACpg6Dmo/sMaHArXlix7fvRLyG1Cr3nxF7+CcQG1Jjxt2kFgHmD4gOdj4jFNBcB/UgM/a3Nv6+7re2y4+cvsRJko4qK1al+VGmBhx83W9iyuKe209HYMBYaJGOhOGtcNCwfgw7QZqhCA9LIW+TAshAbVEEkkkkUQ+WnkAZn3uJD1rMmtx4W2rCYxQ9O364q4Qwpg8M2PYhZ9p+qynxIKBOFWy3MLghrQumMqklBkGYz00y5QtVRy3VH5Y+dCUWta92BRegNGtr4QZpAvn3MrUw4IDNGwjLA/ADDRmtLFWje+jprQw0wanTtbH4Z741ACCwR8nQE5cHw2fuxy+WUMTls0BGJ5SvRu9HzaVbwvQGks+YaA2/47S9a7nkcPMgJAn+O/gUIrTNWliuxDSRWAhRZyyWUwRv4XoB7EhpKtjqUzOssqbTGFECcHKxyxV/BzIww0hH4MlTRAlaMQCyppyIa/3FtJCGgkswcC0dBzEo49GEF9VT596VqUtnR+yjELKhz6VPPwRU6w9F5Y7AdDSPtxJ3m5A2M4SzwHUA4gGSOMZtoe1ZNZnIokkkkgi90MeQFAjFSjIrtUX37PqjVetNveWK3t8xMLv2wtOkoAHYASMsPgl6yuh4K9du2YLCwv9MwdF92LWZGNNgDbkMzIzpTFX0My27DmkrVmnuhCWscApngkEQNoWKIoClP3SL/2ST4f+uZ/7Of/O9GjSdfr0YwIHZk6GqdU40m8AiERx+gSA5qogbdxKYzOWLwhC+E+gsb50ic5hRmdj7aIA8pz5+mwCt61CngA7QA/w89nPftY+//nPe/4QAFqmfDONm/SwBQlOqlslzUQMAaxILUBarmxpha1CftUX3td7e91apEnPQf7uV5g6/uu//uued8AjDrDALLM5md20Ibw3hjZbPjmEtKTSOQ/pHNbHuKtDhDQgLgLYfmFNZW3dMteH6QTUEkkkkUQS+QjlgdMg7uPUYVV9Vvpf9OHJ1to1QYiU9A5ghCUIixGWLPZEY+HLX/zFX7TPfe5z9mu/9mtu3ULhbydY6Fr1FauvXrdm5Ya+z1mntSx9zMK4OkGQ0dW9WX7DV/IHGLGmbYEPLFfMqGHqMxa9F1/8pK9Zw+KC3P+FFz6hv3/RoQ1gYysd4IlrBgVIw2JXFxA2K1fDbgbAzoD1jsFYhhHZ7QBIY9eBnYaDsdrx7EzL5p7cm3Sx8CHwGBdBBCiZvh0XU+S6QWHx31ZtSaB6Vfdb9F0e2BYrbGWlQFGCazotvbdl9ytk+HM//oTkHVZG1gvi/bENEEAJSLIVEFY2rIKDwnvznRf0brC0MnTMfbl/8EMLlrSwHRmQxvNsWMp2D0j81FW7TjxIJJFEEkkkkfsnD5j2STkAMTOwuXrFIYUlOPYSFDxw9ju/8ztuiYmrLrPgH9YqrFbbTV/eKkxe6Omevco16wmOUoJGlv5o1xYFTQEWdxp65V5xI11g48iRww6dP/7xj+1P/uRP7Ktf/Yq9//57brUivfE8rF3bS8+atVWrLF+zyooAshGtXAAElr6qQyz+XyxbshMQxaFPFjcEaBcXF+3dd9+1H/7wh/b1r3/dfvKTn3iagEssa27FEqxtXa06AJjyYfmS+w32Oh0HoXR6yNg/NWU6v9UV1NaVNuXRDlC9nQCSwCyWNMAR4CY/YyDdPMe2wjsCpgWqDmnGgsXs5To4caBvHUskkUQSSSSRh0weIFAL1o5ep+17dwJqrdq8FPD+QA3rCxs9Y4lhs1mgCUBhrS5ADWjaS4CfXu2mdSvM6Fx13d5lXa76gqDoqlvTdhrGAyjwAQPAwjY2R3wywquvvmb/5b/8F/vKV75i7733vqCoaQcP7g1qDP1i6assX7XqynWBWlwUFgDqWsdB7arPqGyusNvB9ov9YhkjH6IPGsO/gNoPfvADBzVAEpjFd+7I0aM2pfNGBU75LStW89wAa4PhTIGatbsOQ8ymdDDqCdR0rOeghlP//sEIaxqWM1aXJ18ARtJMnmJx3H0RU2Aa61rNJ1ekAbX0qAIzZRmuHwS1BNYSSSSRRBJ5uOSBs6i54u0KrNqsW4VlZnvlCkQwRIcSJ+RzbAWVsbW1il2/ft1u3rzpW2vgDxasKnsL92u36tZuVq0jpe/HeqxVVhdgcWy7LaWCRP8u7v3WW2/bd7/7Xfv2t79tb775hl29etVXlO4IKMKQYkpQoedUVDsDjfJC57pjvEJPz8EemrjR+xX4sjFErHRh9ePv7YSJCqTr8uXL9s477ziYvfrqqzY/P+8wxFAtEhdQJM+A285WuNX3jfeCvxY+c1isGPoEovRc8Xl2fKbNgiUNKAMSsegR8JXj3dbqeg9KO98HgXE7cYua3luvRdrihIwIaIkkkkgiiSTy8MoDBmr7F5Q3jvJYXTKCGLb9mb05a+fPnvPhvPfee88BBSsS+1Vu9bnaThgexfrWarPsRViDyzc4B+DagiIcywMm3SI4uwNDQNDXv/739md/9r/sy1/+kqDtLY8TixBpIc3NRtMWFxZtdXnVv+8kmWzBcqVRyxZHLKXvXQEnoHY7grWMiRSvv/66W9G+973v+SdAhs8akETaPvzwQ7t544YtCOBWBG2NwQkOtwjwFDaS3wCi24eiuLUJFkiskVhGC8Wi33tlRWmos9jsXtCnNyKo7jbZhYEFiePQNNcNhkQSSSSRRBJ5+OShBTUEixrw41ajRaxGV+zcufP23rvv2cWLl3w/yuAYD1DsDRJAQUeAFnzawtpoHOM7+2m6n9sO4MDSHzcEOgAiIPS1r33NvvWtbzkkAZMM7zGMF2Z8Vuz6tes2Nzd/65IhfXFLEhvEM4MxV9SbyvqMXEKAl/3BB88yNzdnH3zwgb399tv2xhtvuGUNqxm+YEwy4F4MiS6vrHjamn2L2o7iWUnRieH2II37Ac4MxzJLF1AD0nhXvEs2RK9UKw5se4Ia+aH30xVI9xSs/96C7C+PEkkkkUQSSeRBlYcW1FDgWIuwZAFIb7/ztv3ghy/bxUsX3Fr0IAhDi9FJngkODOs1GnUB5SX74Ss/tHffe8cWFhf7Z28WB0TBUlvnt+o1hboAqi7wqgsYsTSFnQFuR7CcsaYcwAjAYXFk83GgaXRszNN34MBB/9w6G/VeCWlgqJq8YSNtfNKANZbeAGzffPPNHfMkkUQSSSSRRH7W5KEGNfzCALXrN67bW2+/aS//4CW7cPGib/D8IAhWNEANJ3mWxWDmJZasS4Daj35g7777ji0ubre2WxBmT3bw1RJ4NhsKTSZGNKzTZRgWH7rbBzUgCQiLvmtrq6tmKUBt3AGNiQ4R1PbyDbsTAQojqDHcGZcqWRMwfuMb33CL3+K2690lkkgiiSSSyM+ePLSghjAUCXAwfIhFhuG7arXix+6VhGG6jGVw6l9f6mF3YSYn8MHK/8zsPHnypIPl2bNn7eWXX/ZZl1gBV1ZX3Cq4k+Afx7Brl1mNnaaeqy5Ia+hY3L5p7yUwGE5kiJH0EIAj/ibPGA49f+GC1QWCOPbjMwZMkv77ZVFjqJr4mZXLsCtpAQy5L8OfkxOTnhYgd1LnHTw44zNRmfQQl+q4HwC5WcLQMvnbYykUt1wSkqHURBJJJJFEPlp5qEHtoxDgDEjLsjK/gG0/kMACrXFXBEANyGAWKhajL3/5yz68t5Nv2nYSYAEfudrAsCcWNUBtd3jAegUUsaAtC9uyDAYzLfFFY9LFW0oLM1KHmQE6GoY/ATaGSO+HEC8L/ZIvgBmTK4BC/mZx4hdf/ISdUHqnlA7S+dhjp/1vtgYjH7l+PxND7kx4t/H9kq/kO0Ac9xDdG4wTSSSRRBJJ5F7KAwZqETpS1sN6BRTdb+PJJkmF/9YtZ70AauxzmS1YWp87gRrHGVoEPPC9AorYHQH/K1b7Z6HZ1157zZfsuHTpkl/DubtDR0yLUtLrGPuPboY07pvVPzG9twr3ABzxBSOw3yjghoXvwoULHhg+LguWhoeHPK1Ys7a1XPn7SOtOG/eLp/i5/OYH+ge3EcARGMSyx72wfpIWrGssdsvEgpmZgzYuKAPkjh49pr8P2YSuGSJduv7WPOvnk4ed770/4XqsaaSL5WEANAIWtQTUEkkkkUQS+Whlq8b7KUqANNYL6+XL1i1N6XNEf9/ZHqPODfonhP3p77BP5LBlcmOWyhQ8RSnBFxuRZ4emdXyIA+HkLYJVCAsQ+3wCGyw7AbDhnI8lCEsWe2z+8R//sX3xi1/0CQbsvcnQ3/aiBDPbk03iSwpKV9gJgJmjCtlhy5YPWH78hOXK0/p7804C2wnpwHLFFlJf+MIX7A//8A/tN37jNwVNx30IdmVl2W7euG6zN2+4xQ2AisJabhmlIVtSPhTGBK3cb6P48Ltvjq70stdmWLrjVhmcHcsw8Fe++lX70pe+tB44duXKFV/XbXb2pkPt1asf2tzsrFv+GKbdtMuEXix7kOaGZixXOuB7ft65EG/YP7TbZdJGxeHY3JK2kReJJJJIIokk8lHJAwRqiJRhKm1dAVGnPGldKeBe5s43gwfO0ukAa/uRVDpvmaygLC8QSQMiXXGZAKUIqE1Zms3RfamPWwVQY7mLCGrsmwmo4Zw/NjbulqwvfOG37F/8i39hv/u7v+sTDJgJim/WtqI0p7ICnqKgsTjhAJlOscF4CKQzVz5ohbETvpF8Krv3UCVDmvipRVD7oz/6I6Xj193CxkQFQOiGQO2mg1rcCaEvAq+03ktOAJ3JjzrIbljPevo758AUQU0Z6JdtFWbkRlB76aWXfMeG//vnf25/rgCocWwD1GYFahd9jTe+rwBqAr3NoJbWfckLgZryI5PdvCfo7UnwS2OiRrdXs063qr8bOppY0hJJJJFEEvnpyAMGavCJgECAAixlpfSzghS34AAiewAXFiBmVTKDkIkF7BLAIrR839lpH5rLmgjDUm4RGvOQwpoFLOGbpr9zQwcCoDjAxYVeN2RwNiMAw3Aiw52slQaY8Hc+n3OrFkN+OMzjb4Wz/6C4VU/p4Nmx5KXzZSUvrxtwT6w6IQCQnFMYOyZAmdzRosbQIukIlqmwQwJLczAkShq4PxCE39y5c+d83TdmgwJEmy1qOcsWxi0/fMytav4+HNL6ovcGvGF1y+id5coHdJ4AcwtAcm8mfuCzd/HiRV/TjXuzMDDrvDHRgkkOTLwgkCbSTZo2bwfGvXVPywsMR92iBrA6JN6hhHg7+hKHO/FNSyYRJJJIIokk8tOTzP8n6X93dcSCqh39c+7DFTurML/ctlYn5+GjkrT+y+B71Vg2ay1bzzdm70p/6nMXh24ACf8qIAQBzrDM4Bv2/vvvu7K/RRiiExhK01th9LgVJk4Lfo66wscnDSDwbZx0Xqsq4Fud8+2K+rlFDC5AF+DDzMS4cCuAxCK8V65cdlgDiAAUwCNCJNYjQDIKw6u58pTlRo56WvKjR3SsrFTofilmIQogCN2W0tSyTDplneaK0jZnnbrya4uQJ6QFQGM4E9jBqkU62EbqktLwtmCJiQVvvPGmzwJdXFjyvBucPYu1rDB60oqTT1lRn7nyIbdkRVm3rgl2Ok32RBXo8c7YNWCbfUiJm+VVuA9QSOA7oMv7I63AJdY0gC5C5oYArjm9viErTT5p5QPPWl55RprCsOztwFUEzsHJA03P5/1Ko6NOgsLYcN6eOznmYbiUs0I+a7nsA9cfSiSRRBJJ5CGRBw7UUPjMsszhI9Zek6KvuNJne6BOY0WJ3ICHrcK1OMEjKH0sa8ASkIaiR/nfIvjA5YZNRGSF8ZNWmnrMQQ2LFcNq7nuVK7q1qLUya83lG75dkVteBtYx475ABlY1rD7cGzADxggRjNglAEjjE+uVD+mt6Ln6ksV6N3LE0wKk5cv4xgEewbl93bE91bFMJmW5fMnaNQDymrXZLH2LREjj+YFWQA0oIi3kDZMJ2P/zhz/6kZ0/f9634cL6NwhpCFbN0gRA9ILlh4+4NW+ztYwhZuBJSKn35cwmmAQiSV8UrFaDkNZQWgh85xgTMuJivKQZwCWfwtIrg+vjYYnkvQiOBWnlmY9bYeSwQ1qcgLE/iZBG2vp5a4CawsD73UsSUEskkUQSSeR+yANpUYvKM1iNgKWc7+HYbUtRu6FE/2wDbIAaQ5CAAEACmAEpKHqgBBjYkL5FJjdq2bHTlpt+xooTZ6w4cshyBSxFGwrcBUtepyGQSAtQuBZL0YYfF/fl/sAGkAZoRCiL1jQCfxMAN4IPMzaabsHDGoRVqIhVb/IxyzGBQWlxaNxGQgr1vM2qb6HkR5QG30opZNQmwdKHfxfAQ9q4/4dY9/ogVNNx8mjQBwyfs/zwIYHjaStOPu4+cQzNMsnCLXzrM1EJbIrOOm8CWX5TfvkenC29N4cnxbvHEheAGvfn3ZEm3ht5RJ4Ovj+GVYsTJwVpT1pp+nHl26EwXO1lg3uEGbvkz+4yCGqUKa7tA3ECaokkkkgiifyUJdUbcETq6msbhdPq2NdeumJffemyvXepZpVGSeFuZtPdmQBmHcFQs3LVKtd/5KFVuS5eWhScbHF2lwBKwAhDZwS+ExjqIwBRG4LlLW/p8owVjnzS8grFoSkrFoct7wofCEFRkz1S5t22dWrz1q3PW33+fVu79mOr3HxTvwUBMLCqEeK9gTeggywmbQSEY8Ak4IF1q9XuCsjG3QcMQCsdfNaK00+6xcqd9redwACQkLauNZcvW2PxgjWWLlp98bw+zwuSbvXJI21MeohrkRGwXgG10f+LdA2CGpY9IK0w/liAtfEzlsJnDp+0/vMMCpvWM0Td7dSUjgtWvfGG1W6+pXe2ZO36osPbboJFkkAekg5CtL6RvijA7PChF6w885xlGYYtzQh2mUhAujKWTmFZI8S8Wy/mWyQ+Q0/3Ckuf9HpMWBBgCjz3KyvNrofjM8P2R589bn/8uRM2M1Gy0aGClYvbg3YiiSSSSCKJ7CUPqEUtiA87ZvEVy4uTGlLyLR1LOyS4guVzk/5F2QbFHn2xol8Wx8NEhYIUetnBKFOcthx+aQee9pAvjluOiQxRuacGIheUZLIs1QGw6j6tqkLNYYr0se4bIFGvVd1ihQWIoUY+SQOfMVQqNZ1TtybcIRBjskJ+eCb4pY0BRictP3JYj8e6bdEaA1AIrpQOhywsjQo9HQsgqDSztElXoKG8Yn214FvH9bpW5wxaGmP6+A4skvZuj/XrmBRQdF+5bGFU6TllRcFjXulyC5/Sqpvrvh2FYHUaDAzR8juTMERrARhJn7+38AyebgraNhLTyLsjXQ6Q6jxYWlCd13vLjSjLxgSMJ6188CkrTz+u41gdKZ/ET7x618azB9/C3YVrgiQWtUQSSSSRRB40eaBBDSUarDbB/8nXMxM8MESYYQJALyuAE5gICILsPqwGVGVLk5bzobxTVph6woqE8WOWL49bXhCXBQjwW3O2AYD6F3vu6LArfsFSNmfZ4qjiYzkKlu3QNVL03fZeG8ITIXmZ1/UTArIjVpgQnE2ctuIEQHQ0zJbcNHuR5wdwMpbNZJVOPgVl+q/rwKN0AnUOdjnxmuBWadrw19I5vZZCeIYdRYBmQGxxUuB4VPlyWukiTcctO3zA4S3cg5PD8OJe4rNmmb1KehQ3FsJeN2VdH8Ykor3j8XXSyoLqYeXV6Am36jFMnR89ZpnyhKLBYhWANKQNkA15kYBaIokkkkgiD7M88KDmylcQ5P5bw4d9eDAAQ8EhrV1bdUubW3L2UKzAQvC3OmGFySf7Q4yPC9IETFmBE+uopQtS8gyLem74Z8otawpAj6AA4MsVx6w4esjj1D/6tesWNp/wsKugtIlfcQwfVDpOWWn6CQeiwtSZsAwIkLZBiJIAaViIgLQCQ6sZhlWFEp2O8qJveQSGMmXL5kb1KejCciX46HXx72PG7G75o/sJpESOli0ftNL4YzY0+bT7pOVGle8suovVKubFPoRZsxnBbHimstIHfGYEaXpvVYauiSfC0c4CuDrQ+jDsGSspXXkBW6Y8aSnPqz6MeghwT14FWEtALZFEEkkkkYdXHmgftahE+Ted7knxSom2ly3VXLBufdYaK1essXzFl4Nwn6JO3ZV0epBxBiSTH3JrGiEzdNCyQzOigGFrtnseUkwuEKilBBMo6TALkIDvUvSPUuT6nuoKDrsNa1UXrVlbtNbanLVWr+vzhmWxeOEfx8QDgQ0hSreXtlY3Z02Bb5rFY0eUjuEDlme2Z4kV/weBOFjS0oIO32tUIZvpWU5BCRI8h9ARqLaZYdmqK0kVhTVr1ZasVVe6FNrNVWs3Vi2XaltB1+Iylc3gzyeAUDyAeYf3nhqyppWtlx+3fOmAuO2AZYvDlilgDbvdJS/0zpT2TJqg52jpvbVWrFOds+byVWssXdMZADaWtT1AjeVKGBoWQGYLrKs3YT2BaEcg1haIdbodBXwBA6ABZ+n0kO7LmnYRundKeywsiY9aIokkkkgiD548FKCGX1Yu23NIKWaAjaago+6A1m5K+TcFJs2qddo1hwIxiBS0X7pJWL0fHyusclhiWPm/1U3bcqXhodvDaoUVRsq+P5SG4kZhA2sbAigJLhTwnet2mg5IneqydWorViwVrFQqWiEvYBNgZjP4TAVpd1O21kxbRaGVKlo3KzBSOvK5nOX7ExCiBGsQw5x5xVWyAmkW2KQccBj4zCldOb2vqjWaFWu1625dZIZsR2lqtxT06SCnMJTt2nixa2NirlIhY0UFpNnsWFPvfKVZsJVW3prdvEBIJwla3S9vS7r2KwzP5rM5pTur99YRIHYs3alaW2DbEUgGQCPsDoDp/o4HmcKo0pF3a2qzk7Jaq+ehyWSDtkBVUSWglkgiiSSSyKMkDwWoYf0ZLpoNl8xGSmmFlJXFET2ARYq13ap7wKKUEU+4BWcQ1PRcPGScnACgxRNqjbZdW6h6wLm/K3DrCo4YNmMI1EFtW6U9eAPBYa9jOZ2bk7IfVmKHR0pWKgq+BGkFhQgKylpbaaRsWaEi9qvqERqCDaAvxdCb0krSiD1CR06AWcoPCa6GlBZ2DAh+cCm2k0oX9QxrVm0sC1jCcWyD/Rj0zGwqj09dWpDWs+lSz6bKPYeHcgm/Or1vgRphoZq2hVrG1uo9q7e6CmwE31XSAlANPvFuEgtUUfA5LGgdURgfytrYcNYK6eDHF5bsUPo4cTuq9kj6701gFt4bVr0glVrbFtfaAuyW0tuwSh0oJe8SUEskkUQSSeTRkYcC1MqFlB2dMjumMDmSsrGhlA0V+Q0fInywWFICyOm4zscCN0gVgEaADYEBzvA4/vdlpda1c9fqdvZ6w5YqbVsTANQFTxn81VzJt3dR2twEKEwLJDN2aDRnh8ayNjqcsxFByVApY4VsV7CmLAYWBT3kb7WdFqBlbH61Y7PLLZtfaeneLVuuYgkTJqZ6Hu4E1Hib+Bnmc2kr5DLKp6wdGM/Z9FjOJocEa2LUMUFvoZC1fB7LoZ5Q92y3e7ZUVaj0bGGta3MrSpsCALRWw2LV9nMHh3F3Ep89qs+xobwdEqwc0k1nJjI2My44zCsfmJnaaSntaQdJf2lbhfzy4UzMZEqnT2LY8Dcj7z6cawqwW0pnXemtO/Cm00A2FsAE1BJJJJFEEnn45aEAtbFyyp47YfbcyZSUvdnEcMpG1pODD5gUPv5gOwzPdVkbTGH9UQfAYFFQ8saFlr1xsWVXF+oCp5qAqWPZTMFyvq/nbqBGVChhQYiU8rMnR+3ZEyM23odJLIBFMWEhC3SENLRFUc1u1lrdjF0VaFy4VrML12t2cb5hF+canvf5VFf3vn1QawjU4FGeE0AbLQvSxvL21LGSPakwPZoRUApyC+kwpJkh/gBVXLMiUF1WuLHYtgs3Ogr6vlS3m8oTgA1IAyB3E34F1DoKM+NFe/zwkJ05VLYTBzN28kBG70157+9B7y0jqOqn4RbROeQXkyVc/JSN867Nt+39D5v2wbWGXZmr2WWFaqOr/MgK0BJQSySRRBJJ5NGQ23c8+sgkKtAwjMnwZ176riDwKUr3lhSwtA0VM1YuBcuRD+dtF0pZGyrn/LOs80v51Hoo5hSvAo7/DJlyMx9w20mvS/gJEOko+0YEQydnivbEkaKdOpS3YwdzUtA5mxrNCtaygjXSh3Ut52kYKef9+MRw1g5N5uz0oYI9dbwkoCnZ6ZmSzYxJsReyDjuAMxalbpeZt00HsbaAr2dZhYygum31JkO29QA0SlguAxymBGXEXbanTwwrXSU7PFmwaUEbsxI9L0SQ+KgR8FcrKZ9Gh3J+3ZGpvK7N2TPH8/aYnunQREGwXFC83Fe32SVv1kXp5w2Sp7lsSu9Nee15nvZ3MqQXyNDrLe+qH0gPv6+/N9I48N6IT8mx7NZh7kQSSSSRRBJ5hOQBBbUNSNtRpJ0ZNsMiw3DXbtraZ04yJJZhssDdPzIQ1VZo9dI2MYrFqmzPnSzZYzOCNLf4YdHqCSyFVIzscZHSRxrYwYDlGgDOyeGMnRSoPXuybM+eGLJnjw3Ziemi4C7nIBhBrdNtWatVt1qjYu02FiYsNFnBW1vHVvoAF2al5gQuQ4KhmfG8Pan4Pv7YqECtbJNKJ3DGcKdbsRh2HMgzvjFcOiQoYpgUUHv+VE4AWlCasMYVBXS6ryANkN0XrG0j3NIX7M3iR6Y09I9vFdK28X7JxJ3OTCSRRBJJJJFHVx5QUHO7TT9sFlfg0tnYa4AuBw4UOkE/bBsGzkm5BQalfxeKn/srLqBrSgD02KGiPX6kaEemMjY5woSHMOSJdcsd+XU/X6ZC5zPkCKjx20hZQDWRE6wVPY4nDpfs+HTBhywjUG5Y1BgWrTmc+YSHbrCoMeOz1W748hTcB+vYxFDODk8U3JJ25kjZZqYKNjKUdetZPsdSH0oH+RHzpx9IF+eMCSAPT2btscNZOyX4PKY0HRT44YfX03mA6n6EfE4rv+O9wruL76IPzTq2fu5ACNfGd6agv+O5iSSSSCKJJPKzIvcA1ICpMCswfEeZ3o1CxVqDPxm+QliJiHdAUOLROoYC1yGUOWuX5fNYjG4NgAnKn3Q5JPStNK78b0OwIrmjfiZtE+W8HZssORDhrD8+whDi5uwk/rAH6EB6cjkHl8F7M1MVn7Zj02k7IkCaHGaoT+fqmXjAaFkjX1gzrNkOgbXPgmWL4dqUZUV/B8YFfMeG7fjBkk0IuPK5DavefvIppCvmU8ZGBXhHpzN2/ABDueQjzxj82vYSnpOlORjmLBTyvrZcWg+7Nd93zyd+D2DHOaQrkUQSSSSRRH5W5B5oPWAhgMRm2ayM9y8B1IJjN4vNbkYClLpbWqS0Hb74W8G3VmItsm2CK3id49ei9KPC5/rbEFICNOUAtaGcHWVGo0Dt4IRATVBUzG/OTu6H7xsbjMe05AQupGdQSMo4oDaVtqOTGYFazoYEKzk/T1CEVc3hNWya3mx3PWBFC6lC8OHL2PRYwR4/OuKgNs5yGO7HFR6VfMrtkU/r1izPpwBnR6ezdlywNjYUISuG3SWdSVlBz1EuFfyT9diA7K2wFfIJqNxIS8gnzgvpcXAE0PUZ0pBIIokkkkgij75s1pj7FPQkOtRXt1fAWZxhM75n9BmsJv2Tb1MClwEggpJey1rdujU7dWvre4QSV9zcoH8TlHiwFOW3D33F75Y1hfXrb0MCpIVJBNyLdcGOTuZtagTrl2BMeRD5A9gBenICkwBpm9ODdalYLHq6fFhQ15B/pWLGhssAEfHjPM8Ehw0U41uA4n7oH0V4Gl9vrpy1qXEmDWQdHNMb2eSQAywNpiWGHEHpya7nUwCiguIYLacEfWEJkmI+7LjAb7yrwTRsFeWy7kle8ByA1uZ8D7/FfCIMpIl3liUEYCPt4UE2rk8kkUQSSSSRR136aHF7gqpkNh8O8QVfryuEfE5KV58AgytWP3O/inXw3DjM17BGu2J1BVbY34wmGxItaij6bYMPpfG975h+h8KSr+0eUJi2CQHa0amsgApI65/QFyAHwAhDeIAHoBjSUsgXBGQlAVXZYQ1wAkDcYiRoYW/IUcHaVH8pDZ+Jui7bfQd+yAN2QGDHgbT7o+Grhn/coOCfx/Djprzph5hO9hEN+RSsfh5nXgCoeJlhO6SXXtBB8jwMyfppdyS8i835tCVNHFfg3d7Ne0skkUQSSSSRh1XuDNSk/8UUlhMIsGQGjvFuXeN7FitJgIfNYLEfCecDZD1hUbvbdGtas1Nz69rWYdAoQA7Ag0Vo24Blpm8p2gw+tyf4gXUUsBqOCKZmxjO+UwJLRAwKw4ZY3aKlKOv33wiFAltMlQRlbAIfXgGWJuCImZcjJSYEpN1SJ+bbIremnyO+DIbyHQsYy1kUALUt6cLXyy1YA2nZFPrpdIta/1qejaUwSoWUlfNY+fRMejber78OYM3PvH0hn4hr/f1s9w51jLwEDBNJJJFEEknkZ01uE9RQyV2HqGhKYQ9JZh7WGyvWbtd1HJRxDd4Pdy4kbn2Vfn3/WVDVABIWOyxrcYhxLwH22CcUa1gWH7D+8XsrvMuOpQXMbHW1v+kEiSSSSCKJJJLI3chtg5pbtYIpxY+wxhcbgteaqw5qQYkzSBjPCefdicAoDMARbjOhD61gOcLKxIbuWO72Y0jCSoZPl4Maps77RLSpHvuRspUUi+ve+XtNJJFEEkkkkUT2J7fJPxsEgI0r2LkEE8zGSzEcdu9xClDxcBfAB1wyW5JZkl1mBNyhhKcNjMJWW/VWz1rrS2TsV9iqqOvp4XPrcG6I24wN4n33pP3ErYuIJ8bbZkZo59a470SIodtLK+9Svv1Vq5+PDHg6ROofPhJJJJFEEkkkkXsvt01WYZHStPUUugrpDI7oQ1YsjFg2W9RxthnS7w+Q+gYsWu22tVpt/36nwhPhn98TsNTZ27HWdVjr3AYQcSow1Wo1BVRtd8gfFCCtprhXqzHu/g87is7RMzVbLaWpaY1my5r6JO57AWpAWruXsWY3Y/V22mpKU7MPpwzLJpCWSCKJJJJIIvdP7sCiRgDEBGr6nkoDamUr5kcskykEgLvP6vsW/BA1ACU7hQBGAjXA6C5AzTcl5+4R1KodfWLJ6p+wjej2/c+Qlm4vWL1aAiuHqS0XY6Gr1nuKW6Cme+wc90YuhEVw2fcTWFNosOUUC+Juc3E/HdsF4vTv4UwXliNpddPW6ABqZtUWaQx3Z76BW9X2Ep1MrH6LLRIObfy2OU3hWP+kvmwTSSKJJJJIIok8onJHY5Uo0K6Aos3QHxYWKe+mf+pvgUunvRtg3J24AhfodBUi5AA+jUbD1iqVbUOj2QzDdVyrz65vw3R7flaRRxiCbbQ7trjatqvzTX02dW/FR3r6i/4Cg4Bho9G0Wr22KS2VSlXH6p6msB0U6TJTliles7V612bXmvbhUt2Way1PN35rt/LQxhGsl4zoNvVIS2sduzbftvkVgZvex6CQT/Vd8qla66cLoO1DXlXpmVtq2Y2Fplv5SCf32k/OkXbAsVJrKC8CmG6bT7rnLflUHcin9sC1uvl+7p1IIokkkkgij4LcIahhpQLSULQB0KSH/TvHwtZG90mdKl4UvMOWFD73afcBpIKC3yYAcdGSxifAArDdfho5n+ft2uJayz4UqC3ps9EEuAJEIAAKsMNQZE3wsyk96wACfAg4+2lQkqzZTtkqYCT4u7ZYs5UaQ7XBF2zn2Z9CR0XB/puA3lKlK4Bs2cIK1r7wzFEiqG1Kz0Co1WoOl4NDxNV6x2YFajcXW25BDKDGPXdKz4YQB3lTqQvU9LwdYGubfHKg3SWfovWRd+6Qd9vvLZFEEkkkkUQeTrkjUEOAHBzzAYkY+vr3ngpxEqLPG/f1e/PpsAW0dawlKALIsMDgr0XgO8fa+h4tcJx/Z5AWbFgMfzKkuCaIWlhp2txyy2YVllYBswA3IW/6Q5wCjJgeQoQOfiNNnIfzP8D34Wzdrs3XPd6KyLfZUpoV195IFIQJDsuVtgPkdcHV0lpPkBQmJvC44V6b0zMY3HLVCelrNDtuTVvAcjjXFPw1HNRuN9tC2gE73lvM+/DJ8wNv3PeWtPQD786BFsDzOG7/vSWSSCKJJJLIwyp3DGobguIEULqWzvQsm4sL3u4XL3YWhwt9dhQCAg1IX2m7su+HDRgLv/E9/ua/uzXnlpj2LTwRz0XcbIq+Jpi6sdS0c9eaduGmwKhye3ErhZ4mrEZXZ6v2kw+W7L1Lq7a8Wresnpj14/YjZDUACYgtCdQuz9XtypziXOja3EpKUIn1qn/yroJ3IXnVdhCdWwqQdvFm3S7PAmotJZqhWKx8e6eN9d1YD26omDc2Z2eBWy8tW9/LNjNU4/sL7+z2hqkTSSSRRBJJ5FGRewJqWEhSKYGFYmPPSt/v8x7E7JDWEzoo8H2rqo5WGR8GVcCpnrSEHwMExd9CCFaZO5UAREqX4nBQq7fs5lLLzl9v2qUbLVuuEH//5H2Iw4ggBf+tqzcFau8v2QeXVmx5pWFZ5ed+p2VwTgS1ZcHUlfmGXZ5v2TWB2uyyuVVtP6AW1r9ru1VtrRpA7dq8QO2GwG+2biuVln7vBVDrX7ObBFDL2VCJ7aD6ux3wzP7etr6XWxPIMX+/Ov9u3lsiiSSSSCKJPKxyFziF4uy40mbbqLzgTP/r72AJwqrGCvtxc++AE7cnJC6j+FjwA3d6vnUU2r1sf7mIlFUbPas1ccRPW0vHmp20+2o19Fuzk9GxrP9W1TmVOkOBm0O10bV6A6tW34leULCXYE3yoBSt1gUziw17/2rNfnx21b73xqK9eX7Nrtxs2Pxy24dEAZzVfmBocmG1azcFUGevduxHH9TtO29V7J0P6za31rYqPn5dYIj78E//pvsS0hTCSqVh566t2mtnFxXW7CfnavbuZQHczZani8kQK0rLsu65uBKg7OKNjr11sa3zW0pX1V7+YNXO3qjZijKv24t2zf0DU/RRqwpomR3Lu+Gd1Fopz3s+wzvSe9M7ws8xBl3i73Xzu2LtOl3D+f6uM/6eWeMtwbhEEkkkkUQeRblDUEMtBl+jdFqgJihzUNMny1dgWQPSsjn2m+QWkTZuD9aAIY9PsJZy+5JArZdzUAPA6q20iUccwhqCAI658pYyd1Dr6pjOZf2vqs6rSNHfGrq6Pjj+O6htY9nZKjwFgEqo1CKoVe3VD1bsO68v2usCo8s3AqgtrrYciNaDwGh+RaC2ZPbBtY794L26fetNQK1hC5XO+tppPtPzNjmNc8kz0rVSadq566tK05LAi8+avXMpgBpQBpwtrwkcFRb0fXaxbeevte2NC2175YOm/UDnf//9VTt3o2orIiY2yb9dqxbQy7Ausz5rzY6DGst81JoCNeU9n/wdoCvt4L0eBGqA2eZ3JYDTu1yHO8BPf7c7DEf3b5pIIokkkkgij5CkpHzXVRxDejikN1od+9pLV+yrL1229y7VpCBLCuX+WUgY7gTWALSCgIwhzwBv+s19kTL6S6DUnxm6YanaSaM6Zuh6YKmm82vW6Tb12bThUtqeOj5uT5+YsKnRrI0oKcU8M0xb1hRkYbXL9zf13k78vBZDbLdC2Eq1beeu1u3stZotrnV81mVdAJHNFCybLugMrGxKT0+UsI34sKxCLp2ycs48nDo8ZKcPD9uB8bzyheFgLHD987uASE4gkrWLgqAPPly1SzcqioMhvrbOALQCpG2WcCCTHrZMZsj/7nTXrNOp6Dt5ujlfSROB7aWmRws2PVK0g+M5haxNj2XCZvpKF2+/JTDCinVDAHdTwHZjuWU3Vur6bFhOkJwTjO/XX46z4r2578mDZTtxsGQzE3k7MME2V7yPsPgwG7ETSONWobzE82IRxcLo1yjxs4sdf28XrzdsbrUq+K3pHTP8nlXngTCk70O6Jq8ruX6n9MeMpowCpGz+X9/1nW8nK6yrp3B8Ztj+6LPH7Y8/d0LPXLLRoYKVi9uXy0QSSSSRRBLZS+4hqAFZKDlp/BT7Teb1PWvNdli+Y2Prpt0U5mZQQ3F2e02HiumxkkLZioW0lLWAJRNmXxJSgiQsdwDbdgKgudP6xqOuC8p9aaUV1kNT0lkio9PFxy6vOKXkSc8uSptlKsgJhipzWBIVJkYKNiFIQUGnBDkOXX0e4Px2J21t3QNr1tJq3VYrPGewUCKc3z99QMKR/YKaH9G9gJtyIWslBdIzVMx4HpJV5CEn+vZQnbAUB6FSb+t967PRdkDz5Y1vTdCOAqRxf+47NpRXyFm5lFEQlOm+/t66HX3PKA1sQXZr5BTL8N6ULx4bTwx4Ku0KFQH1klsF21ZjeQ+9PPoCYTuzBNQSSSSRRBJ5NOQegpr+6tZdyQlXpCiLOisvEMJfjN/ibXZTmJtBrSdIC4pTFJGShu/verA+C3RLVLdaoYJsw2cboh/Tij/EjMN7UPSpVE6fwCYAsLfS5h7chuxkmy2AgQQxjMk29VE8Kf1zfVhXv2J73FtCHPsFtSjxKOljy68wRUF5iWwwigu/ZPReQc/BvNwhW/cUvOWINexWwf0DwG1Kqk7ZLv5bzhsUrtFvac90IJI0czfAlHfHe0xALZFEEkkkkYdf+hr7dgWFyKUBnoIi5jOnUND3nFuNWu2wvppTgstOyjKKfpcyTwF6igclCzAZ+4f2hDSKs9MRoGD18qD426wNxkbkHWPbpO1C/H27EGYVhiHAzenbDh92kYHTAV4seK3+PToD9+N7WJKi85EsO0GyuAUAGWZbBuuihy3p8eCWPS4I195mLmwWxRO3zPI84F1sfR8D72nTOyMMnjcY9Bvrr2GV00OF9O5ZthJJJJFEEknk4ZM7BDUEWAs2IQbHunzHApUuC9QKxv6QLLTKSvauR/dUpEHZOhz40FXRA7CWxrqVzhn+R1mFQiZrxUxGn2nLp3tW8KC73kHA/yqrwOjb9ls17U8i1BBHiMssm+p5/Plt7kvgdxz/77dgHSNdbChPerZLC2kMvmjh3DvOiEEhLn0wfEoe75QPdxL8vfXzj3AvkptIIokkkkgiD5rcFaiFy4PjeLfLp2Ctl7NOL+s+WAyjurVqT0gblACAWNICpBEKUvZ5Kfu8FHQMOYWsQkYhJaUdwOhOQoAT3Xld298ZsDnf9OOKAOGQskPgtzu5z+0K94jp2j09G/mg/+9aiCPOQt3tvncaiDOBtEQSSSSRRB5luQtQQwKItTvM0NsIDEnG/RzvRvAZS6ULlk6XBkKwtPE942FIyrokILjHfkAp1n/Dzyz4miWSSCKJJJJIIol81HIXoBaGKgE1wGwTqLklLZx1N+JO4amtoNYPKWCtbOmMQM2HSO8dqAUs41+BYt9qmEgiiSSSSCKJJPJRy11a1BAc8W8NAeTuhQBJg4Ek961dCM7kPqfw7u8X0+3xKd7+3FKHwDCxARh8EKHtXuV1IokkkkgiiSTyIMk9ADVkKyjcS3DYOS6WCAnLKbAo6j0w4eleYQV+xWd8shAI/mpMZijq80ECtZgvCaQlkkgiiSSSyKMq9wjUEIAhhnstg3GH4JDGrgH9tdbC8Z0havDqnYVfgb8+rClwLA7BhgkOWPKidW972fleG9ftfM5egsVv8Krd0xJl44qdzt84fmfpun2J97n1Xrem5dZzEkkkkUQSSeTRl3sIah+FsCBu1+GMRXE73YYC20wJrPjVISqC1Ib47gHrgXXOQthZ+QOCQGBdoeH3RHzZEHzmHNr6Q699IS5GTllDLcS/cc8gDNcqu3VdjyVue+n+7/20EMGuEk5wSHNLIn+zg0KEx51f5UZaOCcOG8d8irNswzIrnS3p8rTprHslxLVdPvGOgtxtPiWSSCKJJJLIoyMPEagFqJC6lrIGzti9oG6dDtDGwqf61YGDR4rnhuBr7UvZs1WSLyMije+gs6PS5/eWeEiQJhBkbwHicV+1tCAtnddfm0GNuBw+xHQEvxcA0k8DWzmFyQksYRLgI6QnXEdSdkzOunBGsPjxyUSHYOXDh474b5UYr8OOzgd+NudThLes/wYY7T+f7kAU13b5xNPcu3xKJJFEEkkkkUdD7nALqY9eglUrWNN6vYYUedPyua4Vsgq5tBXyGX0HQBiq1CMNcAsL77KHZ73Z9T0hq/Xg08bz6oufO3D6Jhlczy1ae8LQKIBIWhiCFQIpgmwmbWxOX8qnfT9N0pXRD0qWg4fv4iDwaCp/m+2O0sM+lW3Pb3Zw6PCIvI1d1gYLadls0QvWP4Z/4wbmREQMQjnd3/Mml7Ui6SKvlMZ0umuZlM7rg5H+8j1ZG202pWfPz5anbb/5tJeQKp6d/CCPyCvyqaR8ym+bT2Ef1tvLpwCc5E2yhVQiiSSSSCKPgjwEoIYiBRZQoFGRti2X6dqB8awdGMvYxFDGRssZGykLAAQBbNoNoERZq6esUjNbXG3btYWaXZuv6RlbgoC2b2+EFWfg9C2C8gcAAYCw/ycSYE3goPR0ui3BRsrGynkPB8czNqMwqnTlfB9UrmdSAtYhNj9v++bnc8sNu7nU8M+qlHy1wXBgsC2xkOt2EgAtpiekyS1s+NQ5qBGiBRAIytrBsbzyKm8Tw+RT2kZKKQGbCd6Ij+HOrLV7GavUe7ZW69nCasvz6LryqtFqC5jCdk2759Pu4lYzhaKgkTwaVSCPDk6Ed0c+5Z3UQj6xo0VtIJ9uLNZtfqWpcqh8amLp2y6fElBLJJFEEknk0ZKHAtQAj7BRe12KtyPl3LVyIWWPHSrZaYVDE1mbHk3ZxIjAJJ/zAKwhPN1yJYRrc017/8M1e//Kqq1WGwK4hoMIRqW9AQTrVFi/LcBSuMD95KTQh4opOyzFfGiibKdnMkqXIFIgmc8TsMqF89vtnq1WWrZWadvl2Zqdu1a1S/pcWOt4YPHglJ6PQcrdBCAJa8mx+T3gApwJ0gSNQG0mDaxmla6cPXa46HlFPk0pnyaH057eIeUhm8e3BGmtbjbk05rZ1fmG8qifTzXyqemwtr98ulXCk/BEaRsu5ZRPZaWFd6d8mon5xHsDsm7Np0s3a3b+etUu6nOxMpBPAni3oPoVSAQ1tiAD1Mr6noBaIokkkkgiD69k/j9J/7urMhy2GV469+GKnVWYX25bq5Pz8FEL8NGzDUsaIDI+lLZj03k7I/g4c6Ropw4VpBBzbi0aLmf7w3wMoymI1TDSsDWSGMAK2Z4Vpbfd0pVN6ZkUu4DALV0iOlflOndD8Q8KRwkBDLBEAUJj5ZRAI2MnDhTsiaMle/JYUenL2fRY1kbKpCXjQ3tZEY6np5+mvO6PFW5YwISVK5dFmQfLG+wMiCB9btlWwk8BQoIdSpErXYDkxHBe6Qh59Ljyinw6uJ5PGbdsYcUK1keGHhUUoXjJcpmeQkcwTFpTSotyXiHmk4vO3SVpLp6yHiem9d7yun/BTs2U7PEjJXvqeNGOKp+AtJBPYQh0MJ8y/XzC8jdUivkEJGetp4zpKO6G3h+AlnarJ0EXKh+xfAJpAap3k42nCLBLvvctk+6buD9p0MFRGFO+P3dyzANQWlDBY6g3kUQSSSSRRO5EHmhQCwozOPSHYb2uW4WeEHw8c7zs8HHiYN6mxgQfpeCDhbLPCS7EIA5EAYrMSgI0V/aCtOnxnA9BrlW7tlZnuBEwQin3gWdHAiGHOI8hQDaJLzikHRdwAERPCdKePlF0+BgdUnr6/lekJ6YlpCdlpYIgrZR269bEiA66jxj7o+JP17FaEwtWoKGdkqOU69+QngApelA+BTKHJ4sOjs8IiMin4zOD+QSkxSHiEAbzqZTvOaQBoeRTpW5WbVI2ug6QIO3u+RQkzrblxJkJpeNgWdBYVj6VlE/knfJJcL1TPhXW8wkrIPCpg72s4IwN/1NWa3V9KBQ4y6SBM/3usCtYZcKH+xdybDfZeIgE1BJJJJFEEnnQ5AHWIABUx7rdlnRpU/DQtUkBDdazYwfydnKmYIcmcw45I6XMulM6ljKUPCOfMUQAwTdrWrCCRe7YdMGOKsyMF6RQUe5hhiYotpMARiwFgiLPpNtWyHVsajTtaTktGDqqeA+MZW1MMOjpkYIGPgbT4kCUSzmc4JsFNB6ZKuiZij6Me3iS9Agw/NXsRkKO1QEoFHzmawrAEvyN5AW0eTt+oGAnD/bzSZAzmE848wdI20jfej5hJSSflM/kEyHkEyC4n3wCesIwKe+jJDA8MJrztJBPR/qWtH3nk6A35tPxgzGfinoehn4LOl+fPiTNdmNMtIizcsm/3VKaSCKJJJJIIg+2SCU+SBLBJDiLAyA46qdTbYGGgEhKmnB4MliHhopYUnaDmc3i4KAnZgh0WoB1WoB15nBBYCMwErTsDkYS6Xysb/jI5bMtGy42BCBdwUPGh/EAr72sTJtEJ+MjhsP/AYHVmWNFO6E0jQ+zEwI+aGmlaO8I3dKlfEoJaMeGesqjjNKUFaBlbFL5VL7NfOJcrG5Yuw4pr4OPW8gn4G7f+aR4ynmBo4DskAD7xEzeIY18ui2J+SSSJJ8eP4qVsKx3OGSl7LDexZDALkweYIP+sEn/hl9gAmuJJJJIIok8rPIAgRpKNYQwvyGsF4ZFLZ3qCF6C5Qor0aGpnE2OZh1AnBv2KehtH1LLmU2N4MguCDlUXAcQLEUhDdsLqSJpOPsXcu0AamM9O3Eg66DGrNPbEUCC++YAkPGcnRGA8Izjw3lBB07x+4sPaxoL/wJq48NKD6CmNB2azN5RPjmoFTI2MpSzGQe1goPahACSNO2dT4B2sIxh4ZsYUlomsgLI3F3lk4NaP59OHSrZ9IhALSdQywwHSGOTfg8B1EIabxfSbvf8RBJJJJFEErl/cnsa8yOWMMSGkk659WxqhOHClOHjNSj8nhWBFfJ5KxWLNlQu2/DQ0HooFBgS2/yowBpDfBPDLKuRsWEdYB22tKAAPz1nxQHhT463lWW5XM6mxvCRG9Nn0fI4xA2Iw1c2q/sqPaXiprSQNtJIWrM6h3N5GqAGSx/POS6wmRrN6zu/99MTot5WSDPWN4YQR4optxZul0+ZTMaKxcKm9AyGnfJptEQ+pUM+FXNWZBKC0rWdhHxKhXzK52x6vGwnD48KGEu75lO5VNqUll3zSWkqF3p6xo7SxaSHro7HHOJzt9zaTTz1+pdJLHcaRyKJJJJIIoncO3mgQS1IsKZgmZkaYeYfANL/qS9YebKZsMTDVlAbUkDZM6txUICY0bI5qDEUxzIWLAqL9YZhu+3UNAtCtHu6l+4zBYAc2h5AuFdOcXHfcrHkaRhMTwCQnCAlgKH+Dz5Zeq4hPef4kABntKBnZvgzWBi3guOgMDzKPfMCMSYosASH5xNGpQHJAmqFzeA4mK7t8gmH/k355ECbveW8QYn5lFd8U+NDnk9TowJaHnJAYj4VdZ6/t03piaC2XT4JaPM9gWN3ANT6kbqQWbcHWuHsPqT1mFBwe9cnkkgiiSSSyP2QBxrUAJAwoy/tMzpHymEYL7uDRS2fyzmsAQgxAB9YwDIoe8UT/ZZQ+MEygwN9ykr9WYcAATra4cjP3BCse6hwLFM4/OO0P1S81brEfbAC5XP9dHi6Nr4DJ8QxmB6iYHIgS4vg9M8wI3DKs+2FDP78ioslLsoMWQqocNJnaY1BwQ/P0xXTMhhIFwC2JV2eT8wEVT75Irn6m2OeTTskLKxwRj6lbbiYFWADrCwFsiU9ioR3mxFkkyeb8yl85vQJhAcfwo18yud6SlPPRooMQ+M3eKdgxXUKvbCAMX6RYSbtncaXSCKJJJJIIvdOHmxQkyIHnHxrJhR5PhuGwbb4bvE3x1HqgEaEjChuucn2Aamv8AeFYbNctqv7sBXU3goaDElJmWdS7f73zdcAOuF+wfdta3p2EyCIJSmYoVoQQG6T3Fsko/gZ9mTNNpaDAFa3y6e9JN3PZwe2W24sTO25rawPNWFrqd0tfbqGBYp9IPT2rFQOcXqXPEuGZ9kKw/qT3SnyvDe9v9vI4r5wQbRWMnOWtfpiCEvBJJJIIokkkshPW25Pk3/EEi0uDNkBDyhtHwbborRTWJTcKsOOBBur20cJ4BQABBgZFE51UJPSDwp/P6DGGvsRQG61vnCPAI6kR+R1G8KCrw5qZfbl1PPvA0DID9bqiqAWhwvJl/1KyOuQz8AaeTYoDl08c68lYBOodZnswZPfannckJBPDrSpW4F2N4mgRh5uD+e8s5779d0ZqCFcxHPERZUVumGLMo4nkkgiiSSSyE9bHmhQC1abru/H2W63rdVq+8K0YVbooEjhSlNvBbRB4Sd+3XoGMXW6rL6voE9wZC/hHBCEjcz5/P+3d97fcR1Xnr+duwEQgQABgiQYRSonUhYVKGssWeu1/csEj8/xfzP/iH/2Obv2jMcee2e1sj1WsCRKIilRzAEkQOTQDaDz627s/dTrAhqNbiSSEMipr33Z6b2q+27hnProVqovdbHib6BbKnlSUaDZjMhSlcsV8Ur+AeQbQRvq8DQ+5vzS6tmcjeO0voiheZq6MNhnXgyE/We24LRmFdwT0mfy47SR2K5W1Z86mQUL2mZFNdpv44/ql+YPc/qAVqkU1PL6nk1uHaA5OTk5Oe0c7XBQ026zArAopCn0FIuelDy27HiAnal28HT0XjmorwpfG+jwAQ4grSLhKqytRAkOMAfSAEsgczPABKh5pYo+qz43pwBs4N6yxoMD5gsan0Kh6MdJQe+BxkmfcTHgPzOvG4EuE6dFcmp6j75aSHoQIiweoFYKVgF7I6qtn9hWIY2zPTkBw2TSnJycnJycdo52NKjR1ZNVA3wKCi6ZXEny+srB8SukvTZDcYBJMwNmaudUcTSScpQUPGxR8vrKuZ/md+3PlzJLdSJgTF/iHo5W4pXyDVBVCyejBqCVyyX9zQemxkbGrOqQ8W1RAasi2UJZ5rP+s+pl6+INWUdP6ysorHGviZO+ljcVJ99PGyfrlo2Tsp9Ckb5XKAJsjXhpECc+Eyeer6D3ZAoaJ33VoleIZ+ea1b7UGX7be/SNfiUaGm2zgJYNrCkQ1pXdWJRCnP1sWsUOdxrz9Be3iMDJycnJaWdph4OaL2AhW1iUmYVFBZhFAwy18s+gLEmxSDapgXm8VjNc1R69qFC2kBVJprXMXEWhy1OYAFYWxWwFYa5aKQbvQgGFGQWi+XRRxmZzMqevBXUI0KnPfvEZYPMYkqz64lV9Kep3+Ex9CBip6LU5JZqZeU9GZz2Zy/rDn82g0cqeqQmwcHbpzHyzODEk2yxO+OS/+nECWgC02jgpBKp/G4+TAqfGZ3wmL/MZnnclTVX0M0O2y/XW+rNsDHvbOXHKsQb6sgpoc9mAJBcC+p6/kbUixG8Mj1KGllXNpC1Wcua9IW8nJycnJ6cdqEcC1GArslezS6BWB0QKDf4cNh+EVlkVjIACwAmRSZvPLfoAokCU1i84DB2YYQ6+MsgK8REAYbATAAHQAJC5dEFhQjt/Lbc5qC37YuDDvC4PT3Kdn+lSUMsrqC34oDafJcOl9Tbwp1bUCu95+mhpjdPMQsU82+o4KdCuEScLa36cfHgBioj5UpwUaDcep5LMLRRkXIF2Pqvxr8vwAc0G1Kr1WlirN8oxcdJ7ADWAFFCbV1CbTftZtToGbCA8I5tmM2kMd2L63mTSnJycnJycdp52GKjRFfsZJFwjX8N7hvBSmZIMTxUUYIqSnPckq0BT9Pwsi8moKTyYDr+BeSZzBQgp0JmOngxRSe5N5mVoIitJhQl/Lhm9/UqYqBVuAScMM6YyRRlJ5mRiDrAC+oIKf/i97A+ZqVX+6HdM9DcZNODDwJOWhz9TRQNovM8rdXlKH/Xw11xkyxTQsiUFI0+mUn452bzGZYNxshm+2jjNKvQNTXlyd7JgYkambcNx0kKSxGk2L+Pqz/RcReYyPiRb8Xwm04dfCmWN/GJ+og+8ZZnVeN+dKMjItIJsRhGLeYUG0vgH4OK11r/loc7lTJo/H22953BycnJycvqutYNAjQ5zudM051yqMbxWUnBILnhyZyKnMJPXDr8oaQWSggKIDzxACuCmHXsDIwPmA4HodWSJAjIzX5I741kZHMso+LHqb/1O2weQgA8gWU9BLS9jqbJMzgf1c0hyFtQMfDX2h2HQpUUCxncApaTP5MntsaIMT3oKMwx5rpybtbaYtg+0KKgp0I4pzE4kPROztPq5Mk7Ut9ovVow2itP0QlkGFYxujxcU2uwq1o3FqbgUp5yMqT/jqUUtIyC5QvXCqqgTEPNXrK72zaz2NZm3kgJoUW7ey5s4kekLBPx98/xhzWXzfbTGc9UuHPBXeK73HE5OTk5OTt+1dujQJ8BDNg1QC2mnGpKFXEXGk8wLK5jXyZQPNPnionbmWEVhg45+ubPns/9dxVi+SMapLDMKReNazvBUTkam/WE5Ondgx0etxjJe6T+AI3PaZhYKMqlljcyW1S+FkoWKpHNlk8XKFTzJq7EScwV0KHCQPWJBBACV0etTCwpXMz6o3ZspynyupDBRCxzrC9+BqExeYUZBdjJVUFgrmsza/Io4lRvGyf9s48QwZ0XhEejzZGiqICMzBQOB6tQm4uTP/ZtJ+202PM2Qbklm08SH9mLok2war9W5fDVG7IhjVssAOFNpT+Ok0DiW13YraKz9rJifHcNoR8x+rv2e4U4yabULB5ycnJycnHa2Qv+iqr43SEA2hQnst0fm5ZbajHbWXjlibPtkuno1gMB/T26pslgWcyzSYtBke0plzjKKSHmRyfTch/8KN2r+c7DtBhkcBSjAQ6FlaDwn1+9ltLPPyOhMXlJZnk/LpialCwCDGtcT1zC8x3FGBQXArAIFCwF4b1dcUqpSgZbp+wRUkPUChnJ6DSA0MlOWOxOe3BoryJ3JgkzNFw1skfmyc8A24g8X+kPG+txaJ/fy/PkiwFSNk362cTIQ2CROUymyjUW5PpKX26NZjVNO5rJFLcfPuG0lThyzlSsqxGqMADMtxoAzw7V+m62OEyBHLE2cpsns+XEamspLMl00IOyVAC8fwipVUJPqqwU0f+sNrgE0AbRqEB6gCoC3WkdbVJ491GGMY8bYgJjNiJ2cnJycnLaiHQ5q+q/ZWJX9zRgOZIhStMMXSef09wBHSkUlEPSHv8yhA9rJs3M+w3xeJah+B/Va5kaVZWy6INeH03Lp9rzc0/czzOHymMNEPT5Q+LWuLXstzAhMzCo0sKqRLUS8IsN4/iHhGIjJzvlUAuSQSQOIMvmKjM8qfIyV5MaoPwdsmMUJWg5z07hvM/5giKwa95OpYgFGOs8PwILGqTpMyGEJwFBtnIo2TmmN04xC2r28XLwNpOVldiGvUEVmSu/R4jYbJyyrsQFCF8iCaRsG9X/+ggVg3LdIbZzUfxMn9WlstiS3xzVOI2T38jI6m9NyCvqctVmyZlabRfPrexhyoObk5OTk9DAU0E5xqecyk7rpcLyyfPD5PXn/82G5PpSTTCGh1lK96mGIbr+2A+Uz5mdXyISUK1n1LScRhYxoxD/se19PQvb3xGV3e1jaW/zzMcMBjiyiQxYpLYbUgrKQKZlJ9jMpJqFnZWQyKzmyNQy56fMCL8DEVsS2GFiL+tPbHpE9HVE1XsPS2RYyB6u3xpazXQybZhXS2G5kcq6sIFSS8WRJUpmCJNXINnE80lYOGecOWhPjCKl4JKKwEJX+nhaNVYvs3hWSztagxknRrT5OCmsLGiOGGBkuHVaQZfEGgFaoTua/nzix/5qnbdHREpEBbbOB7rh0qC+drbQbh8nXxUnbJaugRpwmUgzBljVOnlnEkUxrnBTy/DiZy9fR5mO5Wc0zrK420Ncm//zWgPz8+welrysh7a0x87fh5OTk5OS0FW0B1Gp7xgfRATYqj+8wPpNhYXiMyeBF7ZhLagyBVrQDVBCKK7QlQgbcWvUzBzvRgZs72RVfIWo+5xljSDGXK0o+zwpHfVaFJv2/qarWi83I5IK0DA6OT0QVjtRaq760xvjM9xzM7l9PEokhP4YBmc9GhimtfpGZM9teqEOcN7plf9QXHokzUv3D6NWHeMRYe0KBVmO1qy5OnB5AHIhPWuOELeCbghsZujIpMAq+jzgZoNW7yS7RVhjxIjbWiFVtnHIMI1fjxLw9/DNx0r9P/la5lkzcTpADNScnJyenh6FNgFpCr6AXtV31g+ogbZmUZ8u0dSzXxRYL6qH6mFd48I2VnqWyJ9FQQFqiYYmTbmughYJCh3b4TG7n2hhpGFv0/UpjRggxhowxA0kBDpPnoHT/sHRbHUDEashCiWv9+VngEqskOUT9/t2qlmB8ovxFKdKmasSnPRaRVgWkWpHFIvIMT2aLxLQKQWqEyvh2/44ZAaJLcdJCmbsW0XiRJa1tP/z24dWfr+ZHycaJrVt2lhyoOTk5OTk9DK0LateGspI1oBbXK+gebRe5dNsDEGXWl7fcFfsuYnTaebWslEtp8XJJKakFynkJiichJos3kCcR8QIRCYTjEou3qbUqeHBmpXagZg7c1lUp5mXRU5+KWfGKC1IqptVVPwMF3LD4AWBbehqtbzEQlcVgVAKRhASjLRLU10AwbHx6MEQUkIqXU0tLqZCRfD4thXzGDHUCQzEmz1VlVtYq+AS17pL6VArE1Om4+tQqIfUNiMOl+/ZK24Y5cWWNlaf+FAtp/aooi+WCfl8xcYrU+GVam0xfRWEu1qIu7VJ/WkX/UXJUu892e9ByoObk5OTk9DC0PqjdzRpIyxZi2nk+CIjYqnw3y+WceGUFkGJKvPlhKc4PSSk7o0ACJGXMNfUKx9rVdkmkZbfE23slvqtPO/y4wpJCiQLcSi2FYx1pLDRe5WxKyrk58dSHYmZcvMyE+sjQKisOmdelV9bAV1CBLBxvl4j6E23bI7FdvepXt++L8Yes0kZ9qJWtw78XgC1lp8VLT0puYUJtUoNX1PpX+hPS+kKhiFmUEYx3SSihpv5EWnok3LqHi7XklWVvTtyrfzmVgv6BKdDm5yQ/PyEF9cfLz0tRrVJSWNPLav0KKHqHQmH1NyKJ9j5p6dynbbdXKqFWqYRbfcjekj8PRw7UnJycnJwehpqC2v/7bFjeV7t8Jy3z+Yganc1yR7odYtiN4TFmNwEZi2qlYlI7d4Wi3JSU0qNSWhg1mTWv4GePVknvj8TajEVbuhSOeiTa2iPBaIcEou3Kaa0SCCckGI6b+WxsbcHwpNXy0B9+VFG1ohBWImOVUx+mxFtQXzL6qj55CkflSlFhjfldq/fqCip8AGmROP50G38ird3qT5cEYp3qS4ssmqxRxLQHttxCy4Jp8MuYmf1FjDwNU8YAK5BWykwavwrGphWIitW7lxUMVkFNLRTvlHCiU0Ftt0Jar29RMmutGp+Y1hBSYz4bPq2Mk5XxS73BL5NF01hIuSCVQlIWCwrXBminpZhWiFS4JrtWVlCrF5k+QA2/4gq0iY69CrUK2LEuWYztNu1GmwVC/AeENgmtU/UJ/7ZbWa8iGQW1Q4Da2wfl52oO1JycnJyc7ldNQe3//m1I/vNvd+XbwXmZyYnMZLd/2nY0GDTDdBHxtKNPyWI+JYWFe1KYH9KOfkQqxbR+v6AdfV4qCnGVUs3ZRFaAg4JPKIzFzXBeKJqQcAsg0ichtXDLHoWTXikqiDCXizldVmHmUIVC5jWkEQgxAb84byCorFacH1UbkbLCYtnLqg9qi2XxDxFfHTHmVy35E0kYX0KxDom2D0hELZDYozDSKZVIu3haBsa8rnoxtyusZTFcSHzCiwpE6lc2dU9yKfxRMMvPqqUU3LLGN3yqlwFQM/QZMuADkAUUJIPx3cYSnfulpfOAhBLdUpKoeIGoWYTBMVq81gs+I17MOwtqLALFlIj6sZT9zM2aYWI/VpzjqQDeAGgph+1EGJYNa5uFge14h4Ta9mqbYbRbrwTVLxYqlLWhjV/EzGz7sb3yFNQ8BbWj/Qpqf3dIfv6DQ9K324Gak5OTk9P9aW1Q++SufH07KROZkkxk2ey0euE2KREOSqtahIUDC6NSTo9Kfua65KevSmHubvWqrSnafkB56JBEO9R2H5NY1zHJLUZEH1PyNdwQVRCKhcMGGJkDF1IkKGcmpJi8JcXUbSmkFBrnhqRcmK/esXkxRy3R87TEe56SUPshCbTtl8WWPoXGshrz8hqDWjzMfLOwxicjUbVKdkLmxi/L/NhlA2qAmygsbVqhGAFS4mqX9r1PS3v/sxLrGBAv2GYsrz7hWyMgArBiCmpYsJgUUaBeVLjOT1+RnLYboLZVAZG0V6zjoEQ7j0i066iE2w9KWYGuEghLUeOUL2nMOP9qu6Wghj2hoPZPCmk/e+dwNaMWdaDm5OTk5LRlrQA13gFrnGX5+bcTcvbbcbk9lpaFgj//hlV326lSXgEtn5VsalqmR64ay6XuiZcev68OH4WZi5XYLS0d+2R3/1PGEh3dEu/okmhLa/Uqhl79rJUomMxOjcrs5KjMTQ9JevqOZGbu+nPBcjNSKeWrd2xegVBEIm39Em3bK7t6j0n3/qeks/+4xBIJiaqFFBTrFdCm0MaTgMLJ9OigTAzflOT4bcnN35Pc3LAsehkmqmmDrh7uXFdBrS/EZmtxiSvQJtTa9xyW3gNPSN/AEwqWLIYIyKJCWb0W1Z9CLivFXE7mp4ZkVtssOXZNvIVxKWq7VfBriwoEI6bdwtpuia4Dsqv7sOzqOSS7e7UN1SKxhMmosbp320UWtrQo+7oTcubFPjnz0l7pbPMhjVW/Tk5OTk5OW9EKUEN8IoNzYyhlbDqlsAS8fQdJiuTstMxMTcnovUG5cemssVw6aaCI+Wr3o0AoagBpV/seGTjynBw88rzsP3xMDhw+It29e6tX6XVmCC4gxXxOrl46L9cuX5DRoRsyMzEsyakR44cxs33IFsXKy+qwY//BJ+WJZ1+VY0+dlJ49vdLds0cSidWbDbMBrVf0jH3z5ady7vOPZfDGRSl781IuzSmgVY9LYgXqZmUeWuGChQbhdgWzduntPyqnXntLTqq17tolkSgLEFYDZKnkybS22fTUpNy9dUluapsNXj/vtxnWYJhzw1K/aDeGjnd1amz6Dsqe/kPy1LMvG+vo6jH/obHyL3qbRKX6f04mOH6wQ44PdEgiFjL72Jljz5ycnJycnLagVaCG+GpiNicTM1nJ5BrM+9om3bhxQy5fviTXrnwrN69ekFtq+fzqobx4PC67FB5aW1slGo0aC3FOkopn4bBvLJfLycLCgjH72K2t7XJg4ITacXnuxZfkxZOn5OjxE2ZuFMaCAA5RX1iYk88++S9jdwavS3J6QlLJaVNGvdra2ozhD75hZuNYhatcPq/3JSWpViqt3k5k38BRhY5TcuKZk/Lkk0/K8RNPSldXV/XXZeXzBS0jpWXNyacf/5d8/JcPNE7f6C9MzAdi/ecDpjo7O6Wjo0NisdjSc/H8NgZM3IfNMpmMMeKUVz8LBcqKGuvfd1jO/OCH8tYP3pO+vj7p7OrQZ1zOPFrh1/VrV+X69WvqzwW5dumc3LqGX6vV0tKywogXwi9iU+sPViwuw3nbrk7p6u6Vvv4D8tqbP5DX3nhbfRwwzxtWOPquFI+FpacrIT2dCYU0f584s7DCycnJyclpC2oMamqZrL9DPbvAf1f68K9/lffff1+++OJzmZ0ak9npcZOxqVd/f78cO3ZMjhw5Irt37zYGlCAeb25uTlKplIyOjhr4u3btmgEnFI3GpL29W9o7uuXMW9+Xd9/7H3LqlVeWgK9QLBhYmJyclA/e/z9q/yl3796WXDYt+Vzj+V/4gh06dEj27t1rDMjIKmxMTEzI+XPn5fz5c5JOp6t3LKu7p08OHDwsh44cl7fUH3zat29f9ddl8Ux3Bu/IoNrZzz6Vzz79WG7duKa/0F7LAAgwPv/88/LCCy+YuACNPBfQyMHvZAuBWmDizp07xkZGRmRqasoYpzuIhKRv7345/fqbCkRn5IknnpDDRw4rsPX6ldSIZ/roow/lY7VrVy7JveFBGRsZqv66UgMDA0tGrA4ePGggEt8op9afsbExmZmZqd6p7RaLSyLRKl27e+S9H/1Yfvje/5Sjx56QttY2aWl9mMedrS1OXmiJR6QlEfZXLBur/ujk5OTk5LRJNQQ1K/ND018fvn71q1/JL3/5S/nLX/5Szf40dubpp5+WN998U06fPm06ezp+AAVxH508kPbtt9/KXxX+sNpsFp0p+ulPfyq/+MUv5J1339WOtsV0+EDarALC0NCw/Nu//av89re/VVADPJoH5o033pAzZ87IyZN+Vuypp56SXC4vSYWr69evy7/+5jdqv14BHlatWmdnZ4f0K9z97Gf/LP+kdkwBpF4TkxNy4fx5OafQd+7cV/LVV+cUagarvy5rz5495rkwYIjMI9mrogeEe+bZo5Goyfx88cUXcvbsWROnW7duyc2bN6tx98s5efKUnDp1Sl5++WVjR48eNb/VKplKym/+9/+S3+jzXb16VQF5TubmF6q/rtRLL71kjLIoFwPUaBsg8csvvzQ+Xbx4US5fvmygbaUCJqv3D//wj2p/L88995zCaLcB0u9M+qfkuMzJycnJ6UFpze3d6XBgmO00zytKMjkrw8NDMj09Jfl8TmGB7FdzMCJ7xvBgX99eky3KZrOmox8eHjYZtMHBQbl3756WN21+q2dTPmMMiXLd4O3bMjs7I2UFhrR+NzQ0pNBxRcbHx6vDgat9wQdgBnixGbXOzi5z7+9//3sDQDwPGS0yUSdOnDBACTjVCkjJZrJmWBOQI5NHPIgD8aFuhmMz6bQp+8KF8wZg0unGMER5ZN/ISnEdsbitz8fnGeKhIEqZiQRHhIl5PoYZGSquFUOhIyP35JtvvtYybiuAJY0ftA1+FYsFrSclU+rvtPqN/+l0xsBgM/X09BiIBSDx8aOPPpKPP/7YwBk+0paAHLDbaPgXv8m+EVfamXvwofbvadut6pmTk5OTk9OD0M46h0cFIMzOzhqoALaAhvUUVUjqUCja09sr4XDEABcZNDruK1eumMzQ3bt3zbAjQ2r1oGZlQY1sEpAE5PAd9166dKkG1FYLAAPUGBa01tHRbsr69a9/LZ/87RNzfzQSkd7ePgMfZP/qQc3zSpJRmCQTNT0za0CNeNg42LluPAd+nT9vQW31MCriWubDAXX4QkYPGyIe6s/8PIsPSgaKiAsgSxaxHtSon9hcuHDBlMNQMmVbyCUufEeMp6eroKblFItrgxrZUOLAM/7pT3+SP//5z/LJJ5+Y4emIxmptUPOfDwDnmfCLcpycnJycnB4X7ThQs3AEpAER9cBQK4bJmDyeiCekvb1dunZ3SSweM503GSDghUwN0AUkAT1ASDMBI1wLbOCDLQcQIAMFiOBfIwE6gMfhw4dl795+k00DNKiPzN6o3k+5QBPZJ3/SO0ckrWwCQAy4YT6b9R9f7ET6WjCiLOAJn/GzkfCX38mkAT8MIQKvDAfzvEUth/K5BsihTD7XAynl8PzUR9sAdPhq5/rRTjwr13A/sFkocEJD8zmOZCHtUCz3E2f8oAzKZ+4ciyC4hlg2ErHg7wQwJ75rta+Tk5OTk9Ojph0HanS8QAGgQOdtQaBeZm6VwpFdLdiGtbSa961tbaZzJwsDPAFDdP6AAB05dTQSdVEndeMD1/Gd9cd+10j4Qn0HDhww88wAJ1ZAdnd3m4n8AMfUxKR8/fUFufjNRZOhA+CAmmYCcgA0fFoLeNYS9wJWZJyY6/X111/LN998IzMKZfFEiwQVhkYUchhuBODwCWBrNERcK36q/d3GDn/xda17rQBRABo4pL2YY8bCB7JsxJEy8AeoxJ9G4hrbPthW4+Tk5OTk5LQTteNArRaM1gI14IssC3OrDJwZQAPY2gy0kWFjUrkFNTJTdo5aM1kwslCGNgogtaAGPDKnrFDIrwC1yeoCgIsXvzGgxnBkM1CjHuuPrXsrqgc1hkqBNWAsoX5y1ufIyEpQI6u1/pCzn9mz4bBxWg9oa2VBDYgmPsQJWKsFNWIEqK2VKaM+wLi23ZycnJycnB4H7ThQQz4ALFszMTQGIAVD/pYOrKwEfGZnk5JJZwyEdHR2ypGjR+XUqVfkpZdfNlt52FWejVRf30Z9ocyloViFR8ADUATUmLvGhHkAhDlXTKBnK5He3t6lSfyNtJF6NyJiA0ThG/4MHDwoPd09CrT+kOP42KgBR4Z37ZDmenXyc/0lm/XXxsy2I7EAcmNsIRKLNTyRoZk2U6+Tk5OTk9Ojoh0JahsRnTwdPFk13he9osnQAGmT41OSSnH2ZsDMFTvx5JPy1ve/L2+eOaPAdNjAwcMUwAGksTEsGT02nAXMXnnlFfm++vG9733PDPE1WkzwMEVdrDR9WkFx375+k330ikWTsWLump23tl2yWVHmqgFqvAfOQiHfAMtIJGpe14JrJycnJyenx1WPLKgh5lfRuZNJyWSyZmiTSeWsgmTSO3OfvFJJund3y9PPPCPPPfucyWI9jE7fZnTIRtkMEb4xFAdA8h2ZNYDt+PHjZiXj/v37txXUGB5mSJGtQQDIUCgo2WzGxG0pXl7zxRsPWsSHDBqvDFsyRMuCD17Zj61crpj5foAvsObk5OTk5PTfTY9+Rk2ByMzD0g7+5s0b8u23F+WLL8/K2bOfy1dffSlfX7ggExPjZn+rlpaEgYKHJSCNYUbAzK60ZO7XH//4R7NHGBvJsjKRTBLAxIkFgMp2CVCzpzhQL2AGpG1nFq1WNvMI1LIPGvvN/e53v5M//OE/5G+ffCLJ2RkD1gDuWkPETk5OTk5Oj6seaVALk7lS8GL4bmpq0nT2rGg8+8Xn8tnnn/mg9vUFM2E9IIt+9ibqD5U+aNlsGhk0Jr4DamT2LKh9+OGHZjI/w4vUD6gxNLrdoMZxVGzKC/gwiR8/11pg8TCFD8yZA57ZA82A2r//u/zhP3xQwzcLatsZJycnJycnp52iHQdqZMnolJnXBVislwEDerjeDCsePiwnThyXZ599Vu0Zs+nswYEBadXfgZE5BZNCPt900jmZHVaLUjcQQeYrFo1JR3uH9HTvMXO68K+R7NAdm+ySqeJeygGMyGAxHw0wo3x+A+bIZDVbpchz2X3GMHyz33M/n/meIUxeN5Ip5Jpdu9qlq4sjlgJmJSy+NtuDrVY8N+0BWLVrPBKJuHD4eTDoQy9l8zuLKGzs1hPPwoHwXE92kSFZhoWJFyBLWbacZm1m25/FEbv1udhTz8nJycnJ6XHRjgM15iJxTudmAAT4IUvEJP23335bfvzjH8uPfvQj857vKMtuBbHWvmWcLsBQHFkcfAAS+K5bIWBf/34DDs3mSgFd5jzRS5dkVuEH+GDzW86xfPfdd+X111+XZ555ZmnVqb+Df/NhR66hDLb8oF78QPgENPHZgiDXAHXrCd8Z/uXZyP6RUdsoqNEO+EF9PT3dBsooD3/w1UIu8QOcmgFtrSoVtiApmedkRexPfvITY++995689tprpi6GkoHgZtuTUH+7wmf/3n3mCLFWhWknJycnJ6fHRTsyowYEAFcACO+BEKAAILCqHWrkHiABCGKSPqsrATQyawAcKwcBI/bkIovEfbWy8GMzRmS+gEQDRAoRe3r2yMCBAyYTBZBYOKkVsDMx6Q+/MiEeuKA8tuXAH7bkwD8Ai+wek/e5rn7YkTqpA9jBBwtqFsSol/ophxiRqeN1I6Bm7g34vuMvK2SJx0ZBDV+oD5Dl2fAVX+zv+Auo0Ra23bimmYBUfGBjYI7VevXVV41xmD3ZNZ6RGDEE2sxHnoUs4b7+fbLXgFpr9RcnJycnJ6dHX6F/UVXf7wgBYHS+gBlDiWSdyIbxHfBjIYvPmAU1vmc4kY1c2SCWBQaZtH+4+eXLl+T8OTaavWjOx+QaO5TGvWR0yDKxMhRIIPNlh171QlMPe7UBDRxMbuGqFvi4hhI5NzOhgEH5HG1kM3j4RAaL+s+dO7d0Rmf9HDFgh2FAAPPUqVNmGw+GdQGhWughFvaUBR94Zk35awkYAmhaWlrlxs0bcmdwUEZGR0yMAba1BCwCwewDR3wAUKCsVsSAzBeZS/zhPdYsa9jW1mraiQPe7cpYPhMrMn1s0sscvy+//NKc10qZ9QJqn3vueTl56qQZ6t6zp0d2tW/fSlonJycnJ6eHqR0HamRogDSyKXTWGEBCRsUcIF4zBAak8T0du53Az3s670q5IqnknExNTsu58+fks88+lUsKbFxTOy8MAALS2BgXKHpF4YhMHJBm4CjsZ9XisbjcU0i7c2fQ+GGzeVYAE58LWj+/AWhcB7wAOXxmaBT4ANIwezRSLfABP2zhwVAgO/UDR3wHxFCWlb2HzBsxshm6tdTV2WXmcUVCERkcvC3Dw0PmHgAPUFpLZBqBtDNnzhiItFk1K3zDR+IAUNEetl2aASRQZjNmtDvPaWJYne939uxZ+eCDD+Tq1aur2s2KrN0phbTXX3/NzG0D0jaSXXRycnJycnoUtONAjQ6fTptOH4ihcwZKyMrQWVtQAwj4ns+8Bwq4nlfgbaq6N9jw8D25eu2q3Lp9W++fXtXZAzoM5z3FqQEvvmiOMGIiO5CGH0x29yfNB839AA11Ahn1892MT1X/gA384BXDF7JpbNnBggNOAeCZeAaeGbjAFzJV+MDcNjJE7LUGENVCGqIuxH2AEHDE8+MnMbC/1wr4DYcjksvn5O7QXQXFUZlNzppnaja0SIaPoVUgiAwfZhdFAMRW+IdRL2XxnjhZUMMvfqv1i9/xmfggYgG4AbDEik14OUiebF99u1E/c9gA2dOnTxuIJBPpP6Pbc83JycnJ6fHQjgO1WtGnAy8+jCRNBw6E0KFjVnT+dOSAD506Q29DCiIMLTIvjeG9ubmUgat6Me/qRe3k33rrLQNIQBvDnoCGD2o+hCDqttka4IN6molrgRQAikwagAZ88J6hxtpMGlBq53cxl435dcAHkEY2DmhsJO4DTKgH2KE8nrE+82ilmCRZjRH1+0OeUwY2AatG1yNgCGAku/eigqwdFiYO1F8vC2w8D+2CL8SA9/hWX4/1mWdgHiFxwmg72ttmL+sFTAONnPSAX2T5iJVd4ODk5OTk5PQ4aEeDWjweMxP4gTU6cQ4Mt9kiOm+AgPd0/oAKmSEgBBgigzWqMDI+Tmc/Z2DAwheAQYdORogszBuvvy4/fPdd09kzxAf8WDiz92DcAwxQH/5Qhw9zPpxY1UIjGSL8JoPGPTbzhf/WF+pjHhqLDRh+ZcUjk+qpCyCqLduKe+2iA56N8jCAx2Yea58BESOAd3zCn0NGvPiuFp641j4r5ZNJs5DGcCzQRp2NIA1xP78TR8plWBZ/8I26bGbMtqGNFdf4GdBh82pX6HKN9am23cikAWnvvPOOGSomfsSR65ycnJycnB4X7WhQQzAGnTUdO+ACAJCtobOmAwfcakFjLQE93E+W6PiJE/KCwserr56Wk6dOyZP6mfLXGjrDB/sbWS6G3+zWGBYQ8Gejoj4yQ6xwZOiO1aEAEXAEeFAmz4itJWAHf1gUgS+8Akvcb8GIGK4nyuB+MntAK9kzfMI3wAiQxOe1YMj6yivtAlyRgeM+fKJ84gisblQ8D2UA1fjBsDAgi1/4yd8D1zSDRycnJycnp0dVjwCo+Qd3s8kq87c6OjrNZ5uhIWtFRmkjYtEAsEEG5sUXXpTXX39DTr922oBSv0KAXUDQDIyANEAO4AAcKAvwAIYANDuEt1Ex14u6yVgx3Mleawx9MlEf8NgIpCGg1UIj9wEuQAtDmmTNbNaR17XEs3E/QMQwsIUh/AOIeGYLyOsJmCOW+ASMEjPupd2IEZnPjYpnA1wZlgbSWNDA6lyye8QQn2mbjfjl5OTk5OT0KCmgnffavfcOEC4CQ6VS2cxfunLlily7dtVs2cDRQwyRASLNMmtAAwZoAHtsRPvE8eMKSU/K/gP7ZZcCHLZWpqhWdliTYT0mvGMsEGBOFUN2NgPYKLTABBCF4QdghrEjPwaU8NtGfakVWSqGDTFWShInGx/MZtcaCb8APAywIpuG8R4DuDYr4kCbALHsL4exOADfMNtmjbJ9+GONxQxA8cDAgPGJVbl2QQP+Ojk5OTk5Pa56ZEANo0MHjsjGsH0D87+Y90XWCHgiw9ZIbHgbNlm5dtmrHfzevX2yu7t7aRg1Fo1uOFOEyJxRFxkr/LCGP9haAAKEkbnCyJyRvcIYbsTsMOpGfakVfjH5HiNGxAa/WPhA3NbKPFIfMAbMAkb4ZmEIw9/NyrYbsWBOHPPQ7KpOjPhhjfzCHwu0xAV/MHwju0Z2lFjRbk5OTk5OTo+rHglQayQ6fzJIGKBGxojXetHhxxQyYrG4tGrn3tXRoTDSsSUQWkv4AYgAJIAHho/1YjjQZq4YamVIcCsQtJ4sLAJCQBu21vw54BBwBYSAIACp2Vy9+xE+2HazmT58rBf+ECt8AB7xDWB0cnJycnL67yOR/w+JmOs4x0U/UAAAAABJRU5ErkJggg==;" vertex="1" parent="1">
          <mxGeometry x="42.23" y="40" width="287.77" height="183" as="geometry" />
        </mxCell>
        <mxCell id="LdislrrwhpJ1fRWfP6PM-15" style="edgeStyle=orthogonalEdgeStyle;rounded=0;orthogonalLoop=1;jettySize=auto;html=1;exitX=0;exitY=0;exitDx=0;exitDy=10;exitPerimeter=0;entryX=0;entryY=0;entryDx=0;entryDy=50;entryPerimeter=0;strokeColor=#FFFF66;" edge="1" parent="1" source="LdislrrwhpJ1fRWfP6PM-4" target="LdislrrwhpJ1fRWfP6PM-1">
          <mxGeometry relative="1" as="geometry">
            <Array as="points">
              <mxPoint x="110" y="765" />
              <mxPoint x="110" y="610" />
            </Array>
          </mxGeometry>
        </mxCell>
        <mxCell id="LdislrrwhpJ1fRWfP6PM-16" value="" style="pointerEvents=1;verticalLabelPosition=bottom;shadow=0;dashed=0;align=center;html=1;verticalAlign=top;shape=mxgraph.electrical.signal_sources.source;aspect=fixed;points=[[0.5,0,0],[1,0.5,0],[0.5,1,0],[0,0.5,0]];elSignalType=ac;" vertex="1" parent="1">
          <mxGeometry x="630" y="840" width="60" height="60" as="geometry" />
        </mxCell>
        <mxCell id="LdislrrwhpJ1fRWfP6PM-17" style="edgeStyle=orthogonalEdgeStyle;rounded=0;orthogonalLoop=1;jettySize=auto;html=1;entryX=0.504;entryY=1.011;entryDx=0;entryDy=0;entryPerimeter=0;" edge="1" parent="1" source="LdislrrwhpJ1fRWfP6PM-16" target="LdislrrwhpJ1fRWfP6PM-2">
          <mxGeometry relative="1" as="geometry" />
        </mxCell>
        <mxCell id="LdislrrwhpJ1fRWfP6PM-18" value="&lt;div&gt;&lt;b&gt;&lt;font color=&quot;#001933&quot;&gt;&lt;br&gt;&lt;/font&gt;&lt;/b&gt;&lt;/div&gt;&lt;b&gt;&lt;font color=&quot;#001933&quot;&gt;&lt;div&gt;&lt;b&gt;&lt;font color=&quot;#001933&quot;&gt;&lt;br&gt;&lt;/font&gt;&lt;/b&gt;&lt;/div&gt;Network&lt;/font&gt;&lt;/b&gt;" style="html=1;outlineConnect=0;fillColor=#CCCCCC;strokeColor=#6881B3;gradientColor=none;gradientDirection=north;strokeWidth=2;shape=mxgraph.networks.cloud;fontColor=#ffffff;" vertex="1" parent="1">
          <mxGeometry x="360" y="320" width="129" height="90" as="geometry" />
        </mxCell>
        <mxCell id="LdislrrwhpJ1fRWfP6PM-20" value="Antena" style="text;html=1;align=center;verticalAlign=middle;resizable=0;points=[];autosize=1;strokeColor=none;fillColor=none;" vertex="1" parent="1">
          <mxGeometry x="94" y="490" width="60" height="30" as="geometry" />
        </mxCell>
        <mxCell id="LdislrrwhpJ1fRWfP6PM-21" value="" style="html=1;outlineConnect=0;fillColor=#CCCCCC;strokeColor=#6881B3;gradientColor=none;gradientDirection=north;strokeWidth=2;shape=mxgraph.networks.comm_link_edge;html=1;rounded=0;" edge="1" parent="1">
          <mxGeometry width="100" height="100" relative="1" as="geometry">
            <mxPoint x="260" y="510" as="sourcePoint" />
            <mxPoint x="360" y="410" as="targetPoint" />
          </mxGeometry>
        </mxCell>
        <mxCell id="LdislrrwhpJ1fRWfP6PM-22" value="" style="html=1;outlineConnect=0;fillColor=#CCCCCC;strokeColor=#6881B3;gradientColor=none;gradientDirection=north;strokeWidth=2;shape=mxgraph.networks.comm_link_edge;html=1;rounded=0;" edge="1" parent="1">
          <mxGeometry width="100" height="100" relative="1" as="geometry">
            <mxPoint x="500" y="390" as="sourcePoint" />
            <mxPoint x="600" y="500" as="targetPoint" />
          </mxGeometry>
        </mxCell>
        <mxCell id="LdislrrwhpJ1fRWfP6PM-23" value="" style="fontColor=#0066CC;verticalAlign=top;verticalLabelPosition=bottom;labelPosition=center;align=center;html=1;outlineConnect=0;fillColor=#CCCCCC;strokeColor=#6881B3;gradientColor=none;gradientDirection=north;strokeWidth=2;shape=mxgraph.networks.laptop;" vertex="1" parent="1">
          <mxGeometry x="540" y="104" width="100" height="55" as="geometry" />
        </mxCell>
        <mxCell id="LdislrrwhpJ1fRWfP6PM-24" value="" style="fontColor=#0066CC;verticalAlign=top;verticalLabelPosition=bottom;labelPosition=center;align=center;html=1;outlineConnect=0;fillColor=#CCCCCC;strokeColor=#6881B3;gradientColor=none;gradientDirection=north;strokeWidth=2;shape=mxgraph.networks.mobile;" vertex="1" parent="1">
          <mxGeometry x="670" y="250" width="50" height="100" as="geometry" />
        </mxCell>
        <mxCell id="LdislrrwhpJ1fRWfP6PM-25" value="" style="html=1;outlineConnect=0;fillColor=#CCCCCC;strokeColor=#6881B3;gradientColor=none;gradientDirection=north;strokeWidth=2;shape=mxgraph.networks.comm_link_edge;html=1;rounded=0;" edge="1" parent="1">
          <mxGeometry width="100" height="100" relative="1" as="geometry">
            <mxPoint x="460" y="300" as="sourcePoint" />
            <mxPoint x="550" y="170" as="targetPoint" />
          </mxGeometry>
        </mxCell>
        <mxCell id="LdislrrwhpJ1fRWfP6PM-26" value="" style="html=1;outlineConnect=0;fillColor=#CCCCCC;strokeColor=#6881B3;gradientColor=none;gradientDirection=north;strokeWidth=2;shape=mxgraph.networks.comm_link_edge;html=1;rounded=0;" edge="1" parent="1">
          <mxGeometry width="100" height="100" relative="1" as="geometry">
            <mxPoint x="490" y="370" as="sourcePoint" />
            <mxPoint x="660" y="300" as="targetPoint" />
          </mxGeometry>
        </mxCell>
        <mxCell id="LdislrrwhpJ1fRWfP6PM-27" value="Servidor" style="text;html=1;align=center;verticalAlign=middle;resizable=0;points=[];autosize=1;strokeColor=none;fillColor=none;" vertex="1" parent="1">
          <mxGeometry x="625" y="450" width="70" height="30" as="geometry" />
        </mxCell>
      </root>
    </mxGraphModel>
  </diagram>
</mxfile>
